{
.appVersion = "1075";
DisplayStrings = (
YAaZWHUAWMBSCDganfnosEFGSHEIlJKLMNOPQRSTUVWXYZabcdefghijklwmnopqrstuvwxyz
);
copyright = "Copyright © 2018 by Cadson Demak Co.,Ltd.. All rights reserved.";
customParameters = (
{
name = vendorID;
value = CDK;
},
{
name = description;
value = "Copyright (c) 2018, Cadson Demak (info@cadsondemak.com)";
},
{
name = license;

glyphs = (
{
color = 4;
glyphname = A;
lastChange = "2018-02-06 03:21:58 +0000";
layers = (
{
layerId = "0B1DFD06-3317-40CA-B510-4969A0718C16";
paths = (
{
closed = 1;
nodes = (
"580 22 LINE SMOOTH",
"580 2 OFFCURVE",
"589 -10 OFFCURVE",
"607 -10 CURVE SMOOTH",
"625 -10 OFFCURVE",
"633 2 OFFCURVE",
"633 22 CURVE SMOOTH",
"633 429 LINE SMOOTH",
"633 610 OFFCURVE",
"523 710 OFFCURVE",
"354 710 CURVE SMOOTH",
"183 710 OFFCURVE",
"75 610 OFFCURVE",
"75 429 CURVE SMOOTH",
"75 22 LINE SMOOTH",
"75 2 OFFCURVE",
"83 -10 OFFCURVE",
"101 -10 CURVE SMOOTH",
"119 -10 OFFCURVE",
"128 2 OFFCURVE",
"128 22 CURVE SMOOTH",
"128 270 LINE",
"580 270 LINE"
);
},
{
closed = 1;
nodes = (
"128 317 LINE",
"128 432 LINE SMOOTH",
"128 581 OFFCURVE",
"210 661 OFFCURVE",
"354 661 CURVE SMOOTH",
"496 661 OFFCURVE",
"580 581 OFFCURVE",
"580 432 CURVE SMOOTH",
"580 317 LINE"
);
}
);
width = 708;
}
);
note = A;
unicode = 0041;
},
{
color = 4;
glyphname = B;
lastChange = "2018-02-06 03:37:08 +0000";
layers = (
{
layerId = "0B1DFD06-3317-40CA-B510-4969A0718C16";
paths = (
{
closed = 1;
nodes = (
"75 110 LINE SMOOTH",
"75 50 OFFCURVE",
"109 0 OFFCURVE",
"191 0 CURVE SMOOTH",
"443 0 LINE SMOOTH",
"556 0 OFFCURVE",
"645 64 OFFCURVE",
"645 198 CURVE SMOOTH",
"645 272 OFFCURVE",
"606 333 OFFCURVE",
"531 359 CURVE",
"531 361 LINE",
"603 391 OFFCURVE",
"633 445 OFFCURVE",
"633 510 CURVE SMOOTH",
"633 644 OFFCURVE",
"544 700 OFFCURVE",
"431 700 CURVE SMOOTH",
"191 700 LINE SMOOTH",
"109 700 OFFCURVE",
"75 650 OFFCURVE",
"75 590 CURVE SMOOTH"
);
},
{
closed = 1;
nodes = (
"128 335 LINE",
"441 335 LINE SMOOTH",
"530 335 OFFCURVE",
"591 286 OFFCURVE",
"591 198 CURVE SMOOTH",
"591 93 OFFCURVE",
"532 47 OFFCURVE",
"443 47 CURVE SMOOTH",
"185 47 LINE SMOOTH",
"152 47 OFFCURVE",
"128 73 OFFCURVE",
"128 107 CURVE SMOOTH"
);
},
{
closed = 1;
nodes = (
"128 627 OFFCURVE",
"152 653 OFFCURVE",
"185 653 CURVE SMOOTH",
"431 653 LINE SMOOTH",
"520 653 OFFCURVE",
"579 611 OFFCURVE",
"579 510 CURVE SMOOTH",
"579 433 OFFCURVE",
"525 382 OFFCURVE",
"443 382 CURVE SMOOTH",
"128 382 LINE",
"128 593 LINE SMOOTH"
);
}
);
width = 705;
}
);
note = B;
unicode = 0042;
},
{
color = 4;
glyphname = C;
lastChange = "2018-02-05 11:59:08 +0000";
layers = (
{
layerId = "0B1DFD06-3317-40CA-B510-4969A0718C16";
paths = (
{
closed = 1;
nodes = (
"60 131 OFFCURVE",
"198 -10 OFFCURVE",
"399 -10 CURVE SMOOTH",
"498 -10 OFFCURVE",
"613 22 OFFCURVE",
"674 97 CURVE SMOOTH",
"683 108 OFFCURVE",
"683 123 OFFCURVE",
"672 133 CURVE SMOOTH",
"661 143 OFFCURVE",
"642 140 OFFCURVE",
"633 128 CURVE SMOOTH",
"586 65 OFFCURVE",
"494 40 OFFCURVE",
"399 40 CURVE SMOOTH",
"216 40 OFFCURVE",
"114 165 OFFCURVE",
"114 349 CURVE SMOOTH",
"114 533 OFFCURVE",
"216 660 OFFCURVE",
"399 660 CURVE SMOOTH",
"484 660 OFFCURVE",
"576 635 OFFCURVE",
"623 572 CURVE SMOOTH",
"632 560 OFFCURVE",
"650 559 OFFCURVE",
"662 567 CURVE SMOOTH",
"674 575 OFFCURVE",
"673 592 OFFCURVE",
"664 603 CURVE",
"603 678 OFFCURVE",
"498 710 OFFCURVE",
"399 710 CURVE SMOOTH",
"198 710 OFFCURVE",
"60 567 OFFCURVE",
"60 349 CURVE SMOOTH"
);
}
);
width = 741;
}
);
note = C;
unicode = 0043;
},
{
color = 4;
glyphname = D;
lastChange = "2018-02-06 03:37:12 +0000";
layers = (
{
layerId = "0B1DFD06-3317-40CA-B510-4969A0718C16";
paths = (
{
closed = 1;
nodes = (
"109 700 OFFCURVE",
"75 650 OFFCURVE",
"75 590 CURVE SMOOTH",
"75 110 LINE SMOOTH",
"75 50 OFFCURVE",
"109 0 OFFCURVE",
"191 0 CURVE SMOOTH",
"332 0 LINE SMOOTH",
"516 0 OFFCURVE",
"664 120 OFFCURVE",
"664 349 CURVE SMOOTH",
"664 576 OFFCURVE",
"518 700 OFFCURVE",
"332 700 CURVE SMOOTH",
"191 700 LINE"
);
},
{
closed = 1;
nodes = (
"150 47 OFFCURVE",
"128 71 OFFCURVE",
"128 107 CURVE SMOOTH",
"128 593 LINE SMOOTH",
"128 629 OFFCURVE",
"150 653 OFFCURVE",
"185 653 CURVE SMOOTH",
"322 653 LINE SMOOTH",
"473 653 OFFCURVE",
"610 568 OFFCURVE",
"610 349 CURVE SMOOTH",
"610 132 OFFCURVE",
"475 47 OFFCURVE",
"322 47 CURVE SMOOTH",
"185 47 LINE"
);
}
);
width = 724;
}
);
note = D;
unicode = 0044;
},
{
color = 4;
glyphname = E;
lastChange = "2018-02-06 03:36:32 +0000";
layers = (
{
layerId = "0B1DFD06-3317-40CA-B510-4969A0718C16";
paths = (
{
closed = 1;
nodes = (
"543 0 OFFCURVE",
"553 8 OFFCURVE",
"553 23 CURVE SMOOTH",
"553 41 OFFCURVE",
"542 47 OFFCURVE",
"523 47 CURVE SMOOTH",
"185 47 LINE SMOOTH",
"150 47 OFFCURVE",
"128 71 OFFCURVE",
"128 107 CURVE SMOOTH",
"128 334 LINE",
"425 334 LINE SMOOTH",
"445 334 OFFCURVE",
"455 342 OFFCURVE",
"455 357 CURVE SMOOTH",
"455 375 OFFCURVE",
"444 381 OFFCURVE",
"425 381 CURVE SMOOTH",
"128 381 LINE",
"128 593 LINE SMOOTH",
"128 629 OFFCURVE",
"150 653 OFFCURVE",
"185 653 CURVE SMOOTH",
"501 653 LINE SMOOTH",
"521 653 OFFCURVE",
"531 661 OFFCURVE",
"531 676 CURVE SMOOTH",
"531 694 OFFCURVE",
"520 700 OFFCURVE",
"501 700 CURVE SMOOTH",
"191 700 LINE SMOOTH",
"109 700 OFFCURVE",
"75 650 OFFCURVE",
"75 590 CURVE SMOOTH",
"75 110 LINE SMOOTH",
"75 50 OFFCURVE",
"109 0 OFFCURVE",
"191 0 CURVE SMOOTH",
"523 0 LINE SMOOTH"
);
}
);
width = 613;
}
);
note = E;
unicode = 0045;
},
{
color = 4;
glyphname = F;
lastChange = "2018-02-06 03:36:37 +0000";
layers = (
{
layerId = "0B1DFD06-3317-40CA-B510-4969A0718C16";
paths = (
{
closed = 1;
nodes = (
"75 2 OFFCURVE",
"83 -10 OFFCURVE",
"101 -10 CURVE SMOOTH",
"119 -10 OFFCURVE",
"128 2 OFFCURVE",
"128 22 CURVE SMOOTH",
"128 324 LINE",
"425 324 LINE SMOOTH",
"445 324 OFFCURVE",
"455 332 OFFCURVE",
"455 347 CURVE SMOOTH",
"455 365 OFFCURVE",
"444 371 OFFCURVE",
"425 371 CURVE SMOOTH",
"128 371 LINE",
"128 593 LINE SMOOTH",
"128 629 OFFCURVE",
"150 653 OFFCURVE",
"185 653 CURVE SMOOTH",
"501 653 LINE SMOOTH",
"521 653 OFFCURVE",
"531 661 OFFCURVE",
"531 676 CURVE SMOOTH",
"531 694 OFFCURVE",
"520 700 OFFCURVE",
"501 700 CURVE SMOOTH",
"191 700 LINE SMOOTH",
"109 700 OFFCURVE",
"75 650 OFFCURVE",
"75 590 CURVE SMOOTH",
"75 22 LINE SMOOTH"
);
}
);
width = 581;
}
);
note = F;
unicode = 0046;
},
{
color = 4;
glyphname = G;
lastChange = "2018-02-06 02:58:37 +0000";
layers = (
{
layerId = "0B1DFD06-3317-40CA-B510-4969A0718C16";
paths = (
{
closed = 1;
nodes = (
"384 316 OFFCURVE",
"374 324 OFFCURVE",
"374 339 CURVE SMOOTH",
"374 357 OFFCURVE",
"385 363 OFFCURVE",
"404 363 CURVE SMOOTH",
"588 363 LINE SMOOTH",
"670 363 OFFCURVE",
"701 325 OFFCURVE",
"701 261 CURVE SMOOTH",
"701 223 LINE SMOOTH",
"701 110 OFFCURVE",
"592 -10 OFFCURVE",
"403 -10 CURVE SMOOTH",
"197 -10 OFFCURVE",
"60 131 OFFCURVE",
"60 349 CURVE SMOOTH",
"60 567 OFFCURVE",
"198 710 OFFCURVE",
"404 710 CURVE SMOOTH",
"503 710 OFFCURVE",
"608 678 OFFCURVE",
"669 603 CURVE",
"678 592 OFFCURVE",
"679 575 OFFCURVE",
"667 567 CURVE SMOOTH",
"655 559 OFFCURVE",
"637 560 OFFCURVE",
"628 572 CURVE SMOOTH",
"581 635 OFFCURVE",
"489 660 OFFCURVE",
"404 660 CURVE SMOOTH",
"216 660 OFFCURVE",
"114 533 OFFCURVE",
"114 349 CURVE SMOOTH",
"114 165 OFFCURVE",
"215 40 OFFCURVE",
"403 40 CURVE SMOOTH",
"553 40 OFFCURVE",
"648 123 OFFCURVE",
"648 222 CURVE SMOOTH",
"648 260 LINE SMOOTH",
"648 302 OFFCURVE",
"634 316 OFFCURVE",
"594 316 CURVE SMOOTH",
"404 316 LINE SMOOTH"
);
}
);
width = 761;
}
);
note = G;
unicode = 0047;
},
{
color = 4;
glyphname = H;
lastChange = "2018-02-05 12:13:19 +0000";
layers = (
{
layerId = "0B1DFD06-3317-40CA-B510-4969A0718C16";
paths = (
{
closed = 1;
nodes = (
"602 22 LINE SMOOTH",
"602 2 OFFCURVE",
"611 -10 OFFCURVE",
"629 -10 CURVE SMOOTH",
"647 -10 OFFCURVE",
"655 2 OFFCURVE",
"655 22 CURVE SMOOTH",
"655 678 LINE SMOOTH",
"655 698 OFFCURVE",
"647 710 OFFCURVE",
"629 710 CURVE SMOOTH",
"611 710 OFFCURVE",
"602 698 OFFCURVE",
"602 678 CURVE SMOOTH",
"602 383 LINE",
"133 383 LINE",
"133 678 LINE SMOOTH",
"133 698 OFFCURVE",
"124 710 OFFCURVE",
"106 710 CURVE SMOOTH",
"88 710 OFFCURVE",
"80 698 OFFCURVE",
"80 678 CURVE SMOOTH",
"80 22 LINE SMOOTH",
"80 2 OFFCURVE",
"88 -10 OFFCURVE",
"106 -10 CURVE SMOOTH",
"124 -10 OFFCURVE",
"133 2 OFFCURVE",
"133 22 CURVE SMOOTH",
"133 336 LINE",
"602 336 LINE"
);
}
);
width = 735;
}
);
note = H;
unicode = 0048;
},
{
color = 4;
glyphname = I;
lastChange = "2018-02-05 11:45:56 +0000";
layers = (
{
layerId = "0B1DFD06-3317-40CA-B510-4969A0718C16";
paths = (
{
closed = 1;
nodes = (
"133 678 LINE SMOOTH",
"133 698 OFFCURVE",
"124 710 OFFCURVE",
"106 710 CURVE SMOOTH",
"88 710 OFFCURVE",
"80 698 OFFCURVE",
"80 678 CURVE SMOOTH",
"80 22 LINE SMOOTH",
"80 2 OFFCURVE",
"88 -10 OFFCURVE",
"106 -10 CURVE SMOOTH",
"124 -10 OFFCURVE",
"133 2 OFFCURVE",
"133 22 CURVE SMOOTH"
);
}
);
width = 213;
}
);
note = I;
unicode = 0049;
},
{
color = 4;
glyphname = J;
lastChange = "2018-02-06 03:36:24 +0000";
layers = (
{
layerId = "0B1DFD06-3317-40CA-B510-4969A0718C16";
paths = (
{
closed = 1;
nodes = (
"377 40 OFFCURVE",
"456 84 OFFCURVE",
"456 211 CURVE SMOOTH",
"456 678 LINE SMOOTH",
"456 698 OFFCURVE",
"464 710 OFFCURVE",
"482 710 CURVE SMOOTH",
"500 710 OFFCURVE",
"509 698 OFFCURVE",
"509 678 CURVE SMOOTH",
"509 215 LINE SMOOTH",
"509 30 OFFCURVE",
"367 -10 OFFCURVE",
"292 -10 CURVE SMOOTH",
"187 -10 OFFCURVE",
"113 27 OFFCURVE",
"57 103 CURVE SMOOTH",
"47 117 OFFCURVE",
"48 129 OFFCURVE",
"59 139 CURVE SMOOTH",
"70 149 OFFCURVE",
"88 148 OFFCURVE",
"98 134 CURVE SMOOTH",
"150 63 OFFCURVE",
"204 40 OFFCURVE",
"292 40 CURVE SMOOTH"
);
}
);
width = 584;
}
);
note = J;
unicode = 004A;
},
{
color = 4;
glyphname = K;
lastChange = "2018-02-06 03:36:16 +0000";
layers = (
{
layerId = "0B1DFD06-3317-40CA-B510-4969A0718C16";
paths = (
{
closed = 1;
nodes = (
"80 2 OFFCURVE",
"88 -10 OFFCURVE",
"106 -10 CURVE SMOOTH",
"124 -10 OFFCURVE",
"133 2 OFFCURVE",
"133 22 CURVE SMOOTH",
"133 271 LINE",
"268 383 LINE",
"427 287 OFFCURVE",
"517 198 OFFCURVE",
"563 7 CURVE SMOOTH",
"566 -7 OFFCURVE",
"577 -17 OFFCURVE",
"592 -14 CURVE SMOOTH",
"607 -11 OFFCURVE",
"613 3 OFFCURVE",
"610 17 CURVE SMOOTH",
"567 216 OFFCURVE",
"464 313 OFFCURVE",
"307 415 CURVE",
"588 661 LINE SMOOTH",
"612 682 OFFCURVE",
"579 718 OFFCURVE",
"557 699 CURVE SMOOTH",
"133 335 LINE",
"133 678 LINE SMOOTH",
"133 698 OFFCURVE",
"124 710 OFFCURVE",
"106 710 CURVE SMOOTH",
"88 710 OFFCURVE",
"80 698 OFFCURVE",
"80 678 CURVE SMOOTH",
"80 22 LINE SMOOTH"
);
}
);
width = 671;
}
);
note = K;
unicode = 004B;
},
{
color = 4;
glyphname = L;
lastChange = "2018-02-06 02:58:50 +0000";
layers = (
{
layerId = "0B1DFD06-3317-40CA-B510-4969A0718C16";
paths = (
{
closed = 1;
nodes = (
"80 110 LINE SMOOTH",
"80 50 OFFCURVE",
"114 0 OFFCURVE",
"196 0 CURVE SMOOTH",
"528 0 LINE SMOOTH",
"548 0 OFFCURVE",
"558 8 OFFCURVE",
"558 23 CURVE SMOOTH",
"558 41 OFFCURVE",
"547 47 OFFCURVE",
"528 47 CURVE SMOOTH",
"190 47 LINE SMOOTH",
"155 47 OFFCURVE",
"133 71 OFFCURVE",
"133 107 CURVE SMOOTH",
"133 678 LINE SMOOTH",
"133 698 OFFCURVE",
"124 710 OFFCURVE",
"106 710 CURVE SMOOTH",
"88 710 OFFCURVE",
"80 698 OFFCURVE",
"80 678 CURVE SMOOTH"
);
}
);
width = 608;
}
);
note = L;
unicode = 004C;
},
{
color = 4;
glyphname = M;
lastChange = "2018-02-06 03:37:04 +0000";
layers = (
{
layerId = "0B1DFD06-3317-40CA-B510-4969A0718C16";
paths = (
{
closed = 1;
nodes = (
"506 613 OFFCURVE",
"586 660 OFFCURVE",
"670 660 CURVE SMOOTH",
"772 660 OFFCURVE",
"833 613 OFFCURVE",
"833 490 CURVE SMOOTH",
"833 22 LINE SMOOTH",
"833 2 OFFCURVE",
"841 -10 OFFCURVE",
"859 -10 CURVE SMOOTH",
"877 -10 OFFCURVE",
"886 2 OFFCURVE",
"886 22 CURVE SMOOTH",
"886 490 LINE SMOOTH",
"886 633 OFFCURVE",
"799 710 OFFCURVE",
"670 710 CURVE SMOOTH",
"572 710 OFFCURVE",
"505 654 OFFCURVE",
"480 591 CURVE",
"455 654 OFFCURVE",
"384 710 OFFCURVE",
"291 710 CURVE SMOOTH",
"162 710 OFFCURVE",
"75 633 OFFCURVE",
"75 490 CURVE SMOOTH",
"75 22 LINE SMOOTH",
"75 2 OFFCURVE",
"83 -10 OFFCURVE",
"101 -10 CURVE SMOOTH",
"119 -10 OFFCURVE",
"128 2 OFFCURVE",
"128 22 CURVE SMOOTH",
"128 490 LINE SMOOTH",
"128 613 OFFCURVE",
"189 660 OFFCURVE",
"291 660 CURVE SMOOTH",
"370 660 OFFCURVE",
"455 613 OFFCURVE",
"455 490 CURVE SMOOTH",
"455 22 LINE SMOOTH",
"455 2 OFFCURVE",
"463 -10 OFFCURVE",
"480 -10 CURVE SMOOTH",
"498 -10 OFFCURVE",
"506 2 OFFCURVE",
"506 22 CURVE SMOOTH",
"506 490 LINE SMOOTH"
);
}
);
width = 961;
}
);
note = M;
unicode = 004D;
},
{
color = 4;
glyphname = N;
lastChange = "2018-02-06 03:37:22 +0000";
layers = (
{
layerId = "0B1DFD06-3317-40CA-B510-4969A0718C16";
paths = (
{
closed = 1;
nodes = (
"632 698 OFFCURVE",
"623 710 OFFCURVE",
"605 710 CURVE SMOOTH",
"587 710 OFFCURVE",
"579 698 OFFCURVE",
"579 678 CURVE SMOOTH",
"579 269 LINE",
"554 320 LINE SMOOTH",
"449 535 OFFCURVE",
"377 710 OFFCURVE",
"224 710 CURVE SMOOTH",
"147 710 OFFCURVE",
"75 662 OFFCURVE",
"75 557 CURVE SMOOTH",
"75 22 LINE SMOOTH",
"75 2 OFFCURVE",
"83 -10 OFFCURVE",
"101 -10 CURVE SMOOTH",
"119 -10 OFFCURVE",
"128 2 OFFCURVE",
"128 22 CURVE SMOOTH",
"128 557 LINE SMOOTH",
"128 622 OFFCURVE",
"158 659 OFFCURVE",
"224 659 CURVE SMOOTH",
"353 659 OFFCURVE",
"407 500 OFFCURVE",
"534 246 CURVE SMOOTH",
"579 156 LINE",
"579 22 LINE SMOOTH",
"579 2 OFFCURVE",
"587 -10 OFFCURVE",
"605 -10 CURVE SMOOTH",
"623 -10 OFFCURVE",
"632 2 OFFCURVE",
"632 22 CURVE SMOOTH",
"632 678 LINE SMOOTH"
);
}
);
width = 712;
}
);
note = N;
unicode = 004E;
},
{
color = 4;
glyphname = O;
lastChange = "2018-02-06 03:22:13 +0000";
layers = (
{
layerId = "0B1DFD06-3317-40CA-B510-4969A0718C16";
paths = (
{
closed = 1;
nodes = (
"221 -10 OFFCURVE",
"60 127 OFFCURVE",
"60 350 CURVE SMOOTH",
"60 573 OFFCURVE",
"221 710 OFFCURVE",
"409 710 CURVE SMOOTH",
"597 710 OFFCURVE",
"758 573 OFFCURVE",
"758 350 CURVE SMOOTH",
"758 127 OFFCURVE",
"597 -10 OFFCURVE",
"409 -10 CURVE SMOOTH"
);
},
{
closed = 1;
nodes = (
"246 661 OFFCURVE",
"113 553 OFFCURVE",
"113 350 CURVE SMOOTH",
"113 147 OFFCURVE",
"246 39 OFFCURVE",
"409 39 CURVE SMOOTH",
"572 39 OFFCURVE",
"705 147 OFFCURVE",
"705 350 CURVE SMOOTH",
"705 553 OFFCURVE",
"572 661 OFFCURVE",
"409 661 CURVE SMOOTH"
);
}
);
width = 818;
}
);
note = O;
unicode = 004F;
},
{
color = 4;
glyphname = P;
lastChange = "2018-02-06 03:36:53 +0000";
layers = (
{
layerId = "0B1DFD06-3317-40CA-B510-4969A0718C16";
paths = (
{
closed = 1;
nodes = (
"506 227 OFFCURVE",
"637 310 OFFCURVE",
"637 464 CURVE SMOOTH",
"637 616 OFFCURVE",
"554 700 OFFCURVE",
"362 700 CURVE SMOOTH",
"191 700 LINE SMOOTH",
"109 700 OFFCURVE",
"75 650 OFFCURVE",
"75 590 CURVE SMOOTH",
"75 22 LINE SMOOTH",
"75 2 OFFCURVE",
"83 -10 OFFCURVE",
"101 -10 CURVE SMOOTH",
"119 -10 OFFCURVE",
"128 2 OFFCURVE",
"128 22 CURVE SMOOTH",
"128 291 LINE",
"128 291 LINE",
"205 244 OFFCURVE",
"290 227 OFFCURVE",
"359 227 CURVE SMOOTH"
);
},
{
closed = 1;
nodes = (
"128 593 LINE SMOOTH",
"128 629 OFFCURVE",
"150 653 OFFCURVE",
"185 653 CURVE SMOOTH",
"367 653 LINE SMOOTH",
"499 653 OFFCURVE",
"583 608 OFFCURVE",
"583 464 CURVE SMOOTH",
"583 322 OFFCURVE",
"463 277 OFFCURVE",
"358 277 CURVE SMOOTH",
"289 277 OFFCURVE",
"202 295 OFFCURVE",
"128 345 CURVE"
);
}
);
width = 697;
}
);
note = P;
unicode = 0050;
},
{
color = 4;
glyphname = Q;
lastChange = "2018-02-06 03:36:05 +0000";
layers = (
{
layerId = "0B1DFD06-3317-40CA-B510-4969A0718C16";
paths = (
{
closed = 1;
nodes = (
"691 -19 OFFCURVE",
"690 -29 OFFCURVE",
"678 -36 CURVE SMOOTH",
"666 -43 OFFCURVE",
"651 -41 OFFCURVE",
"645 -29 CURVE SMOOTH",
"635 -9 OFFCURVE",
"617 24 OFFCURVE",
"603 49 CURVE",
"546 10 OFFCURVE",
"483.356 -10 OFFCURVE",
"409 -10 CURVE SMOOTH",
"221 -10 OFFCURVE",
"60 127 OFFCURVE",
"60 350 CURVE SMOOTH",
"60 573 OFFCURVE",
"221 710 OFFCURVE",
"409 710 CURVE SMOOTH",
"597 710 OFFCURVE",
"758 573 OFFCURVE",
"758 350 CURVE SMOOTH",
"758 234.436 OFFCURVE",
"713 140 OFFCURVE",
"643 78 CURVE",
"658 48 OFFCURVE",
"669 30 OFFCURVE",
"683 -1 CURVE SMOOTH"
);
},
{
closed = 1;
nodes = (
"113 246 OFFCURVE",
"149 166 OFFCURVE",
"204 114 CURVE",
"245 180 OFFCURVE",
"320 231 OFFCURVE",
"416 231 CURVE SMOOTH",
"513 231 OFFCURVE",
"576 184 OFFCURVE",
"618 119 CURVE",
"671 171 OFFCURVE",
"705 249 OFFCURVE",
"705 350 CURVE SMOOTH",
"705 553 OFFCURVE",
"572 661 OFFCURVE",
"409 661 CURVE SMOOTH",
"246 661 OFFCURVE",
"113 553 OFFCURVE",
"113 350 CURVE SMOOTH"
);
},
{
closed = 1;
nodes = (
"290 55 OFFCURVE",
"348 39 OFFCURVE",
"409 39 CURVE SMOOTH",
"474 39 OFFCURVE",
"532 57 OFFCURVE",
"580 89 CURVE",
"546 142 OFFCURVE",
"499 182 OFFCURVE",
"418 182 CURVE SMOOTH",
"331 182 OFFCURVE",
"274 139 OFFCURVE",
"243 85 CURVE"
);
}
);
width = 818;
}
);
note = Q;
unicode = 0051;
},
{
color = 4;
glyphname = R;
lastChange = "2018-02-06 03:36:49 +0000";
layers = (
{
layerId = "0B1DFD06-3317-40CA-B510-4969A0718C16";
paths = (
{
closed = 1;
nodes = (
"191 700 LINE SMOOTH",
"109 700 OFFCURVE",
"75 650 OFFCURVE",
"75 590 CURVE SMOOTH",
"75 22 LINE SMOOTH",
"75 2 OFFCURVE",
"83 -10 OFFCURVE",
"101 -10 CURVE SMOOTH",
"119 -10 OFFCURVE",
"128 2 OFFCURVE",
"128 22 CURVE SMOOTH",
"128 593 LINE SMOOTH",
"128 629 OFFCURVE",
"150 653 OFFCURVE",
"185 653 CURVE SMOOTH",
"379 653 LINE SMOOTH",
"516 653 OFFCURVE",
"593 604 OFFCURVE",
"593 490 CURVE SMOOTH",
"593 382 OFFCURVE",
"509 351 OFFCURVE",
"417 351 CURVE SMOOTH",
"379 351 OFFCURVE",
"322 360 OFFCURVE",
"281 372 CURVE SMOOTH",
"271 375 OFFCURVE",
"258 376 OFFCURVE",
"247 361 CURVE SMOOTH",
"238 349 OFFCURVE",
"241 333 OFFCURVE",
"259 315 CURVE SMOOTH",
"565 12 LINE",
"578 -6 OFFCURVE",
"591 -9 OFFCURVE",
"605 -1 CURVE SMOOTH",
"618 6 OFFCURVE",
"618 19 OFFCURVE",
"613 32 CURVE",
"326 312 LINE",
"327 315 LINE",
"359 308 OFFCURVE",
"391 304 OFFCURVE",
"421 304 CURVE SMOOTH",
"549 304 OFFCURVE",
"646 370 OFFCURVE",
"646 492 CURVE SMOOTH",
"646 664 OFFCURVE",
"501 700 OFFCURVE",
"374 700 CURVE SMOOTH"
);
}
);
width = 706;
}
);
note = R;
unicode = 0052;
},
{
color = 4;
glyphname = S;
lastChange = "2018-02-05 12:13:59 +0000";
layers = (
{
layerId = "0B1DFD06-3317-40CA-B510-4969A0718C16";
paths = (
{
closed = 1;
nodes = (
"611 316 OFFCURVE",
"462 356 OFFCURVE",
"341 384 CURVE SMOOTH",
"233 409 OFFCURVE",
"129 433 OFFCURVE",
"129 532 CURVE SMOOTH",
"129 621 OFFCURVE",
"196 660 OFFCURVE",
"328 660 CURVE SMOOTH",
"438 660 OFFCURVE",
"512 625 OFFCURVE",
"545 569 CURVE",
"554 556 OFFCURVE",
"571 551 OFFCURVE",
"584 557 CURVE",
"597 565 OFFCURVE",
"601 578 OFFCURVE",
"594 591 CURVE SMOOTH",
"554 666 OFFCURVE",
"446 710 OFFCURVE",
"328 710 CURVE SMOOTH",
"158 710 OFFCURVE",
"75 635 OFFCURVE",
"75 532 CURVE SMOOTH",
"75 400 OFFCURVE",
"206 360 OFFCURVE",
"341 330 CURVE SMOOTH",
"449 306 OFFCURVE",
"557 277 OFFCURVE",
"557 179 CURVE SMOOTH",
"557 88 OFFCURVE",
"483 40 OFFCURVE",
"354 40 CURVE SMOOTH",
"255 40 OFFCURVE",
"164 68 OFFCURVE",
"109 135 CURVE SMOOTH",
"100 146 OFFCURVE",
"86 156 OFFCURVE",
"72 147 CURVE SMOOTH",
"60 139 OFFCURVE",
"56 124 OFFCURVE",
"65 111 CURVE SMOOTH",
"117 35 OFFCURVE",
"233 -10 OFFCURVE",
"354 -10 CURVE SMOOTH",
"497 -10 OFFCURVE",
"611 50 OFFCURVE",
"611 179 CURVE SMOOTH"
);
}
);
width = 671;
}
);
note = S;
unicode = 0053;
},
{
color = 4;
glyphname = T;
lastChange = "2018-02-06 03:35:55 +0000";
layers = (
{
layerId = "0B1DFD06-3317-40CA-B510-4969A0718C16";
paths = (
{
closed = 1;
nodes = (
"50 661 OFFCURVE",
"60 653 OFFCURVE",
"80 653 CURVE SMOOTH",
"323 653 LINE",
"323 653 LINE",
"323 22 LINE SMOOTH",
"323 2 OFFCURVE",
"331 -10 OFFCURVE",
"349 -10 CURVE SMOOTH",
"367 -10 OFFCURVE",
"376 2 OFFCURVE",
"376 22 CURVE SMOOTH",
"376 653 LINE",
"619 653 LINE SMOOTH",
"639 653 OFFCURVE",
"649 661 OFFCURVE",
"649 676 CURVE SMOOTH",
"649 694 OFFCURVE",
"638 700 OFFCURVE",
"619 700 CURVE SMOOTH",
"80 700 LINE SMOOTH",
"61 700 OFFCURVE",
"50 694 OFFCURVE",
"50 676 CURVE SMOOTH"
);
}
);
width = 699;
}
);
note = T;
unicode = 0054;
},
{
color = 4;
glyphname = U;
lastChange = "2018-02-06 03:28:09 +0000";
layers = (
{
layerId = "0B1DFD06-3317-40CA-B510-4969A0718C16";
paths = (
{
closed = 1;
nodes = (
"527 -10 OFFCURVE",
"647 92 OFFCURVE",
"647 275 CURVE SMOOTH",
"647 678 LINE SMOOTH",
"647 698 OFFCURVE",
"639 710 OFFCURVE",
"621 710 CURVE SMOOTH",
"603 710 OFFCURVE",
"594 698 OFFCURVE",
"594 678 CURVE SMOOTH",
"594 272 LINE SMOOTH",
"594 119 OFFCURVE",
"501 39 OFFCURVE",
"361 39 CURVE SMOOTH",
"216 39 OFFCURVE",
"128 119 OFFCURVE",
"128 272 CURVE SMOOTH",
"128 678 LINE SMOOTH",
"128 698 OFFCURVE",
"119 710 OFFCURVE",
"101 710 CURVE SMOOTH",
"83 710 OFFCURVE",
"75 698 OFFCURVE",
"75 678 CURVE SMOOTH",
"75 275 LINE SMOOTH",
"75 92 OFFCURVE",
"185 -10 OFFCURVE",
"361 -10 CURVE SMOOTH"
);
}
);
width = 722;
}
);
note = U;
unicode = 0055;
},
{
color = 4;
glyphname = V;
lastChange = "2018-02-06 03:50:46 +0000";
layers = (
{
layerId = "0B1DFD06-3317-40CA-B510-4969A0718C16";
paths = (
{
closed = 1;
nodes = (
"432 -10 OFFCURVE",
"485 33 OFFCURVE",
"524 188 CURVE SMOOTH",
"646 675 LINE SMOOTH",
"651 696 OFFCURVE",
"647 710 OFFCURVE",
"625 710 CURVE SMOOTH",
"603 710 OFFCURVE",
"599 701 OFFCURVE",
"594 680 CURVE SMOOTH",
"473 194 LINE SMOOTH",
"445 80 OFFCURVE",
"416 38 OFFCURVE",
"349 38 CURVE SMOOTH",
"282 38 OFFCURVE",
"253 80 OFFCURVE",
"225 194 CURVE SMOOTH",
"104 680 LINE SMOOTH",
"99 701 OFFCURVE",
"95 710 OFFCURVE",
"73 710 CURVE SMOOTH",
"51 710 OFFCURVE",
"47 696 OFFCURVE",
"52 675 CURVE SMOOTH",
"174 188 LINE SMOOTH",
"213 33 OFFCURVE",
"266 -10 OFFCURVE",
"349 -10 CURVE SMOOTH"
);
}
);
width = 698;
}
);
note = V;
unicode = 0056;
},
{
color = 4;
glyphname = W;
lastChange = "2018-02-06 03:50:48 +0000";
layers = (
{
layerId = "0B1DFD06-3317-40CA-B510-4969A0718C16";
paths = (
{
closed = 1;
nodes = (
"467 662 OFFCURVE",
"474 650 OFFCURVE",
"479 622 CURVE SMOOTH",
"565 94 LINE SMOOTH",
"579 7 OFFCURVE",
"617 -10 OFFCURVE",
"655 -10 CURVE SMOOTH",
"693 -10 OFFCURVE",
"733 7 OFFCURVE",
"750 94 CURVE SMOOTH",
"862 675 LINE SMOOTH",
"866 696 OFFCURVE",
"863 710 OFFCURVE",
"841 710 CURVE SMOOTH",
"819 710 OFFCURVE",
"814 701 OFFCURVE",
"810 680 CURVE SMOOTH",
"699 95 LINE SMOOTH",
"692 56 OFFCURVE",
"682 38 OFFCURVE",
"655 38 CURVE SMOOTH",
"628 38 OFFCURVE",
"617 56 OFFCURVE",
"611 95 CURVE SMOOTH",
"526 623 LINE SMOOTH",
"516 684 OFFCURVE",
"491 710 OFFCURVE",
"452 710 CURVE SMOOTH",
"413 710 OFFCURVE",
"388 684 OFFCURVE",
"378 623 CURVE SMOOTH",
"293 95 LINE SMOOTH",
"287 56 OFFCURVE",
"276 38 OFFCURVE",
"249 38 CURVE SMOOTH",
"222 38 OFFCURVE",
"212 56 OFFCURVE",
"205 95 CURVE SMOOTH",
"94 680 LINE SMOOTH",
"90 701 OFFCURVE",
"85 710 OFFCURVE",
"63 710 CURVE SMOOTH",
"41 710 OFFCURVE",
"38 696 OFFCURVE",
"42 675 CURVE SMOOTH",
"154 94 LINE SMOOTH",
"171 7 OFFCURVE",
"211 -10 OFFCURVE",
"249 -10 CURVE SMOOTH",
"287 -10 OFFCURVE",
"325 7 OFFCURVE",
"339 94 CURVE SMOOTH",
"425 622 LINE SMOOTH",
"430 650 OFFCURVE",
"437 662 OFFCURVE",
"452 662 CURVE SMOOTH"
);
}
);
width = 904;
}
);
note = W;
unicode = 0057;
},
{
color = 6;
glyphname = X;
lastChange = "2018-02-06 04:52:11 +0000";
layers = (
{
layerId = "0B1DFD06-3317-40CA-B510-4969A0718C16";
paths = (
{
closed = 1;
nodes = (
"525 260 LINE",
"495 313 OFFCURVE",
"464 341 OFFCURVE",
"434 358 CURVE",
"464 377 OFFCURVE",
"496 407 OFFCURVE",
"525 454 CURVE",
"639 660 LINE",
"646 674 OFFCURVE",
"641 692 OFFCURVE",
"628 699 CURVE",
"614 705 OFFCURVE",
"599 699 OFFCURVE",
"594 686 CURVE",
"481 476 LINE SMOOTH",
"437 393 OFFCURVE",
"398 385 OFFCURVE",
"352 385 CURVE SMOOTH",
"304 385 OFFCURVE",
"266 393 OFFCURVE",
"221 476 CURVE SMOOTH",
"109 686 LINE",
"103 699 OFFCURVE",
"89 705 OFFCURVE",
"75 699 CURVE",
"62 692 OFFCURVE",
"56 674 OFFCURVE",
"64 660 CURVE",
"177 456 LINE SMOOTH",
"205 406 OFFCURVE",
"238 377 OFFCURVE",
"268 358 CURVE",
"221 331 OFFCURVE",
"210 309 OFFCURVE",
"181 263 CURVE",
"64 33 LINE",
"58 20 OFFCURVE",
"64 3 OFFCURVE",
"75 -4 CURVE",
"89 -12 OFFCURVE",
"103 -6 OFFCURVE",
"109 9 CURVE",
"221 234 LINE SMOOTH",
"263 313 OFFCURVE",
"304 333 OFFCURVE",
"352 333 CURVE SMOOTH",
"398 333 OFFCURVE",
"440 313 OFFCURVE",
"481 234 CURVE SMOOTH",
"594 9 LINE",
"599 -6 OFFCURVE",
"612 -12 OFFCURVE",
"628 -4 CURVE",
"639 3 OFFCURVE",
"645 20 OFFCURVE",
"639 33 CURVE"
);
}
);
width = 702;
}
);
note = X;
unicode = 0058;
},
{
color = 4;
glyphname = Y;
lastChange = "2018-02-06 03:50:51 +0000";
layers = (
{
layerId = "0B1DFD06-3317-40CA-B510-4969A0718C16";
paths = (
{
closed = 1;
nodes = (
"502 230 OFFCURVE",
"622 362 OFFCURVE",
"622 545 CURVE SMOOTH",
"622 678 LINE SMOOTH",
"622 698 OFFCURVE",
"614 710 OFFCURVE",
"596 710 CURVE SMOOTH",
"578 710 OFFCURVE",
"569 698 OFFCURVE",
"569 678 CURVE SMOOTH",
"569 542 LINE SMOOTH",
"569 379 OFFCURVE",
"481 279 OFFCURVE",
"341 279 CURVE SMOOTH",
"196 279 OFFCURVE",
"113 379 OFFCURVE",
"113 542 CURVE SMOOTH",
"113 678 LINE SMOOTH",
"113 698 OFFCURVE",
"104 710 OFFCURVE",
"86 710 CURVE SMOOTH",
"68 710 OFFCURVE",
"60 698 OFFCURVE",
"60 678 CURVE SMOOTH",
"60 545 LINE SMOOTH",
"60 362 OFFCURVE",
"165 230 OFFCURVE",
"341 230 CURVE SMOOTH"
);
},
{
closed = 1;
nodes = (
"315 241 LINE",
"315 22 LINE SMOOTH",
"315 2 OFFCURVE",
"323 -10 OFFCURVE",
"341 -10 CURVE SMOOTH",
"359 -10 OFFCURVE",
"368 2 OFFCURVE",
"368 22 CURVE SMOOTH",
"368 241 LINE",
"315 241 LINE"
);
}
);
width = 682;
}
);
note = Y;
unicode = 0059;
},
{
color = 4;
glyphname = Z;
lastChange = "2018-02-06 03:55:16 +0000";
layers = (
{
layerId = "0B1DFD06-3317-40CA-B510-4969A0718C16";
paths = (
{
closed = 1;
nodes = (
"77 157 OFFCURVE",
"60 134 OFFCURVE",
"60 85 CURVE SMOOTH",
"60 23 OFFCURVE",
"100 0 OFFCURVE",
"158 0 CURVE SMOOTH",
"610 0 LINE SMOOTH",
"629 0 OFFCURVE",
"640 6 OFFCURVE",
"640 24 CURVE SMOOTH",
"640 39 OFFCURVE",
"630 47 OFFCURVE",
"610 47 CURVE SMOOTH",
"158 47 LINE SMOOTH",
"123 47 OFFCURVE",
"113 61 OFFCURVE",
"113 85 CURVE SMOOTH",
"113 116 OFFCURVE",
"123 133 OFFCURVE",
"152 157 CURVE SMOOTH",
"573 509 LINE SMOOTH",
"615 544 OFFCURVE",
"632 566 OFFCURVE",
"632 615 CURVE SMOOTH",
"632 677 OFFCURVE",
"592 700 OFFCURVE",
"534 700 CURVE SMOOTH",
"109 700 LINE SMOOTH",
"90 700 OFFCURVE",
"79 694 OFFCURVE",
"79 676 CURVE SMOOTH",
"79 661 OFFCURVE",
"89 653 OFFCURVE",
"109 653 CURVE SMOOTH",
"534 653 LINE SMOOTH",
"569 653 OFFCURVE",
"579 639 OFFCURVE",
"579 615 CURVE SMOOTH",
"579 584 OFFCURVE",
"569 567 OFFCURVE",
"540 543 CURVE SMOOTH",
"119 192 LINE SMOOTH"
);
}
);
width = 700;
}
);
note = Z;
unicode = 005A;
},
{
color = 4;
glyphname = a;
lastChange = "2018-02-06 04:44:14 +0000";
layers = (
{
layerId = "0B1DFD06-3317-40CA-B510-4969A0718C16";
paths = (
{
closed = 1;
nodes = (
"166 434 OFFCURVE",
"216 452 OFFCURVE",
"287 452 CURVE SMOOTH",
"421 452 OFFCURVE",
"445 389 OFFCURVE",
"445 327 CURVE SMOOTH",
"445 262 LINE",
"414 300 OFFCURVE",
"352 328 OFFCURVE",
"262 328 CURVE SMOOTH",
"123 328 OFFCURVE",
"50 254 OFFCURVE",
"50 158 CURVE SMOOTH",
"50 70 OFFCURVE",
"105 -10 OFFCURVE",
"257 -10 CURVE SMOOTH",
"337 -10 OFFCURVE",
"401 14 OFFCURVE",
"446 67 CURVE",
"446 22 LINE SMOOTH",
"446 2 OFFCURVE",
"454 -10 OFFCURVE",
"471 -10 CURVE SMOOTH",
"489 -10 OFFCURVE",
"496 2 OFFCURVE",
"496 22 CURVE SMOOTH",
"496 323 LINE SMOOTH",
"496 424 OFFCURVE",
"438 500 OFFCURVE",
"285 500 CURVE SMOOTH",
"191 500 OFFCURVE",
"122 468 OFFCURVE",
"83 438 CURVE SMOOTH",
"74 431 OFFCURVE",
"73 410 OFFCURVE",
"85 402 CURVE SMOOTH",
"97 394 OFFCURVE",
"106 397 OFFCURVE",
"119 405 CURVE SMOOTH"
);
},
{
closed = 1;
nodes = (
"446 81 OFFCURVE",
"359 38 OFFCURVE",
"257 38 CURVE SMOOTH",
"157 38 OFFCURVE",
"102 78 OFFCURVE",
"102 158 CURVE SMOOTH",
"102 227 OFFCURVE",
"151 280 OFFCURVE",
"259 280 CURVE SMOOTH",
"383 280 OFFCURVE",
"446 235 OFFCURVE",
"446 165 CURVE SMOOTH"
);
}
);
width = 571;
}
);
note = a;
unicode = 0061;
},
{
color = 6;
glyphname = b;
lastChange = "2018-02-06 04:31:25 +0000";
layers = (
{
layerId = "0B1DFD06-3317-40CA-B510-4969A0718C16";
paths = (
{
closed = 1;
nodes = (
"572 105 OFFCURVE",
"502 38 OFFCURVE",
"357 38 CURVE SMOOTH",
"215 38 OFFCURVE",
"131 118 OFFCURVE",
"131 245 CURVE SMOOTH",
"131 379 OFFCURVE",
"244 452 OFFCURVE",
"357 452 CURVE SMOOTH",
"498 452 OFFCURVE",
"572 368 OFFCURVE",
"572 245 CURVE SMOOTH"
);
},
{
closed = 1;
nodes = (
"131 747 OFFCURVE",
"123 759 OFFCURVE",
"105 759 CURVE SMOOTH",
"87 759 OFFCURVE",
"80 747 OFFCURVE",
"80 727 CURVE SMOOTH",
"80 22 LINE SMOOTH",
"80 2 OFFCURVE",
"87 -10 OFFCURVE",
"105 -10 CURVE SMOOTH",
"123 -10 OFFCURVE",
"131 2 OFFCURVE",
"131 22 CURVE SMOOTH",
"131 103 LINE",
"179 28 OFFCURVE",
"259 -10 OFFCURVE",
"357 -10 CURVE SMOOTH",
"536 -10 OFFCURVE",
"624 90 OFFCURVE",
"624 245 CURVE SMOOTH",
"624 388 OFFCURVE",
"534 500 OFFCURVE",
"357 500 CURVE SMOOTH",
"249 500 OFFCURVE",
"181 452 OFFCURVE",
"132 389 CURVE",
"131 727 LINE"
);
}
);
width = 684;
}
);
note = b;
unicode = 0062;
},
{
color = 6;
glyphname = c;
lastChange = "2018-02-06 05:01:26 +0000";
layers = (
{
layerId = "0B1DFD06-3317-40CA-B510-4969A0718C16";
paths = (
{
closed = 1;
nodes = (
"480 475 OFFCURVE",
"407 500 OFFCURVE",
"309 500 CURVE SMOOTH",
"119 500 OFFCURVE",
"45 365 OFFCURVE",
"45 246 CURVE SMOOTH",
"45 99 OFFCURVE",
"146 -10 OFFCURVE",
"309 -10 CURVE SMOOTH",
"405 -10 OFFCURVE",
"471 21 OFFCURVE",
"524 70 CURVE SMOOTH",
"535 80 OFFCURVE",
"535 95 OFFCURVE",
"523 105 CURVE",
"512 117 OFFCURVE",
"496 111 OFFCURVE",
"486 100 CURVE SMOOTH",
"449 60 OFFCURVE",
"391 38 OFFCURVE",
"309 38 CURVE SMOOTH",
"161 38 OFFCURVE",
"97 128 OFFCURVE",
"97 246 CURVE SMOOTH",
"97 371 OFFCURVE",
"165 452 OFFCURVE",
"309 452 CURVE SMOOTH",
"395 452 OFFCURVE",
"449 431 OFFCURVE",
"486 390 CURVE SMOOTH",
"496 379 OFFCURVE",
"513 374 OFFCURVE",
"523 384 CURVE",
"535 394 OFFCURVE",
"536 408 OFFCURVE",
"526 420 CURVE SMOOTH"
);
}
);
width = 581;
}
);
note = c;
unicode = 0063;
},
{
color = 6;
glyphname = d;
lastChange = "2018-02-06 04:31:31 +0000";
layers = (
{
layerId = "0B1DFD06-3317-40CA-B510-4969A0718C16";
paths = (
{
closed = 1;
nodes = (
"112 364 OFFCURVE",
"188 452 OFFCURVE",
"329 452 CURVE SMOOTH",
"442 452 OFFCURVE",
"553 379 OFFCURVE",
"553 245 CURVE SMOOTH",
"553 118 OFFCURVE",
"469 38 OFFCURVE",
"327 38 CURVE SMOOTH",
"192 38 OFFCURVE",
"112 101 OFFCURVE",
"112 241 CURVE SMOOTH"
);
},
{
closed = 1;
nodes = (
"552 389 LINE",
"503 452 OFFCURVE",
"437 500 OFFCURVE",
"329 500 CURVE SMOOTH",
"152 500 OFFCURVE",
"60 384 OFFCURVE",
"60 241 CURVE SMOOTH",
"60 86 OFFCURVE",
"158 -10 OFFCURVE",
"327 -10 CURVE SMOOTH",
"425 -10 OFFCURVE",
"505 28 OFFCURVE",
"553 103 CURVE",
"553 22 LINE SMOOTH",
"553 2 OFFCURVE",
"561 -10 OFFCURVE",
"579 -10 CURVE SMOOTH",
"597 -10 OFFCURVE",
"604 2 OFFCURVE",
"604 22 CURVE SMOOTH",
"604 727 LINE SMOOTH",
"604 747 OFFCURVE",
"597 759 OFFCURVE",
"579 759 CURVE SMOOTH",
"561 759 OFFCURVE",
"553 747 OFFCURVE",
"553 727 CURVE"
);
}
);
width = 684;
}
);
note = d;
unicode = 0064;
},
{
color = 6;
glyphname = e;
lastChange = "2018-02-06 06:41:14 +0000";
layers = (
{
layerId = "0B1DFD06-3317-40CA-B510-4969A0718C16";
paths = (
{
closed = 1;
nodes = (
"542 123 OFFCURVE",
"532 118 OFFCURVE",
"518 105 CURVE SMOOTH",
"474 65 OFFCURVE",
"424 39 OFFCURVE",
"329 39 CURVE SMOOTH",
"200 39 OFFCURVE",
"114 102 OFFCURVE",
"114 223 CURVE",
"516 223 LINE SMOOTH",
"563 223 OFFCURVE",
"593 250 OFFCURVE",
"593 304 CURVE SMOOTH",
"593 396 OFFCURVE",
"518 500 OFFCURVE",
"329 500 CURVE SMOOTH",
"175 500 OFFCURVE",
"60 413 OFFCURVE",
"60 250 CURVE SMOOTH",
"60 70 OFFCURVE",
"170 -9 OFFCURVE",
"329 -9 CURVE SMOOTH",
"424 -9 OFFCURVE",
"504 20 OFFCURVE",
"558 79 CURVE SMOOTH",
"569 91 OFFCURVE",
"567 104 OFFCURVE",
"554 114 CURVE SMOOTH"
);
},
{
closed = 1;
nodes = (
"116 268 LINE",
"116 363 OFFCURVE",
"184 452 OFFCURVE",
"329 452 CURVE SMOOTH",
"452 452 OFFCURVE",
"541 390 OFFCURVE",
"541 305 CURVE SMOOTH",
"541 275 OFFCURVE",
"528 268 OFFCURVE",
"502 268 CURVE SMOOTH"
);
}
);
width = 653;
}
);
note = e;
unicode = 0065;
},
{
color = 4;
glyphname = f;
lastChange = "2018-02-06 07:13:30 +0000";
layers = (
{
layerId = "0B1DFD06-3317-40CA-B510-4969A0718C16";
paths = (
{
closed = 1;
nodes = (
"223 691 OFFCURVE",
"189 671 OFFCURVE",
"189 603 CURVE SMOOTH",
"189 22 LINE SMOOTH",
"189 2 OFFCURVE",
"182 -10 OFFCURVE",
"164 -10 CURVE SMOOTH",
"146 -10 OFFCURVE",
"138 2 OFFCURVE",
"138 22 CURVE SMOOTH",
"138 599 LINE SMOOTH",
"138 699 OFFCURVE",
"203 739 OFFCURVE",
"269 739 CURVE SMOOTH",
"329 739 OFFCURVE",
"373 711 OFFCURVE",
"397 684 CURVE SMOOTH",
"407 672 OFFCURVE",
"407 660 OFFCURVE",
"395 650 CURVE SMOOTH",
"382 639 OFFCURVE",
"370 644 OFFCURVE",
"357 657 CURVE SMOOTH",
"337 676 OFFCURVE",
"315 691 OFFCURVE",
"269 691 CURVE SMOOTH"
);
},
{
closed = 1;
nodes = (
"60 455 OFFCURVE",
"50 462 OFFCURVE",
"50 477 CURVE SMOOTH",
"50 495 OFFCURVE",
"61 500 OFFCURVE",
"80 500 CURVE SMOOTH",
"340 500 LINE SMOOTH",
"359 500 OFFCURVE",
"370 495 OFFCURVE",
"370 477 CURVE SMOOTH",
"370 462 OFFCURVE",
"360 455 OFFCURVE",
"340 455 CURVE SMOOTH",
"80 455 LINE SMOOTH"
);
}
);
width = 454;
}
);
note = f;
unicode = 0066;
},
{
color = 6;
glyphname = g;
lastChange = "2018-02-06 06:41:25 +0000";
layers = (
{
layerId = "0B1DFD06-3317-40CA-B510-4969A0718C16";
paths = (
{
closed = 1;
nodes = (
"604 474 LINE SMOOTH",
"604 490 OFFCURVE",
"594 503 OFFCURVE",
"579 503 CURVE SMOOTH",
"565 503 OFFCURVE",
"553 490 OFFCURVE",
"553 474 CURVE SMOOTH",
"553 386 LINE",
"504 458 OFFCURVE",
"431 500 OFFCURVE",
"333 500 CURVE SMOOTH",
"145 500 OFFCURVE",
"60 378 OFFCURVE",
"60 231 CURVE SMOOTH",
"60 87 OFFCURVE",
"149 -16 OFFCURVE",
"326 -16 CURVE SMOOTH",
"432 -16 OFFCURVE",
"511 37 OFFCURVE",
"553 95 CURVE",
"553 -21 LINE SMOOTH",
"553 -143 OFFCURVE",
"477 -206 OFFCURVE",
"336 -206 CURVE SMOOTH",
"253 -206 OFFCURVE",
"198 -180 OFFCURVE",
"168 -144 CURVE SMOOTH",
"158 -132 OFFCURVE",
"145 -130 OFFCURVE",
"133 -138 CURVE SMOOTH",
"121 -146 OFFCURVE",
"118 -160 OFFCURVE",
"127 -171 CURVE SMOOTH",
"175 -226 OFFCURVE",
"256 -251 OFFCURVE",
"343 -251 CURVE SMOOTH",
"496 -251 OFFCURVE",
"604 -171 OFFCURVE",
"604 -21 CURVE SMOOTH"
);
},
{
closed = 1;
nodes = (
"112 373 OFFCURVE",
"190 452 OFFCURVE",
"333 452 CURVE SMOOTH",
"475 452 OFFCURVE",
"551 357 OFFCURVE",
"551 241 CURVE SMOOTH",
"551 93 OFFCURVE",
"428 32 OFFCURVE",
"326 32 CURVE SMOOTH",
"180 32 OFFCURVE",
"112 113 OFFCURVE",
"112 231 CURVE SMOOTH"
);
}
);
width = 684;
}
);
note = g;
unicode = 0067;
},
{
color = 4;
glyphname = h;
lastChange = "2018-02-06 04:40:36 +0000";
layers = (
{
layerId = "0B1DFD06-3317-40CA-B510-4969A0718C16";
paths = (
{
closed = 1;
nodes = (
"131 747 OFFCURVE",
"123 759 OFFCURVE",
"105 759 CURVE SMOOTH",
"87 759 OFFCURVE",
"80 747 OFFCURVE",
"80 727 CURVE SMOOTH",
"80 22 LINE SMOOTH",
"80 2 OFFCURVE",
"87 -10 OFFCURVE",
"105 -10 CURVE SMOOTH",
"123 -10 OFFCURVE",
"131 2 OFFCURVE",
"131 22 CURVE SMOOTH",
"131 255 LINE SMOOTH",
"131 383 OFFCURVE",
"225 452 OFFCURVE",
"339 452 CURVE SMOOTH",
"445 452 OFFCURVE",
"483 398 OFFCURVE",
"483 303 CURVE SMOOTH",
"483 22 LINE SMOOTH",
"483 2 OFFCURVE",
"490 -10 OFFCURVE",
"508 -10 CURVE SMOOTH",
"526 -10 OFFCURVE",
"534 2 OFFCURVE",
"534 22 CURVE SMOOTH",
"534 303 LINE SMOOTH",
"534 420 OFFCURVE",
"479 500 OFFCURVE",
"339 500 CURVE SMOOTH",
"241 500 OFFCURVE",
"173 453 OFFCURVE",
"131 397 CURVE",
"131 727 LINE SMOOTH"
);
}
);
width = 609;
}
);
note = h;
unicode = 0068;
},
{
color = 3;
glyphname = i;
lastChange = "2018-02-06 05:02:00 +0000";
layers = (
{
layerId = "0B1DFD06-3317-40CA-B510-4969A0718C16";
paths = (
{
closed = 1;
nodes = (
"133 649 OFFCURVE",
"111 670 OFFCURVE",
"89 670 CURVE SMOOTH",
"66 670 OFFCURVE",
"47 649 OFFCURVE",
"47 628 CURVE SMOOTH",
"47 607 OFFCURVE",
"66 586 OFFCURVE",
"89 586 CURVE SMOOTH",
"111 586 OFFCURVE",
"133 607 OFFCURVE",
"133 628 CURVE SMOOTH"
);
},
{
closed = 1;
nodes = (
"115 468 LINE SMOOTH",
"115 488 OFFCURVE",
"107 500 OFFCURVE",
"89 500 CURVE SMOOTH",
"71 500 OFFCURVE",
"64 488 OFFCURVE",
"64 468 CURVE SMOOTH",
"64 22 LINE SMOOTH",
"64 2 OFFCURVE",
"71 -10 OFFCURVE",
"89 -10 CURVE SMOOTH",
"107 -10 OFFCURVE",
"115 2 OFFCURVE",
"115 22 CURVE SMOOTH"
);
}
);
width = 180;
}
);
note = i;
unicode = 0069;
},
{
color = 6;
glyphname = j;
lastChange = "2018-02-06 07:09:46 +0000";
layers = (
{
layerId = "0B1DFD06-3317-40CA-B510-4969A0718C16";
paths = (
{
closed = 1;
nodes = (
"133 649 OFFCURVE",
"111 670 OFFCURVE",
"89 670 CURVE SMOOTH",
"66 670 OFFCURVE",
"47 649 OFFCURVE",
"47 628 CURVE SMOOTH",
"47 607 OFFCURVE",
"66 586 OFFCURVE",
"89 586 CURVE SMOOTH",
"111 586 OFFCURVE",
"133 607 OFFCURVE",
"133 628 CURVE SMOOTH"
);
},
{
closed = 1;
nodes = (
"115 468 LINE SMOOTH",
"115 488 OFFCURVE",
"107 500 OFFCURVE",
"89 500 CURVE SMOOTH",
"71 500 OFFCURVE",
"64 488 OFFCURVE",
"64 468 CURVE SMOOTH",
"63 -124 LINE SMOOTH",
"63 -216 OFFCURVE",
"40 -243 OFFCURVE",
"-47 -243 CURVE SMOOTH",
"-62 -243 OFFCURVE",
"-73 -252 OFFCURVE",
"-73 -267 CURVE SMOOTH",
"-73 -282 OFFCURVE",
"-62 -292 OFFCURVE",
"-47 -292 CURVE SMOOTH",
"82 -292 OFFCURVE",
"114 -226 OFFCURVE",
"114 -124 CURVE SMOOTH"
);
}
);
width = 180;
}
);
note = j;
unicode = 006A;
},
{
color = 4;
glyphname = k;
lastChange = "2018-02-06 04:40:30 +0000";
layers = (
{
layerId = "0B1DFD06-3317-40CA-B510-4969A0718C16";
paths = (
{
closed = 1;
nodes = (
"131 747 OFFCURVE",
"123 759 OFFCURVE",
"105 759 CURVE SMOOTH",
"87 759 OFFCURVE",
"80 747 OFFCURVE",
"80 727 CURVE SMOOTH",
"80 22 LINE SMOOTH",
"80 2 OFFCURVE",
"87 -10 OFFCURVE",
"105 -10 CURVE SMOOTH",
"123 -10 OFFCURVE",
"131 2 OFFCURVE",
"131 22 CURVE SMOOTH",
"131 248 LINE",
"273 317 LINE",
"395 240 OFFCURVE",
"463 150 OFFCURVE",
"493 11 CURVE SMOOTH",
"496 -3 OFFCURVE",
"504 -10 OFFCURVE",
"521 -10 CURVE SMOOTH",
"539 -10 OFFCURVE",
"546 5 OFFCURVE",
"543 21 CURVE SMOOTH",
"516 166 OFFCURVE",
"425 273 OFFCURVE",
"321 341 CURVE",
"546 454 LINE",
"556 465 OFFCURVE",
"559 477 OFFCURVE",
"552 488 CURVE SMOOTH",
"546 497 OFFCURVE",
"534 504 OFFCURVE",
"521 497 CURVE",
"131 305 LINE",
"131 727 LINE SMOOTH"
);
}
);
width = 616;
}
);
note = k;
unicode = 006B;
},
{
color = 4;
glyphname = l;
lastChange = "2018-02-06 04:31:36 +0000";
layers = (
{
layerId = "0B1DFD06-3317-40CA-B510-4969A0718C16";
paths = (
{
closed = 1;
nodes = (
"131 727 LINE SMOOTH",
"131 747 OFFCURVE",
"123 759 OFFCURVE",
"105 759 CURVE SMOOTH",
"87 759 OFFCURVE",
"80 747 OFFCURVE",
"80 727 CURVE SMOOTH",
"80 22 LINE SMOOTH",
"80 2 OFFCURVE",
"87 -10 OFFCURVE",
"105 -10 CURVE SMOOTH",
"123 -10 OFFCURVE",
"131 2 OFFCURVE",
"131 22 CURVE SMOOTH"
);
}
);
width = 211;
}
);
note = l;
unicode = 006C;
},
{
color = 4;
glyphname = m;
lastChange = "2018-02-06 04:36:26 +0000";
layers = (
{
layerId = "0B1DFD06-3317-40CA-B510-4969A0718C16";
paths = (
{
closed = 1;
nodes = (
"80 2 OFFCURVE",
"87 -10 OFFCURVE",
"105 -10 CURVE SMOOTH",
"123 -10 OFFCURVE",
"131 2 OFFCURVE",
"131 22 CURVE SMOOTH",
"131 255 LINE SMOOTH",
"131 383 OFFCURVE",
"215 452 OFFCURVE",
"299 452 CURVE SMOOTH",
"367 452 OFFCURVE",
"403 398 OFFCURVE",
"403 303 CURVE SMOOTH",
"403 22 LINE SMOOTH",
"403 2 OFFCURVE",
"410 -10 OFFCURVE",
"428 -10 CURVE SMOOTH",
"446 -10 OFFCURVE",
"454 2 OFFCURVE",
"454 22 CURVE SMOOTH",
"454 336 LINE",
"484 412 OFFCURVE",
"542 452 OFFCURVE",
"606 452 CURVE SMOOTH",
"684 452 OFFCURVE",
"710 411 OFFCURVE",
"710 316 CURVE SMOOTH",
"710 22 LINE SMOOTH",
"710 2 OFFCURVE",
"717 -10 OFFCURVE",
"735 -10 CURVE SMOOTH",
"753 -10 OFFCURVE",
"761 2 OFFCURVE",
"761 22 CURVE SMOOTH",
"761 316 LINE SMOOTH",
"761 433 OFFCURVE",
"718 500 OFFCURVE",
"606 500 CURVE SMOOTH",
"539 500 OFFCURVE",
"481 458 OFFCURVE",
"439 398 CURVE",
"416 461 OFFCURVE",
"367 500 OFFCURVE",
"299 500 CURVE SMOOTH",
"231 500 OFFCURVE",
"168 460 OFFCURVE",
"131 397 CURVE",
"131 468 LINE SMOOTH",
"131 488 OFFCURVE",
"123 500 OFFCURVE",
"105 500 CURVE SMOOTH",
"87 500 OFFCURVE",
"80 488 OFFCURVE",
"80 468 CURVE SMOOTH",
"80 22 LINE SMOOTH"
);
}
);
width = 836;
}
);
note = m;
unicode = 006D;
},
{
color = 4;
glyphname = n;
lastChange = "2018-02-06 04:40:48 +0000";
layers = (
{
layerId = "0B1DFD06-3317-40CA-B510-4969A0718C16";
paths = (
{
closed = 1;
nodes = (
"131 488 OFFCURVE",
"123 500 OFFCURVE",
"105 500 CURVE SMOOTH",
"87 500 OFFCURVE",
"80 488 OFFCURVE",
"80 468 CURVE SMOOTH",
"80 22 LINE SMOOTH",
"80 2 OFFCURVE",
"87 -10 OFFCURVE",
"105 -10 CURVE SMOOTH",
"123 -10 OFFCURVE",
"131 2 OFFCURVE",
"131 22 CURVE SMOOTH",
"131 255 LINE SMOOTH",
"131 383 OFFCURVE",
"225 452 OFFCURVE",
"339 452 CURVE SMOOTH",
"445 452 OFFCURVE",
"483 398 OFFCURVE",
"483 303 CURVE SMOOTH",
"483 22 LINE SMOOTH",
"483 2 OFFCURVE",
"490 -10 OFFCURVE",
"508 -10 CURVE SMOOTH",
"526 -10 OFFCURVE",
"534 2 OFFCURVE",
"534 22 CURVE SMOOTH",
"534 303 LINE SMOOTH",
"534 420 OFFCURVE",
"479 500 OFFCURVE",
"339 500 CURVE SMOOTH",
"241 500 OFFCURVE",
"173 453 OFFCURVE",
"131 397 CURVE",
"131 468 LINE SMOOTH"
);
}
);
width = 609;
}
);
note = n;
unicode = 006E;
},
{
color = 6;
glyphname = o;
lastChange = "2018-02-06 04:52:33 +0000";
layers = (
{
layerId = "0B1DFD06-3317-40CA-B510-4969A0718C16";
paths = (
{
closed = 1;
nodes = (
"508 500 OFFCURVE",
"588 370 OFFCURVE",
"588 245 CURVE SMOOTH",
"588 120 OFFCURVE",
"508 -10 OFFCURVE",
"324 -10 CURVE SMOOTH",
"140 -10 OFFCURVE",
"60 120 OFFCURVE",
"60 245 CURVE SMOOTH",
"60 370 OFFCURVE",
"140 500 OFFCURVE",
"324 500 CURVE SMOOTH"
);
},
{
closed = 1;
nodes = (
"449 38 OFFCURVE",
"536 111 OFFCURVE",
"536 245 CURVE SMOOTH",
"536 379 OFFCURVE",
"449 452 OFFCURVE",
"324 452 CURVE SMOOTH",
"199 452 OFFCURVE",
"112 379 OFFCURVE",
"112 245 CURVE SMOOTH",
"112 111 OFFCURVE",
"199 38 OFFCURVE",
"324 38 CURVE SMOOTH"
);
}
);
width = 648;
}
);
note = o;
unicode = 006F;
},
{
color = 6;
glyphname = p;
lastChange = "2018-02-06 04:22:34 +0000";
layers = (
{
layerId = "0B1DFD06-3317-40CA-B510-4969A0718C16";
paths = (
{
closed = 1;
nodes = (
"572 122 OFFCURVE",
"498 38 OFFCURVE",
"357 38 CURVE SMOOTH",
"244 38 OFFCURVE",
"131 111 OFFCURVE",
"131 245 CURVE SMOOTH",
"131 372 OFFCURVE",
"215 452 OFFCURVE",
"357 452 CURVE SMOOTH",
"502 452 OFFCURVE",
"572 385 OFFCURVE",
"572 245 CURVE SMOOTH"
);
},
{
closed = 1;
nodes = (
"132 101 LINE",
"181 38 OFFCURVE",
"249 -10 OFFCURVE",
"357 -10 CURVE SMOOTH",
"534 -10 OFFCURVE",
"624 102 OFFCURVE",
"624 245 CURVE SMOOTH",
"624 400 OFFCURVE",
"536 500 OFFCURVE",
"357 500 CURVE SMOOTH",
"259 500 OFFCURVE",
"179 462 OFFCURVE",
"131 387 CURVE",
"131 468 LINE SMOOTH",
"131 488 OFFCURVE",
"123 500 OFFCURVE",
"105 500 CURVE SMOOTH",
"87 500 OFFCURVE",
"80 488 OFFCURVE",
"80 468 CURVE SMOOTH",
"80 -267 LINE SMOOTH",
"80 -287 OFFCURVE",
"87 -299 OFFCURVE",
"105 -299 CURVE SMOOTH",
"123 -299 OFFCURVE",
"131 -287 OFFCURVE",
"131 -267 CURVE"
);
}
);
width = 684;
}
);
note = p;
unicode = 0070;
},
{
color = 6;
glyphname = q;
lastChange = "2018-02-06 04:23:20 +0000";
layers = (
{
layerId = "0B1DFD06-3317-40CA-B510-4969A0718C16";
paths = (
{
closed = 1;
nodes = (
"102 381 OFFCURVE",
"172 452 OFFCURVE",
"317 452 CURVE SMOOTH",
"459 452 OFFCURVE",
"543 372 OFFCURVE",
"543 245 CURVE SMOOTH",
"543 111 OFFCURVE",
"425 38 OFFCURVE",
"312 38 CURVE SMOOTH",
"179 38 OFFCURVE",
"102 112 OFFCURVE",
"102 241 CURVE SMOOTH"
);
},
{
closed = 1;
nodes = (
"543 -287 OFFCURVE",
"551 -299 OFFCURVE",
"569 -299 CURVE SMOOTH",
"587 -299 OFFCURVE",
"594 -287 OFFCURVE",
"594 -267 CURVE SMOOTH",
"594 468 LINE SMOOTH",
"594 488 OFFCURVE",
"587 500 OFFCURVE",
"569 500 CURVE SMOOTH",
"551 500 OFFCURVE",
"543 488 OFFCURVE",
"543 468 CURVE SMOOTH",
"543 387 LINE",
"495 462 OFFCURVE",
"415 500 OFFCURVE",
"317 500 CURVE SMOOTH",
"138 500 OFFCURVE",
"50 396 OFFCURVE",
"50 241 CURVE SMOOTH",
"50 92 OFFCURVE",
"143 -10 OFFCURVE",
"312 -10 CURVE SMOOTH",
"420 -10 OFFCURVE",
"493 38 OFFCURVE",
"542 101 CURVE",
"543 -267 LINE"
);
}
);
width = 674;
}
);
note = q;
unicode = 0071;
},
{
color = 4;
glyphname = r;
lastChange = "2018-02-06 04:51:58 +0000";
layers = (
{
layerId = "0B1DFD06-3317-40CA-B510-4969A0718C16";
paths = (
{
closed = 1;
nodes = (
"231 500 OFFCURVE",
"173 453 OFFCURVE",
"131 397 CURVE",
"131 468 LINE SMOOTH",
"131 488 OFFCURVE",
"123 500 OFFCURVE",
"105 500 CURVE SMOOTH",
"87 500 OFFCURVE",
"80 488 OFFCURVE",
"80 468 CURVE SMOOTH",
"80 22 LINE SMOOTH",
"80 2 OFFCURVE",
"87 -10 OFFCURVE",
"105 -10 CURVE SMOOTH",
"123 -10 OFFCURVE",
"131 2 OFFCURVE",
"131 22 CURVE SMOOTH",
"131 255 LINE SMOOTH",
"131 379 OFFCURVE",
"215 452 OFFCURVE",
"329 452 CURVE SMOOTH",
"355 452 LINE SMOOTH",
"372 452 OFFCURVE",
"386 458 OFFCURVE",
"386 476 CURVE SMOOTH",
"386 494 OFFCURVE",
"372 500 OFFCURVE",
"355 500 CURVE SMOOTH",
"329 500 LINE SMOOTH"
);
}
);
width = 436;
}
);
note = r;
unicode = 0072;
},
{
color = 6;
glyphname = s;
lastChange = "2018-02-06 04:59:12 +0000";
layers = (
{
layerId = "0B1DFD06-3317-40CA-B510-4969A0718C16";
paths = (
{
closed = 1;
nodes = (
"442 201 OFFCURVE",
"385 231 OFFCURVE",
"256 274 CURVE SMOOTH",
"175 301 OFFCURVE",
"120 312 OFFCURVE",
"120 374 CURVE SMOOTH",
"120 433 OFFCURVE",
"172 451 OFFCURVE",
"248 451 CURVE SMOOTH",
"320 451 OFFCURVE",
"363 427 OFFCURVE",
"394 390 CURVE SMOOTH",
"404 378 OFFCURVE",
"416 375 OFFCURVE",
"431 382 CURVE SMOOTH",
"445 391 OFFCURVE",
"445 406 OFFCURVE",
"437 418 CURVE SMOOTH",
"404 467 OFFCURVE",
"330 500 OFFCURVE",
"248 500 CURVE SMOOTH",
"155 500 OFFCURVE",
"66 460 OFFCURVE",
"66 376 CURVE SMOOTH",
"66 283 OFFCURVE",
"150 259 OFFCURVE",
"233 230 CURVE SMOOTH",
"346 191 OFFCURVE",
"391 177 OFFCURVE",
"391 119 CURVE SMOOTH",
"391 60 OFFCURVE",
"330 40 OFFCURVE",
"253 40 CURVE SMOOTH",
"181 40 OFFCURVE",
"133 56 OFFCURVE",
"90 111 CURVE SMOOTH",
"78 126 OFFCURVE",
"75 134 OFFCURVE",
"57 130 CURVE SMOOTH",
"40 126 OFFCURVE",
"34 109 OFFCURVE",
"43 94 CURVE SMOOTH",
"85 25 OFFCURVE",
"155 -9 OFFCURVE",
"253 -9 CURVE SMOOTH",
"362 -9 OFFCURVE",
"442 34 OFFCURVE",
"442 119 CURVE"
);
}
);
width = 499;
}
);
note = s;
unicode = 0073;
},
{
color = 4;
glyphname = t;
lastChange = "2018-02-06 04:31:42 +0000";
layers = (
{
layerId = "0B1DFD06-3317-40CA-B510-4969A0718C16";
paths = (
{
closed = 1;
nodes = (
"245 38 OFFCURVE",
"268 58 OFFCURVE",
"287 80 CURVE SMOOTH",
"299 94 OFFCURVE",
"312 98 OFFCURVE",
"325 87 CURVE SMOOTH",
"337 77 OFFCURVE",
"336 66 OFFCURVE",
"327 53 CURVE SMOOTH",
"306 23 OFFCURVE",
"259 -10 OFFCURVE",
"199 -10 CURVE SMOOTH",
"133 -10 OFFCURVE",
"68 30 OFFCURVE",
"68 130 CURVE SMOOTH",
"68 667 LINE SMOOTH",
"68 687 OFFCURVE",
"76 699 OFFCURVE",
"94 699 CURVE SMOOTH",
"112 699 OFFCURVE",
"119 687 OFFCURVE",
"119 667 CURVE SMOOTH",
"119 126 LINE SMOOTH",
"119 58 OFFCURVE",
"153 38 OFFCURVE",
"199 38 CURVE SMOOTH"
);
},
{
closed = 1;
nodes = (
"270 500 LINE SMOOTH",
"290 500 OFFCURVE",
"300 493 OFFCURVE",
"300 478 CURVE SMOOTH",
"300 460 OFFCURVE",
"289 455 OFFCURVE",
"270 455 CURVE SMOOTH",
"10 455 LINE SMOOTH",
"-9 455 OFFCURVE",
"-20 460 OFFCURVE",
"-20 478 CURVE SMOOTH",
"-20 493 OFFCURVE",
"-10 500 OFFCURVE",
"10 500 CURVE SMOOTH"
);
}
);
width = 319;
}
);
note = t;
unicode = 0074;
},
{
color = 4;
glyphname = u;
lastChange = "2018-02-06 04:30:21 +0000";
layers = (
{
layerId = "0B1DFD06-3317-40CA-B510-4969A0718C16";
paths = (
{
closed = 1;
nodes = (
"469 2 OFFCURVE",
"477 -10 OFFCURVE",
"495 -10 CURVE SMOOTH",
"513 -10 OFFCURVE",
"520 2 OFFCURVE",
"520 22 CURVE SMOOTH",
"520 468 LINE SMOOTH",
"520 488 OFFCURVE",
"513 500 OFFCURVE",
"495 500 CURVE SMOOTH",
"477 500 OFFCURVE",
"469 488 OFFCURVE",
"469 468 CURVE SMOOTH",
"469 235 LINE SMOOTH",
"469 107 OFFCURVE",
"375 38 OFFCURVE",
"271 38 CURVE SMOOTH",
"172 38 OFFCURVE",
"117 95 OFFCURVE",
"117 197 CURVE SMOOTH",
"117 468 LINE SMOOTH",
"117 488 OFFCURVE",
"110 500 OFFCURVE",
"92 500 CURVE SMOOTH",
"74 500 OFFCURVE",
"66 488 OFFCURVE",
"66 468 CURVE SMOOTH",
"66 197 LINE SMOOTH",
"66 73 OFFCURVE",
"138 -10 OFFCURVE",
"271 -10 CURVE SMOOTH",
"359 -10 OFFCURVE",
"427 37 OFFCURVE",
"469 93 CURVE",
"469 22 LINE SMOOTH"
);
}
);
width = 643;
}
);
note = u;
unicode = 0075;
},
{
color = 6;
glyphname = v;
lastChange = "2018-02-06 04:52:05 +0000";
layers = (
{
layerId = "0B1DFD06-3317-40CA-B510-4969A0718C16";
paths = (
{
closed = 1;
nodes = (
"609 479 OFFCURVE",
"602 495 OFFCURVE",
"587 500 CURVE",
"574 505 OFFCURVE",
"558 497 OFFCURVE",
"554 483 CURVE",
"426 122 LINE SMOOTH",
"409 75 OFFCURVE",
"384 35 OFFCURVE",
"333 35 CURVE SMOOTH",
"281 35 OFFCURVE",
"256 75 OFFCURVE",
"238 125 CURVE SMOOTH",
"111 483 LINE",
"107 497 OFFCURVE",
"91 505 OFFCURVE",
"77 500 CURVE",
"64 495 OFFCURVE",
"57 479 OFFCURVE",
"61 464 CURVE",
"189 104 LINE SMOOTH",
"210 46 OFFCURVE",
"248 -10 OFFCURVE",
"333 -10 CURVE SMOOTH",
"418 -10 OFFCURVE",
"455 46 OFFCURVE",
"475 101 CURVE SMOOTH",
"604 464 LINE"
);
}
);
width = 666;
}
);
note = v;
unicode = 0076;
},
{
color = 6;
glyphname = w;
lastChange = "2018-02-06 04:47:41 +0000";
layers = (
{
layerId = "0B1DFD06-3317-40CA-B510-4969A0718C16";
paths = (
{
closed = 1;
nodes = (
"401 452 OFFCURVE",
"409 444 OFFCURVE",
"412 424 CURVE SMOOTH",
"473 64 LINE SMOOTH",
"483 2 OFFCURVE",
"522 -10 OFFCURVE",
"557 -10 CURVE SMOOTH",
"579 -10 OFFCURVE",
"631 2 OFFCURVE",
"643 64 CURVE SMOOTH",
"722 475 LINE SMOOTH",
"725 490 OFFCURVE",
"712 500 OFFCURVE",
"700 500 CURVE SMOOTH",
"676 500 OFFCURVE",
"674 494 OFFCURVE",
"671 479 CURVE SMOOTH",
"593 78 LINE SMOOTH",
"588 51 OFFCURVE",
"576 38 OFFCURVE",
"557 38 CURVE SMOOTH",
"531 38 OFFCURVE",
"523 51 OFFCURVE",
"519 78 CURVE SMOOTH",
"459 438 LINE SMOOTH",
"452 482 OFFCURVE",
"415 500 OFFCURVE",
"391 500 CURVE SMOOTH",
"367 500 OFFCURVE",
"330 482 OFFCURVE",
"323 438 CURVE SMOOTH",
"263 78 LINE SMOOTH",
"259 51 OFFCURVE",
"251 38 OFFCURVE",
"225 38 CURVE SMOOTH",
"206 38 OFFCURVE",
"194 51 OFFCURVE",
"189 78 CURVE SMOOTH",
"111 479 LINE SMOOTH",
"108 494 OFFCURVE",
"106 500 OFFCURVE",
"82 500 CURVE SMOOTH",
"70 500 OFFCURVE",
"57 490 OFFCURVE",
"60 475 CURVE SMOOTH",
"139 64 LINE SMOOTH",
"151 2 OFFCURVE",
"203 -10 OFFCURVE",
"225 -10 CURVE SMOOTH",
"260 -10 OFFCURVE",
"299 2 OFFCURVE",
"309 64 CURVE SMOOTH",
"370 424 LINE SMOOTH",
"373 444 OFFCURVE",
"381 452 OFFCURVE",
"391 452 CURVE SMOOTH"
);
}
);
width = 782;
}
);
note = w;
unicode = 0077;
},
{
color = 6;
glyphname = x;
lastChange = "2018-02-06 07:13:09 +0000";
layers = (
{
layerId = "0B1DFD06-3317-40CA-B510-4969A0718C16";
paths = (
{
closed = 1;
nodes = (
"311 227 OFFCURVE",
"325 202 OFFCURVE",
"346 169 CURVE SMOOTH",
"452 4 LINE SMOOTH",
"461 -10 OFFCURVE",
"481 -13 OFFCURVE",
"492 -3 CURVE SMOOTH",
"504 8 OFFCURVE",
"501 25 OFFCURVE",
"492 38 CURVE SMOOTH",
"384 200 LINE SMOOTH",
"372 219 OFFCURVE",
"357 238 OFFCURVE",
"332 252 CURVE",
"359 266 OFFCURVE",
"373 281 OFFCURVE",
"386 302 CURVE SMOOTH",
"482 453 LINE SMOOTH",
"490 466 OFFCURVE",
"493 484 OFFCURVE",
"480 494 CURVE SMOOTH",
"469 503 OFFCURVE",
"452 502 OFFCURVE",
"442 489 CURVE",
"347 334 LINE SMOOTH",
"324 296 OFFCURVE",
"305 278 OFFCURVE",
"275 278 CURVE SMOOTH",
"245 278 OFFCURVE",
"226 296 OFFCURVE",
"203 334 CURVE SMOOTH",
"108 489 LINE",
"98 502 OFFCURVE",
"81 503 OFFCURVE",
"70 494 CURVE SMOOTH",
"57 484 OFFCURVE",
"60 466 OFFCURVE",
"68 453 CURVE SMOOTH",
"164 302 LINE SMOOTH",
"177 281 OFFCURVE",
"191 266 OFFCURVE",
"218 252 CURVE",
"193 238 OFFCURVE",
"178 219 OFFCURVE",
"166 200 CURVE SMOOTH",
"58 38 LINE SMOOTH",
"49 25 OFFCURVE",
"46 8 OFFCURVE",
"58 -3 CURVE SMOOTH",
"69 -13 OFFCURVE",
"89 -10 OFFCURVE",
"98 4 CURVE SMOOTH",
"204 169 LINE SMOOTH",
"225 202 OFFCURVE",
"239 227 OFFCURVE",
"275 227 CURVE SMOOTH"
);
}
);
width = 551;
}
);
note = x;
unicode = 0078;
},
{
color = 6;
glyphname = y;
lastChange = "2018-02-06 07:10:20 +0000";
layers = (
{
layerId = "0B1DFD06-3317-40CA-B510-4969A0718C16";
paths = (
{
closed = 1;
nodes = (
"557 461 LINE SMOOTH",
"557 476 OFFCURVE",
"554 500 OFFCURVE",
"528 500 CURVE SMOOTH",
"502 500 OFFCURVE",
"498 476 OFFCURVE",
"498 461 CURVE SMOOTH",
"498 256 LINE SMOOTH",
"498 125 OFFCURVE",
"433 43 OFFCURVE",
"299 43 CURVE SMOOTH",
"173 43 OFFCURVE",
"95 122 OFFCURVE",
"95 266 CURVE SMOOTH",
"95 471 LINE SMOOTH",
"95 487 OFFCURVE",
"83 499 OFFCURVE",
"69 499 CURVE SMOOTH",
"53 499 OFFCURVE",
"42 487 OFFCURVE",
"42 471 CURVE SMOOTH",
"42 266 LINE SMOOTH",
"42 109 OFFCURVE",
"127 -1 OFFCURVE",
"299 -1 CURVE SMOOTH",
"395 -1 OFFCURVE",
"462 35 OFFCURVE",
"503 95 CURVE",
"503 1 LINE SMOOTH",
"503 -137 OFFCURVE",
"416 -219 OFFCURVE",
"289 -219 CURVE SMOOTH",
"218 -219 OFFCURVE",
"152 -195 OFFCURVE",
"122 -158 CURVE SMOOTH",
"113 -147 OFFCURVE",
"98 -142 OFFCURVE",
"85 -150 CURVE SMOOTH",
"72 -158 OFFCURVE",
"70 -174 OFFCURVE",
"78 -186 CURVE SMOOTH",
"115 -241 OFFCURVE",
"204 -266 OFFCURVE",
"292 -266 CURVE SMOOTH",
"435 -266 OFFCURVE",
"557 -167 OFFCURVE",
"557 1 CURVE SMOOTH"
);
}
);
width = 603;
}
);
note = y;
unicode = 0079;
},
{
color = 6;
glyphname = z;
lastChange = "2018-02-06 04:54:02 +0000";
layers = (
{
layerId = "0B1DFD06-3317-40CA-B510-4969A0718C16";
paths = (
{
closed = 1;
nodes = (
"86 152 OFFCURVE",
"66 131 OFFCURVE",
"66 88 CURVE SMOOTH",
"66 26 OFFCURVE",
"108 0 OFFCURVE",
"176 0 CURVE SMOOTH",
"460 0 LINE SMOOTH",
"486 0 OFFCURVE",
"499 7 OFFCURVE",
"499 25 CURVE SMOOTH",
"499 43 OFFCURVE",
"486 49 OFFCURVE",
"460 49 CURVE SMOOTH",
"169 49 LINE SMOOTH",
"131 49 OFFCURVE",
"113 63 OFFCURVE",
"113 88 CURVE SMOOTH",
"113 109 OFFCURVE",
"131 128 OFFCURVE",
"158 145 CURVE SMOOTH",
"440 319 LINE SMOOTH",
"478 343 OFFCURVE",
"499 367 OFFCURVE",
"499 410 CURVE SMOOTH",
"499 472 OFFCURVE",
"449 500 OFFCURVE",
"381 500 CURVE SMOOTH",
"105 500 LINE SMOOTH",
"79 500 OFFCURVE",
"66 494 OFFCURVE",
"66 475 CURVE SMOOTH",
"66 458 OFFCURVE",
"79 451 OFFCURVE",
"105 451 CURVE SMOOTH",
"390 451 LINE SMOOTH",
"435 451 OFFCURVE",
"450 434 OFFCURVE",
"450 410 CURVE SMOOTH",
"450 387 OFFCURVE",
"439 374 OFFCURVE",
"407 354 CURVE SMOOTH",
"125 177 LINE SMOOTH"
);
}
);
width = 565;
}
);
note = z;
unicode = 007A;
},
{
glyphname = AE;
lastChange = "2017-12-19 04:34:50 +0000";
layers = (
{
layerId = "0B1DFD06-3317-40CA-B510-4969A0718C16";
paths = (
{
closed = 1;
nodes = (
"595 322 LINE",
"595 39 LINE SMOOTH",
"595 13 OFFCURVE",
"605 0 OFFCURVE",
"623 0 CURVE SMOOTH",
"640 0 OFFCURVE",
"649 13 OFFCURVE",
"649 39 CURVE SMOOTH",
"649 111 LINE",
"702 32 OFFCURVE",
"797 -3 OFFCURVE",
"876 -3 CURVE SMOOTH",
"1037 -3 OFFCURVE",
"1122 55 OFFCURVE",
"1152 116 CURVE",
"1158 129 OFFCURVE",
"1158 147 OFFCURVE",
"1145 154 CURVE",
"1132 162 OFFCURVE",
"1113 158 OFFCURVE",
"1106 145 CURVE SMOOTH",
"1073 86 OFFCURVE",
"1005 46 OFFCURVE",
"870 46 CURVE SMOOTH",
"758 47 OFFCURVE",
"650 132 OFFCURVE",
"650 253 CURVE SMOOTH",
"650 322 LINE",
"961 322 LINE SMOOTH",
"988 322 OFFCURVE",
"999 331 OFFCURVE",
"999 349 CURVE SMOOTH",
"999 367 OFFCURVE",
"988 375 OFFCURVE",
"961 375 CURVE SMOOTH",
"650 375 LINE",
"650 459 LINE SMOOTH",
"650 569 OFFCURVE",
"758 650 OFFCURVE",
"870 651 CURVE SMOOTH",
"1005 651 OFFCURVE",
"1073 611 OFFCURVE",
"1106 552 CURVE SMOOTH",
"1113 539 OFFCURVE",
"1132 535 OFFCURVE",
"1145 544 CURVE",
"1158 551 OFFCURVE",
"1156 568 OFFCURVE",
"1150 581 CURVE",
"1120 643 OFFCURVE",
"1037 705 OFFCURVE",
"876 705 CURVE SMOOTH",
"781 705 OFFCURVE",
"669 653 OFFCURVE",
"620 559 CURVE",
"569 654 OFFCURVE",
"482 705 OFFCURVE",
"355 705 CURVE SMOOTH",
"253 705 OFFCURVE",
"175 676 OFFCURVE",
"124 620 CURVE SMOOTH",
"52 541 OFFCURVE",
"59 436 OFFCURVE",
"59 431 CURVE SMOOTH",
"59 39 LINE SMOOTH",
"59 13 OFFCURVE",
"68 0 OFFCURVE",
"86 0 CURVE SMOOTH",
"104 0 OFFCURVE",
"112 13 OFFCURVE",
"112 39 CURVE SMOOTH",
"112 322 LINE"
);
},
{
closed = 1;
nodes = (
"595 375 LINE",
"114 375 LINE",
"114 434 LINE SMOOTH",
"114 437 OFFCURVE",
"108 522 OFFCURVE",
"164 582 CURVE SMOOTH",
"206 627 OFFCURVE",
"270 650 OFFCURVE",
"355 650 CURVE SMOOTH",
"493 650 OFFCURVE",
"590 572 OFFCURVE",
"595 452 CURVE"
);
}
);
width = 1199;
}
);
note = AE;
unicode = 00C6;
},
{
glyphname = Eth;
lastChange = "2017-12-19 04:34:59 +0000";
layers = (
{
layerId = "0B1DFD06-3317-40CA-B510-4969A0718C16";
paths = (
{
closed = 1;
nodes = (
"1 326 LINE",
"88 326 LINE",
"88 145 LINE SMOOTH",
"88 39 OFFCURVE",
"194 0 OFFCURVE",
"265 0 CURVE SMOOTH",
"298 0 LINE SMOOTH",
"305 0 OFFCURVE",
"467 -7 OFFCURVE",
"581 101 CURVE SMOOTH",
"644 162 OFFCURVE",
"682 246 OFFCURVE",
"682 349 CURVE SMOOTH",
"682 454 OFFCURVE",
"644 538 OFFCURVE",
"581 598 CURVE SMOOTH",
"467 707 OFFCURVE",
"305 700 OFFCURVE",
"298 700 CURVE SMOOTH",
"265 700 LINE SMOOTH",
"160 700 OFFCURVE",
"88 638 OFFCURVE",
"88 554 CURVE SMOOTH",
"88 374 LINE",
"1 374 LINE"
);
},
{
closed = 1;
nodes = (
"628 260 OFFCURVE",
"595 190 OFFCURVE",
"544 139 CURVE SMOOTH",
"447 47 OFFCURVE",
"301 52 OFFCURVE",
"298 52 CURVE SMOOTH",
"265 52 LINE SMOOTH",
"219 52 OFFCURVE",
"141 72 OFFCURVE",
"141 144 CURVE SMOOTH",
"141 326 LINE",
"332 326 LINE",
"332 374 LINE",
"141 374 LINE",
"141 557 LINE SMOOTH",
"142 613 OFFCURVE",
"193 649 OFFCURVE",
"265 649 CURVE SMOOTH",
"298 649 LINE SMOOTH",
"301 649 OFFCURVE",
"447 653 OFFCURVE",
"544 559 CURVE SMOOTH",
"595 509 OFFCURVE",
"628 439 OFFCURVE",
"628 349 CURVE SMOOTH"
);
}
);
width = 751;
}
);
note = Eth;
unicode = 00D0;
},
{
glyphname = Dcroat;
lastChange = "2017-12-19 04:34:59 +0000";
layers = (
{
layerId = "0B1DFD06-3317-40CA-B510-4969A0718C16";
paths = (
{
closed = 1;
nodes = (
"1 326 LINE",
"88 326 LINE",
"88 145 LINE SMOOTH",
"88 39 OFFCURVE",
"194 0 OFFCURVE",
"265 0 CURVE SMOOTH",
"298 0 LINE SMOOTH",
"305 0 OFFCURVE",
"467 -7 OFFCURVE",
"581 101 CURVE SMOOTH",
"644 162 OFFCURVE",
"682 246 OFFCURVE",
"682 349 CURVE SMOOTH",
"682 454 OFFCURVE",
"644 538 OFFCURVE",
"581 598 CURVE SMOOTH",
"467 707 OFFCURVE",
"305 700 OFFCURVE",
"298 700 CURVE SMOOTH",
"265 700 LINE SMOOTH",
"160 700 OFFCURVE",
"88 638 OFFCURVE",
"88 554 CURVE SMOOTH",
"88 374 LINE",
"1 374 LINE"
);
},
{
closed = 1;
nodes = (
"628 260 OFFCURVE",
"595 190 OFFCURVE",
"544 139 CURVE SMOOTH",
"447 47 OFFCURVE",
"301 52 OFFCURVE",
"298 52 CURVE SMOOTH",
"265 52 LINE SMOOTH",
"219 52 OFFCURVE",
"141 72 OFFCURVE",
"141 144 CURVE SMOOTH",
"141 326 LINE",
"332 326 LINE",
"332 374 LINE",
"141 374 LINE",
"141 557 LINE SMOOTH",
"142 613 OFFCURVE",
"193 649 OFFCURVE",
"265 649 CURVE SMOOTH",
"298 649 LINE SMOOTH",
"301 649 OFFCURVE",
"447 653 OFFCURVE",
"544 559 CURVE SMOOTH",
"595 509 OFFCURVE",
"628 439 OFFCURVE",
"628 349 CURVE SMOOTH"
);
}
);
width = 731;
}
);
note = Dcroat;
unicode = 0110;
},
{
glyphname = Eacute;
lastChange = "2017-12-18 07:59:54 +0000";
layers = (
{
background = {
paths = (
{
closed = 1;
nodes = (
"554 0 LINE",
"571 179 LINE",
"544 179 LINE",
"538 124 OFFCURVE",
"520 40 OFFCURVE",
"456 40 CURVE SMOOTH",
"201 40 LINE",
"201 659 LINE",
"441 659 LINE SMOOTH",
"516 659 OFFCURVE",
"525 567 OFFCURVE",
"528 527 CURVE",
"555 527 LINE",
"555 700 LINE",
"16 700 LINE",
"16 673 LINE",
"44 673 LINE SMOOTH",
"83 673 OFFCURVE",
"103 662 OFFCURVE",
"103 637 CURVE SMOOTH",
"103 62 LINE SMOOTH",
"103 37 OFFCURVE",
"83 26 OFFCURVE",
"44 26 CURVE SMOOTH",
"16 26 LINE",
"16 0 LINE"
);
},
{
closed = 1;
nodes = (
"455 251 LINE",
"455 485 LINE",
"431 485 LINE",
"427 436 OFFCURVE",
"424 388 OFFCURVE",
"379 388 CURVE SMOOTH",
"162 388 LINE",
"162 348 LINE",
"379 348 LINE SMOOTH",
"424 348 OFFCURVE",
"427 300 OFFCURVE",
"431 251 CURVE"
);
},
{
closed = 1;
nodes = (
"398 865 LINE SMOOTH",
"420 877 OFFCURVE",
"432 890 OFFCURVE",
"432 907 CURVE SMOOTH",
"432 922 OFFCURVE",
"420 937 OFFCURVE",
"398 937 CURVE SMOOTH",
"377 937 OFFCURVE",
"362 921 OFFCURVE",
"354 914 CURVE SMOOTH",
"239 807 LINE",
"256 782 LINE"
);
}
);
};
components = (
{
name = E;
},
{
name = acute;
transform = "{1, 0, 0, 1, 56, 230}";
}
);
layerId = "0B1DFD06-3317-40CA-B510-4969A0718C16";
width = 607;
}
);
note = Eacute;
unicode = 00C9;
},
{
glyphname = Ebreve;
lastChange = "2017-12-18 08:08:53 +0000";
layers = (
{
background = {
paths = (
{
closed = 1;
nodes = (
"554 0 LINE",
"571 179 LINE",
"544 179 LINE",
"538 124 OFFCURVE",
"520 40 OFFCURVE",
"456 40 CURVE SMOOTH",
"201 40 LINE",
"201 659 LINE",
"441 659 LINE SMOOTH",
"516 659 OFFCURVE",
"525 567 OFFCURVE",
"528 527 CURVE",
"555 527 LINE",
"555 700 LINE",
"16 700 LINE",
"16 673 LINE",
"44 673 LINE SMOOTH",
"83 673 OFFCURVE",
"103 662 OFFCURVE",
"103 637 CURVE SMOOTH",
"103 62 LINE SMOOTH",
"103 37 OFFCURVE",
"83 26 OFFCURVE",
"44 26 CURVE SMOOTH",
"16 26 LINE",
"16 0 LINE"
);
},
{
closed = 1;
nodes = (
"455 251 LINE",
"455 485 LINE",
"431 485 LINE",
"427 436 OFFCURVE",
"424 388 OFFCURVE",
"379 388 CURVE SMOOTH",
"162 388 LINE",
"162 348 LINE",
"379 348 LINE SMOOTH",
"424 348 OFFCURVE",
"427 300 OFFCURVE",
"431 251 CURVE"
);
},
{
closed = 1;
nodes = (
"432 776 OFFCURVE",
"474 832 OFFCURVE",
"478 907 CURVE",
"445 907 LINE",
"439 848 OFFCURVE",
"397 822 OFFCURVE",
"333 822 CURVE SMOOTH",
"269 822 OFFCURVE",
"226 848 OFFCURVE",
"219 907 CURVE",
"186 907 LINE",
"190 829 OFFCURVE",
"232 776 OFFCURVE",
"333 776 CURVE SMOOTH"
);
}
);
};
components = (
{
name = E;
},
{
name = breve;
transform = "{1, 0, 0, 1, 68, 230}";
}
);
layerId = "0B1DFD06-3317-40CA-B510-4969A0718C16";
width = 607;
}
);
note = Ebreve;
unicode = 0114;
},
{
glyphname = Ecaron;
lastChange = "2017-12-18 07:59:54 +0000";
layers = (
{
background = {
paths = (
{
closed = 1;
nodes = (
"554 0 LINE",
"571 179 LINE",
"544 179 LINE",
"538 124 OFFCURVE",
"520 40 OFFCURVE",
"456 40 CURVE SMOOTH",
"201 40 LINE",
"201 659 LINE",
"441 659 LINE SMOOTH",
"516 659 OFFCURVE",
"525 567 OFFCURVE",
"528 527 CURVE",
"555 527 LINE",
"555 700 LINE",
"16 700 LINE",
"16 673 LINE",
"44 673 LINE SMOOTH",
"83 673 OFFCURVE",
"103 662 OFFCURVE",
"103 637 CURVE SMOOTH",
"103 62 LINE SMOOTH",
"103 37 OFFCURVE",
"83 26 OFFCURVE",
"44 26 CURVE SMOOTH",
"16 26 LINE",
"16 0 LINE"
);
},
{
closed = 1;
nodes = (
"455 251 LINE",
"455 485 LINE",
"431 485 LINE",
"427 436 OFFCURVE",
"424 388 OFFCURVE",
"379 388 CURVE SMOOTH",
"162 388 LINE",
"162 348 LINE",
"379 348 LINE SMOOTH",
"424 348 OFFCURVE",
"427 300 OFFCURVE",
"431 251 CURVE"
);
},
{
closed = 1;
nodes = (
"357 782 LINE",
"481 911 LINE",
"462 932 LINE",
"354 847 LINE",
"346 840 OFFCURVE",
"337 836 OFFCURVE",
"331 836 CURVE SMOOTH",
"325 836 OFFCURVE",
"317 840 OFFCURVE",
"307 847 CURVE",
"199 932 LINE",
"180 911 LINE",
"304 782 LINE"
);
}
);
};
components = (
{
name = E;
},
{
name = caron;
transform = "{1, 0, 0, 1, 68, 230}";
}
);
layerId = "0B1DFD06-3317-40CA-B510-4969A0718C16";
width = 607;
}
);
note = Ecaron;
unicode = 011A;
},
{
glyphname = Ecircumflex;
lastChange = "2017-12-18 07:59:54 +0000";
layers = (
{
background = {
paths = (
{
closed = 1;
nodes = (
"554 0 LINE",
"571 179 LINE",
"544 179 LINE",
"538 124 OFFCURVE",
"520 40 OFFCURVE",
"456 40 CURVE SMOOTH",
"201 40 LINE",
"201 659 LINE",
"441 659 LINE SMOOTH",
"516 659 OFFCURVE",
"525 567 OFFCURVE",
"528 527 CURVE",
"555 527 LINE",
"555 700 LINE",
"16 700 LINE",
"16 673 LINE",
"44 673 LINE SMOOTH",
"83 673 OFFCURVE",
"103 662 OFFCURVE",
"103 637 CURVE SMOOTH",
"103 62 LINE SMOOTH",
"103 37 OFFCURVE",
"83 26 OFFCURVE",
"44 26 CURVE SMOOTH",
"16 26 LINE",
"16 0 LINE"
);
},
{
closed = 1;
nodes = (
"455 251 LINE",
"455 485 LINE",
"431 485 LINE",
"427 436 OFFCURVE",
"424 388 OFFCURVE",
"379 388 CURVE SMOOTH",
"162 388 LINE",
"162 348 LINE",
"379 348 LINE SMOOTH",
"424 348 OFFCURVE",
"427 300 OFFCURVE",
"431 251 CURVE"
);
},
{
closed = 1;
nodes = (
"304 868 LINE SMOOTH",
"312 874 OFFCURVE",
"322 879 OFFCURVE",
"328 879 CURVE SMOOTH",
"334 879 OFFCURVE",
"342 874 OFFCURVE",
"351 868 CURVE",
"459 782 LINE",
"478 803 LINE",
"354 932 LINE",
"301 932 LINE",
"177 803 LINE",
"196 782 LINE"
);
}
);
};
components = (
{
name = E;
},
{
name = circumflex;
transform = "{1, 0, 0, 1, 68, 230}";
}
);
layerId = "0B1DFD06-3317-40CA-B510-4969A0718C16";
width = 607;
}
);
note = Ecircumflex;
unicode = 00CA;
},
{
glyphname = Ecircumflexacute;
lastChange = "2017-12-18 08:14:04 +0000";
layers = (
{
background = {
paths = (
{
closed = 1;
nodes = (
"554 0 LINE",
"571 179 LINE",
"544 179 LINE",
"538 124 OFFCURVE",
"520 40 OFFCURVE",
"456 40 CURVE SMOOTH",
"201 40 LINE",
"201 659 LINE",
"441 659 LINE SMOOTH",
"516 659 OFFCURVE",
"525 567 OFFCURVE",
"528 527 CURVE",
"555 527 LINE",
"555 700 LINE",
"16 700 LINE",
"16 673 LINE",
"44 673 LINE SMOOTH",
"83 673 OFFCURVE",
"103 662 OFFCURVE",
"103 637 CURVE SMOOTH",
"103 62 LINE SMOOTH",
"103 37 OFFCURVE",
"83 26 OFFCURVE",
"44 26 CURVE SMOOTH",
"16 26 LINE",
"16 0 LINE"
);
},
{
closed = 1;
nodes = (
"455 251 LINE",
"455 485 LINE",
"431 485 LINE",
"427 436 OFFCURVE",
"424 388 OFFCURVE",
"379 388 CURVE SMOOTH",
"162 388 LINE",
"162 348 LINE",
"379 348 LINE SMOOTH",
"424 348 OFFCURVE",
"427 300 OFFCURVE",
"431 251 CURVE"
);
},
{
closed = 1;
nodes = (
"290 862 LINE SMOOTH",
"300 870 OFFCURVE",
"310 878 OFFCURVE",
"318 878 CURVE SMOOTH",
"324 878 OFFCURVE",
"332 873 OFFCURVE",
"341 867 CURVE",
"447 781 LINE",
"466 803 LINE",
"344 932 LINE",
"293 932 LINE",
"171 803 LINE",
"189 781 LINE"
);
},
{
closed = 1;
nodes = (
"555 960 LINE SMOOTH",
"578 972 OFFCURVE",
"591 988 OFFCURVE",
"591 1003 CURVE SMOOTH",
"591 1017 OFFCURVE",
"580 1034 OFFCURVE",
"557 1034 CURVE SMOOTH",
"538 1034 OFFCURVE",
"521 1018 OFFCURVE",
"511 1008 CURVE SMOOTH",
"415 915 LINE",
"433 893 LINE"
);
}
);
};
components = (
{
name = E;
},
{
name = circumflexacute;
transform = "{1, 0, 0, 1, 564, 230}";
}
);
layerId = "0B1DFD06-3317-40CA-B510-4969A0718C16";
width = 607;
}
);
note = Ecircumflexacute;
unicode = 1EBE;
},
{
glyphname = Ecircumflexdotbelow;
lastChange = "2017-12-18 08:06:02 +0000";
layers = (
{
background = {
paths = (
{
closed = 1;
nodes = (
"554 0 LINE",
"571 179 LINE",
"544 179 LINE",
"538 124 OFFCURVE",
"520 40 OFFCURVE",
"456 40 CURVE SMOOTH",
"201 40 LINE",
"201 659 LINE",
"441 659 LINE SMOOTH",
"516 659 OFFCURVE",
"525 567 OFFCURVE",
"528 527 CURVE",
"555 527 LINE",
"555 700 LINE",
"16 700 LINE",
"16 673 LINE",
"44 673 LINE SMOOTH",
"83 673 OFFCURVE",
"103 662 OFFCURVE",
"103 637 CURVE SMOOTH",
"103 62 LINE SMOOTH",
"103 37 OFFCURVE",
"83 26 OFFCURVE",
"44 26 CURVE SMOOTH",
"16 26 LINE",
"16 0 LINE"
);
},
{
closed = 1;
nodes = (
"350 -159 OFFCURVE",
"368 -140 OFFCURVE",
"368 -112 CURVE SMOOTH",
"368 -84 OFFCURVE",
"350 -64 OFFCURVE",
"322 -64 CURVE SMOOTH",
"294 -64 OFFCURVE",
"275 -84 OFFCURVE",
"275 -112 CURVE SMOOTH",
"275 -140 OFFCURVE",
"294 -159 OFFCURVE",
"322 -159 CURVE SMOOTH"
);
},
{
closed = 1;
nodes = (
"455 251 LINE",
"455 485 LINE",
"431 485 LINE",
"427 436 OFFCURVE",
"424 388 OFFCURVE",
"379 388 CURVE SMOOTH",
"162 388 LINE",
"162 348 LINE",
"379 348 LINE SMOOTH",
"424 348 OFFCURVE",
"427 300 OFFCURVE",
"431 251 CURVE"
);
},
{
closed = 1;
nodes = (
"294 868 LINE SMOOTH",
"302 874 OFFCURVE",
"312 879 OFFCURVE",
"318 879 CURVE SMOOTH",
"324 879 OFFCURVE",
"332 874 OFFCURVE",
"341 868 CURVE",
"449 782 LINE",
"468 803 LINE",
"344 932 LINE",
"291 932 LINE",
"167 803 LINE",
"186 782 LINE"
);
}
);
};
components = (
{
name = E;
},
{
name = dotbelowcomb;
transform = "{1, 0, 0, 1, 565, 0}";
},
{
name = circumflex;
transform = "{1, 0, 0, 1, 68, 230}";
}
);
layerId = "0B1DFD06-3317-40CA-B510-4969A0718C16";
width = 607;
}
);
note = Ecircumflexdotbelow;
unicode = 1EC6;
},
{
glyphname = Ecircumflexgrave;
lastChange = "2017-12-18 08:19:22 +0000";
layers = (
{
background = {
paths = (
{
closed = 1;
nodes = (
"554 0 LINE",
"571 179 LINE",
"544 179 LINE",
"538 124 OFFCURVE",
"520 40 OFFCURVE",
"456 40 CURVE SMOOTH",
"201 40 LINE",
"201 659 LINE",
"441 659 LINE SMOOTH",
"516 659 OFFCURVE",
"525 567 OFFCURVE",
"528 527 CURVE",
"555 527 LINE",
"555 700 LINE",
"16 700 LINE",
"16 673 LINE",
"44 673 LINE SMOOTH",
"83 673 OFFCURVE",
"103 662 OFFCURVE",
"103 637 CURVE SMOOTH",
"103 62 LINE SMOOTH",
"103 37 OFFCURVE",
"83 26 OFFCURVE",
"44 26 CURVE SMOOTH",
"16 26 LINE",
"16 0 LINE"
);
},
{
closed = 1;
nodes = (
"455 251 LINE",
"455 485 LINE",
"431 485 LINE",
"427 436 OFFCURVE",
"424 388 OFFCURVE",
"379 388 CURVE SMOOTH",
"162 388 LINE",
"162 348 LINE",
"379 348 LINE SMOOTH",
"424 348 OFFCURVE",
"427 300 OFFCURVE",
"431 251 CURVE"
);
},
{
closed = 1;
nodes = (
"227 915 LINE",
"132 1008 LINE SMOOTH",
"122 1018 OFFCURVE",
"105 1034 OFFCURVE",
"85 1034 CURVE SMOOTH",
"63 1034 OFFCURVE",
"52 1017 OFFCURVE",
"52 1003 CURVE SMOOTH",
"52 988 OFFCURVE",
"65 972 OFFCURVE",
"88 960 CURVE SMOOTH",
"210 893 LINE"
);
},
{
closed = 1;
nodes = (
"290 862 LINE SMOOTH",
"300 870 OFFCURVE",
"310 878 OFFCURVE",
"318 878 CURVE SMOOTH",
"324 878 OFFCURVE",
"332 873 OFFCURVE",
"341 867 CURVE",
"447 781 LINE",
"466 803 LINE",
"344 932 LINE",
"293 932 LINE",
"171 803 LINE",
"189 781 LINE"
);
}
);
};
components = (
{
name = E;
},
{
name = circumflexgrave;
transform = "{1, 0, 0, 1, 564, 230}";
}
);
layerId = "0B1DFD06-3317-40CA-B510-4969A0718C16";
width = 607;
}
);
note = Ecircumflexgrave;
unicode = 1EC0;
},
{
glyphname = Ecircumflexhookabove;
lastChange = "2017-12-18 08:19:34 +0000";
layers = (
{
background = {
paths = (
{
closed = 1;
nodes = (
"554 0 LINE",
"571 179 LINE",
"544 179 LINE",
"538 124 OFFCURVE",
"520 40 OFFCURVE",
"456 40 CURVE SMOOTH",
"201 40 LINE",
"201 659 LINE",
"441 659 LINE SMOOTH",
"516 659 OFFCURVE",
"525 567 OFFCURVE",
"528 527 CURVE",
"555 527 LINE",
"555 700 LINE",
"16 700 LINE",
"16 673 LINE",
"44 673 LINE SMOOTH",
"83 673 OFFCURVE",
"103 662 OFFCURVE",
"103 637 CURVE SMOOTH",
"103 62 LINE SMOOTH",
"103 37 OFFCURVE",
"83 26 OFFCURVE",
"44 26 CURVE SMOOTH",
"16 26 LINE",
"16 0 LINE"
);
},
{
closed = 1;
nodes = (
"455 251 LINE",
"455 485 LINE",
"431 485 LINE",
"427 436 OFFCURVE",
"424 388 OFFCURVE",
"379 388 CURVE SMOOTH",
"162 388 LINE",
"162 348 LINE",
"379 348 LINE SMOOTH",
"424 348 OFFCURVE",
"427 300 OFFCURVE",
"431 251 CURVE"
);
},
{
closed = 1;
nodes = (
"286 858 LINE",
"297 868 OFFCURVE",
"309 878 OFFCURVE",
"318 878 CURVE SMOOTH",
"324 878 OFFCURVE",
"332 873 OFFCURVE",
"341 867 CURVE",
"447 781 LINE",
"466 803 LINE",
"344 932 LINE",
"293 932 LINE",
"171 803 LINE",
"189 781 LINE"
);
},
{
closed = 1;
nodes = (
"493 898 LINE",
"474 905 OFFCURVE",
"464 912 OFFCURVE",
"464 926 CURVE SMOOTH",
"464 954 OFFCURVE",
"544 965 OFFCURVE",
"544 1010 CURVE SMOOTH",
"544 1047 OFFCURVE",
"502 1063 OFFCURVE",
"460 1063 CURVE SMOOTH",
"429 1063 OFFCURVE",
"384 1053 OFFCURVE",
"384 1022 CURVE SMOOTH",
"384 1010 OFFCURVE",
"395 1001 OFFCURVE",
"405 1001 CURVE SMOOTH",
"434 1001 OFFCURVE",
"421 1040 OFFCURVE",
"464 1040 CURVE SMOOTH",
"483 1040 OFFCURVE",
"494 1028 OFFCURVE",
"494 1013 CURVE SMOOTH",
"494 973 OFFCURVE",
"421 965 OFFCURVE",
"421 925 CURVE SMOOTH",
"421 901 OFFCURVE",
"437 880 OFFCURVE",
"484 880 CURVE"
);
}
);
};
components = (
{
name = E;
},
{
name = circumflexhookabove;
transform = "{1, 0, 0, 1, 564, 230}";
}
);
layerId = "0B1DFD06-3317-40CA-B510-4969A0718C16";
width = 607;
}
);
note = Ecircumflexhookabove;
unicode = 1EC2;
},
{
glyphname = Ecircumflextilde;
lastChange = "2017-12-18 08:19:45 +0000";
layers = (
{
background = {
paths = (
{
closed = 1;
nodes = (
"554 0 LINE",
"571 179 LINE",
"544 179 LINE",
"538 124 OFFCURVE",
"520 40 OFFCURVE",
"456 40 CURVE SMOOTH",
"201 40 LINE",
"201 659 LINE",
"441 659 LINE SMOOTH",
"516 659 OFFCURVE",
"525 567 OFFCURVE",
"528 527 CURVE",
"555 527 LINE",
"555 700 LINE",
"16 700 LINE",
"16 673 LINE",
"44 673 LINE SMOOTH",
"83 673 OFFCURVE",
"103 662 OFFCURVE",
"103 637 CURVE SMOOTH",
"103 62 LINE SMOOTH",
"103 37 OFFCURVE",
"83 26 OFFCURVE",
"44 26 CURVE SMOOTH",
"16 26 LINE",
"16 0 LINE"
);
},
{
closed = 1;
nodes = (
"455 251 LINE",
"455 485 LINE",
"431 485 LINE",
"427 436 OFFCURVE",
"424 388 OFFCURVE",
"379 388 CURVE SMOOTH",
"162 388 LINE",
"162 348 LINE",
"379 348 LINE SMOOTH",
"424 348 OFFCURVE",
"427 300 OFFCURVE",
"431 251 CURVE"
);
},
{
closed = 1;
nodes = (
"290 862 LINE SMOOTH",
"300 870 OFFCURVE",
"310 878 OFFCURVE",
"318 878 CURVE SMOOTH",
"324 878 OFFCURVE",
"332 873 OFFCURVE",
"341 867 CURVE",
"447 781 LINE",
"466 803 LINE",
"344 932 LINE",
"293 932 LINE",
"171 803 LINE",
"189 781 LINE"
);
},
{
closed = 1;
nodes = (
"193 997 OFFCURVE",
"211 1018 OFFCURVE",
"242 1018 CURVE SMOOTH",
"291 1018 OFFCURVE",
"338 964 OFFCURVE",
"387 964 CURVE SMOOTH",
"440 964 OFFCURVE",
"469 1012 OFFCURVE",
"481 1063 CURVE",
"460 1075 LINE",
"447 1035 OFFCURVE",
"431 1012 OFFCURVE",
"398 1012 CURVE SMOOTH",
"351 1012 OFFCURVE",
"302 1065 OFFCURVE",
"253 1065 CURVE SMOOTH",
"202 1065 OFFCURVE",
"170 1021 OFFCURVE",
"160 970 CURVE",
"180 958 LINE"
);
}
);
};
components = (
{
name = E;
},
{
name = circumflextilde;
transform = "{1, 0, 0, 1, 564, 230}";
}
);
layerId = "0B1DFD06-3317-40CA-B510-4969A0718C16";
width = 607;
}
);
note = Ecircumflextilde;
unicode = 1EC4;
},
{
glyphname = Edieresis;
lastChange = "2017-12-18 07:59:54 +0000";
layers = (
{
background = {
paths = (
{
closed = 1;
nodes = (
"554 0 LINE",
"571 179 LINE",
"544 179 LINE",
"538 124 OFFCURVE",
"520 40 OFFCURVE",
"456 40 CURVE SMOOTH",
"201 40 LINE",
"201 659 LINE",
"441 659 LINE SMOOTH",
"516 659 OFFCURVE",
"525 567 OFFCURVE",
"528 527 CURVE",
"555 527 LINE",
"555 700 LINE",
"16 700 LINE",
"16 673 LINE",
"44 673 LINE SMOOTH",
"83 673 OFFCURVE",
"103 662 OFFCURVE",
"103 637 CURVE SMOOTH",
"103 62 LINE SMOOTH",
"103 37 OFFCURVE",
"83 26 OFFCURVE",
"44 26 CURVE SMOOTH",
"16 26 LINE",
"16 0 LINE"
);
},
{
closed = 1;
nodes = (
"455 251 LINE",
"455 485 LINE",
"431 485 LINE",
"427 436 OFFCURVE",
"424 388 OFFCURVE",
"379 388 CURVE SMOOTH",
"162 388 LINE",
"162 348 LINE",
"379 348 LINE SMOOTH",
"424 348 OFFCURVE",
"427 300 OFFCURVE",
"431 251 CURVE"
);
},
{
closed = 1;
nodes = (
"254 781 OFFCURVE",
"272 800 OFFCURVE",
"272 827 CURVE SMOOTH",
"272 855 OFFCURVE",
"254 875 OFFCURVE",
"225 875 CURVE SMOOTH",
"197 875 OFFCURVE",
"179 855 OFFCURVE",
"179 827 CURVE SMOOTH",
"179 800 OFFCURVE",
"197 781 OFFCURVE",
"225 781 CURVE SMOOTH"
);
},
{
closed = 1;
nodes = (
"470 781 OFFCURVE",
"488 800 OFFCURVE",
"488 827 CURVE SMOOTH",
"488 855 OFFCURVE",
"470 875 OFFCURVE",
"441 875 CURVE SMOOTH",
"412 875 OFFCURVE",
"394 855 OFFCURVE",
"394 827 CURVE SMOOTH",
"394 800 OFFCURVE",
"412 781 OFFCURVE",
"441 781 CURVE SMOOTH"
);
}
);
};
components = (
{
name = E;
},
{
name = dieresis;
transform = "{1, 0, 0, 1, 68, 230}";
}
);
layerId = "0B1DFD06-3317-40CA-B510-4969A0718C16";
width = 607;
}
);
note = Edieresis;
unicode = 00CB;
},
{
glyphname = Edotaccent;
lastChange = "2017-12-18 07:59:54 +0000";
layers = (
{
background = {
paths = (
{
closed = 1;
nodes = (
"554 0 LINE",
"571 179 LINE",
"544 179 LINE",
"538 124 OFFCURVE",
"520 40 OFFCURVE",
"456 40 CURVE SMOOTH",
"201 40 LINE",
"201 659 LINE",
"441 659 LINE SMOOTH",
"516 659 OFFCURVE",
"525 567 OFFCURVE",
"528 527 CURVE",
"555 527 LINE",
"555 700 LINE",
"16 700 LINE",
"16 673 LINE",
"44 673 LINE SMOOTH",
"83 673 OFFCURVE",
"103 662 OFFCURVE",
"103 637 CURVE SMOOTH",
"103 62 LINE SMOOTH",
"103 37 OFFCURVE",
"83 26 OFFCURVE",
"44 26 CURVE SMOOTH",
"16 26 LINE",
"16 0 LINE"
);
},
{
closed = 1;
nodes = (
"455 251 LINE",
"455 485 LINE",
"431 485 LINE",
"427 436 OFFCURVE",
"424 388 OFFCURVE",
"379 388 CURVE SMOOTH",
"162 388 LINE",
"162 348 LINE",
"379 348 LINE SMOOTH",
"424 348 OFFCURVE",
"427 300 OFFCURVE",
"431 251 CURVE"
);
},
{
closed = 1;
nodes = (
"362 765 OFFCURVE",
"380 784 OFFCURVE",
"380 811 CURVE SMOOTH",
"380 839 OFFCURVE",
"362 858 OFFCURVE",
"334 858 CURVE SMOOTH",
"305 858 OFFCURVE",
"287 839 OFFCURVE",
"287 811 CURVE SMOOTH",
"287 784 OFFCURVE",
"305 765 OFFCURVE",
"334 765 CURVE SMOOTH"
);
}
);
};
components = (
{
name = E;
},
{
name = dotaccent;
transform = "{1, 0, 0, 1, 68, 230}";
}
);
layerId = "0B1DFD06-3317-40CA-B510-4969A0718C16";
width = 607;
}
);
note = Edotaccent;
unicode = 0116;
},
{
glyphname = Edotbelow;
lastChange = "2017-12-18 08:06:02 +0000";
layers = (
{
background = {
paths = (
{
closed = 1;
nodes = (
"554 0 LINE",
"571 179 LINE",
"544 179 LINE",
"538 124 OFFCURVE",
"520 40 OFFCURVE",
"456 40 CURVE SMOOTH",
"201 40 LINE",
"201 659 LINE",
"441 659 LINE SMOOTH",
"516 659 OFFCURVE",
"525 567 OFFCURVE",
"528 527 CURVE",
"555 527 LINE",
"555 700 LINE",
"16 700 LINE",
"16 673 LINE",
"44 673 LINE SMOOTH",
"83 673 OFFCURVE",
"103 662 OFFCURVE",
"103 637 CURVE SMOOTH",
"103 62 LINE SMOOTH",
"103 37 OFFCURVE",
"83 26 OFFCURVE",
"44 26 CURVE SMOOTH",
"16 26 LINE",
"16 0 LINE"
);
},
{
closed = 1;
nodes = (
"343 -159 OFFCURVE",
"361 -140 OFFCURVE",
"361 -112 CURVE SMOOTH",
"361 -84 OFFCURVE",
"343 -64 OFFCURVE",
"315 -64 CURVE SMOOTH",
"287 -64 OFFCURVE",
"268 -84 OFFCURVE",
"268 -112 CURVE SMOOTH",
"268 -140 OFFCURVE",
"287 -159 OFFCURVE",
"315 -159 CURVE SMOOTH"
);
},
{
closed = 1;
nodes = (
"455 251 LINE",
"455 485 LINE",
"431 485 LINE",
"427 436 OFFCURVE",
"424 388 OFFCURVE",
"379 388 CURVE SMOOTH",
"162 388 LINE",
"162 348 LINE",
"379 348 LINE SMOOTH",
"424 348 OFFCURVE",
"427 300 OFFCURVE",
"431 251 CURVE"
);
}
);
};
components = (
{
name = E;
},
{
name = dotbelowcomb;
transform = "{1, 0, 0, 1, 565, 0}";
}
);
layerId = "0B1DFD06-3317-40CA-B510-4969A0718C16";
width = 607;
}
);
note = Edotbelow;
unicode = 1EB8;
},
{
glyphname = Egrave;
lastChange = "2017-12-18 07:59:54 +0000";
layers = (
{
background = {
paths = (
{
closed = 1;
nodes = (
"554 0 LINE",
"571 179 LINE",
"544 179 LINE",
"538 124 OFFCURVE",
"520 40 OFFCURVE",
"456 40 CURVE SMOOTH",
"201 40 LINE",
"201 659 LINE",
"441 659 LINE SMOOTH",
"516 659 OFFCURVE",
"525 567 OFFCURVE",
"528 527 CURVE",
"555 527 LINE",
"555 700 LINE",
"16 700 LINE",
"16 673 LINE",
"44 673 LINE SMOOTH",
"83 673 OFFCURVE",
"103 662 OFFCURVE",
"103 637 CURVE SMOOTH",
"103 62 LINE SMOOTH",
"103 37 OFFCURVE",
"83 26 OFFCURVE",
"44 26 CURVE SMOOTH",
"16 26 LINE",
"16 0 LINE"
);
},
{
closed = 1;
nodes = (
"455 251 LINE",
"455 485 LINE",
"431 485 LINE",
"427 436 OFFCURVE",
"424 388 OFFCURVE",
"379 388 CURVE SMOOTH",
"162 388 LINE",
"162 348 LINE",
"379 348 LINE SMOOTH",
"424 348 OFFCURVE",
"427 300 OFFCURVE",
"431 251 CURVE"
);
},
{
closed = 1;
nodes = (
"425 807 LINE",
"310 913 LINE",
"301 922 OFFCURVE",
"285 937 OFFCURVE",
"265 937 CURVE SMOOTH",
"245 937 OFFCURVE",
"233 924 OFFCURVE",
"233 908 CURVE SMOOTH",
"233 890 OFFCURVE",
"245 876 OFFCURVE",
"264 865 CURVE SMOOTH",
"407 782 LINE"
);
}
);
};
components = (
{
name = E;
},
{
name = grave;
transform = "{1, 0, 0, 1, 68, 230}";
}
);
layerId = "0B1DFD06-3317-40CA-B510-4969A0718C16";
width = 607;
}
);
note = Egrave;
unicode = 00C8;
},
{
glyphname = Ehookabove;
lastChange = "2017-12-18 07:59:54 +0000";
layers = (
{
background = {
paths = (
{
closed = 1;
nodes = (
"554 0 LINE",
"571 179 LINE",
"544 179 LINE",
"538 124 OFFCURVE",
"520 40 OFFCURVE",
"456 40 CURVE SMOOTH",
"201 40 LINE",
"201 659 LINE",
"441 659 LINE SMOOTH",
"516 659 OFFCURVE",
"525 567 OFFCURVE",
"528 527 CURVE",
"555 527 LINE",
"555 700 LINE",
"16 700 LINE",
"16 673 LINE",
"44 673 LINE SMOOTH",
"83 673 OFFCURVE",
"103 662 OFFCURVE",
"103 637 CURVE SMOOTH",
"103 62 LINE SMOOTH",
"103 37 OFFCURVE",
"83 26 OFFCURVE",
"44 26 CURVE SMOOTH",
"16 26 LINE",
"16 0 LINE"
);
},
{
closed = 1;
nodes = (
"455 251 LINE",
"455 485 LINE",
"431 485 LINE",
"427 436 OFFCURVE",
"424 388 OFFCURVE",
"379 388 CURVE SMOOTH",
"162 388 LINE",
"162 348 LINE",
"379 348 LINE SMOOTH",
"424 348 OFFCURVE",
"427 300 OFFCURVE",
"431 251 CURVE"
);
},
{
closed = 1;
nodes = (
"367 798 LINE",
"348 805 OFFCURVE",
"336 811 OFFCURVE",
"336 828 CURVE SMOOTH",
"336 861 OFFCURVE",
"425 876 OFFCURVE",
"425 927 CURVE SMOOTH",
"425 969 OFFCURVE",
"389 991 OFFCURVE",
"336 991 CURVE SMOOTH",
"289 991 OFFCURVE",
"248 974 OFFCURVE",
"248 940 CURVE SMOOTH",
"248 923 OFFCURVE",
"256 915 OFFCURVE",
"271 915 CURVE SMOOTH",
"294 915 OFFCURVE",
"296 934 OFFCURVE",
"299 942 CURVE SMOOTH",
"304 956 OFFCURVE",
"321 962 OFFCURVE",
"337 962 CURVE SMOOTH",
"358 962 OFFCURVE",
"371 947 OFFCURVE",
"371 930 CURVE SMOOTH",
"371 885 OFFCURVE",
"289 874 OFFCURVE",
"289 828 CURVE SMOOTH",
"289 801 OFFCURVE",
"307 778 OFFCURVE",
"358 778 CURVE"
);
}
);
};
components = (
{
name = E;
},
{
name = hookabovecomb;
transform = "{1, 0, 0, 1, 565, 230}";
}
);
layerId = "0B1DFD06-3317-40CA-B510-4969A0718C16";
width = 607;
}
);
note = Ehookabove;
unicode = 1EBA;
},
{
glyphname = Emacron;
lastChange = "2017-12-18 07:59:54 +0000";
layers = (
{
background = {
paths = (
{
closed = 1;
nodes = (
"554 0 LINE",
"571 179 LINE",
"544 179 LINE",
"538 124 OFFCURVE",
"520 40 OFFCURVE",
"456 40 CURVE SMOOTH",
"201 40 LINE",
"201 659 LINE",
"441 659 LINE SMOOTH",
"516 659 OFFCURVE",
"525 567 OFFCURVE",
"528 527 CURVE",
"555 527 LINE",
"555 700 LINE",
"16 700 LINE",
"16 673 LINE",
"44 673 LINE SMOOTH",
"83 673 OFFCURVE",
"103 662 OFFCURVE",
"103 637 CURVE SMOOTH",
"103 62 LINE SMOOTH",
"103 37 OFFCURVE",
"83 26 OFFCURVE",
"44 26 CURVE SMOOTH",
"16 26 LINE",
"16 0 LINE"
);
},
{
closed = 1;
nodes = (
"455 251 LINE",
"455 485 LINE",
"431 485 LINE",
"427 436 OFFCURVE",
"424 388 OFFCURVE",
"379 388 CURVE SMOOTH",
"162 388 LINE",
"162 348 LINE",
"379 348 LINE SMOOTH",
"424 348 OFFCURVE",
"427 300 OFFCURVE",
"431 251 CURVE"
);
},
{
closed = 1;
nodes = (
"495 782 LINE",
"495 824 LINE",
"162 824 LINE",
"162 782 LINE"
);
}
);
};
components = (
{
name = E;
},
{
name = macron;
transform = "{1, 0, 0, 1, 68, 230}";
}
);
layerId = "0B1DFD06-3317-40CA-B510-4969A0718C16";
width = 607;
}
);
note = Emacron;
unicode = 0112;
},
{
glyphname = Eogonek;
lastChange = "2017-12-18 07:59:54 +0000";
layers = (
{
background = {
paths = (
{
closed = 1;
nodes = (
"554 0 LINE",
"571 179 LINE",
"544 179 LINE",
"538 124 OFFCURVE",
"520 40 OFFCURVE",
"456 40 CURVE SMOOTH",
"201 40 LINE",
"201 659 LINE",
"441 659 LINE SMOOTH",
"516 659 OFFCURVE",
"525 567 OFFCURVE",
"528 527 CURVE",
"555 527 LINE",
"555 700 LINE",
"16 700 LINE",
"16 673 LINE",
"44 673 LINE SMOOTH",
"83 673 OFFCURVE",
"103 662 OFFCURVE",
"103 637 CURVE SMOOTH",
"103 62 LINE SMOOTH",
"103 37 OFFCURVE",
"83 26 OFFCURVE",
"44 26 CURVE SMOOTH",
"16 26 LINE",
"16 0 LINE"
);
},
{
closed = 1;
nodes = (
"496 -196 OFFCURVE",
"524 -189 OFFCURVE",
"549 -172 CURVE",
"543 -152 LINE",
"527 -158 OFFCURVE",
"510 -162 OFFCURVE",
"497 -162 CURVE SMOOTH",
"464 -162 OFFCURVE",
"437 -146 OFFCURVE",
"437 -106 CURVE SMOOTH",
"437 -66 OFFCURVE",
"464 -26 OFFCURVE",
"510 4 CURVE",
"469 4 LINE",
"416 -22 OFFCURVE",
"376 -64 OFFCURVE",
"376 -114 CURVE SMOOTH",
"376 -147 OFFCURVE",
"395 -196 OFFCURVE",
"470 -196 CURVE SMOOTH"
);
},
{
closed = 1;
nodes = (
"455 251 LINE",
"455 485 LINE",
"431 485 LINE",
"427 436 OFFCURVE",
"424 388 OFFCURVE",
"379 388 CURVE SMOOTH",
"162 388 LINE",
"162 348 LINE",
"379 348 LINE SMOOTH",
"424 348 OFFCURVE",
"427 300 OFFCURVE",
"431 251 CURVE"
);
}
);
};
components = (
{
name = E;
},
{
name = ogonek;
transform = "{1, 0, 0, 1, 256, 0}";
}
);
layerId = "0B1DFD06-3317-40CA-B510-4969A0718C16";
width = 607;
}
);
note = Eogonek;
unicode = 0118;
},
{
glyphname = Etilde;
lastChange = "2017-12-18 07:59:54 +0000";
layers = (
{
background = {
paths = (
{
closed = 1;
nodes = (
"554 0 LINE",
"571 179 LINE",
"544 179 LINE",
"538 124 OFFCURVE",
"520 40 OFFCURVE",
"456 40 CURVE SMOOTH",
"201 40 LINE",
"201 659 LINE",
"441 659 LINE SMOOTH",
"516 659 OFFCURVE",
"525 567 OFFCURVE",
"528 527 CURVE",
"555 527 LINE",
"555 700 LINE",
"16 700 LINE",
"16 673 LINE",
"44 673 LINE SMOOTH",
"83 673 OFFCURVE",
"103 662 OFFCURVE",
"103 637 CURVE SMOOTH",
"103 62 LINE SMOOTH",
"103 37 OFFCURVE",
"83 26 OFFCURVE",
"44 26 CURVE SMOOTH",
"16 26 LINE",
"16 0 LINE"
);
},
{
closed = 1;
nodes = (
"455 251 LINE",
"455 485 LINE",
"431 485 LINE",
"427 436 OFFCURVE",
"424 388 OFFCURVE",
"379 388 CURVE SMOOTH",
"162 388 LINE",
"162 348 LINE",
"379 348 LINE SMOOTH",
"424 348 OFFCURVE",
"427 300 OFFCURVE",
"431 251 CURVE"
);
},
{
closed = 1;
nodes = (
"190 817 OFFCURVE",
"208 838 OFFCURVE",
"241 838 CURVE SMOOTH",
"292 838 OFFCURVE",
"341 784 OFFCURVE",
"392 784 CURVE SMOOTH",
"450 784 OFFCURVE",
"480 832 OFFCURVE",
"492 884 CURVE",
"471 895 LINE",
"455 855 OFFCURVE",
"439 833 OFFCURVE",
"405 833 CURVE SMOOTH",
"356 833 OFFCURVE",
"304 886 OFFCURVE",
"253 886 CURVE SMOOTH",
"199 886 OFFCURVE",
"166 842 OFFCURVE",
"154 790 CURVE",
"176 779 LINE"
);
}
);
};
components = (
{
name = E;
},
{
name = tilde;
transform = "{1, 0, 0, 1, 68, 230}";
}
);
layerId = "0B1DFD06-3317-40CA-B510-4969A0718C16";
width = 607;
}
);
note = Etilde;
unicode = 1EBC;
},
{
glyphname = Hbar;
lastChange = "2017-12-18 08:22:19 +0000";
layers = (
{
components = (
{
name = H;
}
);
layerId = "0B1DFD06-3317-40CA-B510-4969A0718C16";
paths = (
{
closed = 1;
nodes = (
"719 504 LINE",
"719 544 LINE",
"43 544 LINE",
"43 504 LINE"
);
}
);
width = 773;
}
);
note = Hbar;
unicode = 0126;
},
{
color = 0;
glyphname = IJ;
lastChange = "2017-12-19 04:35:04 +0000";
layers = (
{
layerId = "0B1DFD06-3317-40CA-B510-4969A0718C16";
paths = (
{
closed = 1;
nodes = (
"472 -114 OFFCURVE",
"561 -45 OFFCURVE",
"561 89 CURVE SMOOTH",
"561 637 LINE SMOOTH",
"561 662 OFFCURVE",
"581 673 OFFCURVE",
"619 673 CURVE SMOOTH",
"649 673 LINE",
"649 700 LINE",
"376 700 LINE",
"376 673 LINE",
"405 673 LINE SMOOTH",
"444 673 OFFCURVE",
"463 662 OFFCURVE",
"463 637 CURVE SMOOTH",
"463 90 LINE SMOOTH",
"463 -8 OFFCURVE",
"424 -75 OFFCURVE",
"339 -93 CURVE",
"343 -114 LINE"
);
},
{
closed = 1;
nodes = (
"298 0 LINE",
"298 26 LINE",
"270 26 LINE SMOOTH",
"231 26 OFFCURVE",
"211 37 OFFCURVE",
"211 62 CURVE SMOOTH",
"211 637 LINE SMOOTH",
"211 662 OFFCURVE",
"231 673 OFFCURVE",
"270 673 CURVE SMOOTH",
"298 673 LINE",
"298 700 LINE",
"26 700 LINE",
"26 673 LINE",
"55 673 LINE SMOOTH",
"93 673 OFFCURVE",
"113 662 OFFCURVE",
"113 637 CURVE SMOOTH",
"113 62 LINE SMOOTH",
"113 37 OFFCURVE",
"93 26 OFFCURVE",
"55 26 CURVE SMOOTH",
"26 26 LINE",
"26 0 LINE"
);
}
);
width = 675;
}
);
note = IJ;
rightKerningGroup = J;
unicode = 0132;
},
{
glyphname = Lslash;
lastChange = "2017-12-19 04:35:18 +0000";
layers = (
{
layerId = "0B1DFD06-3317-40CA-B510-4969A0718C16";
paths = (
{
closed = 1;
nodes = (
"209 52 LINE SMOOTH",
"164 52 OFFCURVE",
"144 76 OFFCURVE",
"145 114 CURVE",
"145 388 LINE",
"259 459 LINE",
"259 510 LINE",
"145 436 LINE",
"145 659 LINE SMOOTH",
"145 684 OFFCURVE",
"134 696 OFFCURVE",
"116 696 CURVE SMOOTH",
"98 696 OFFCURVE",
"89 684 OFFCURVE",
"89 659 CURVE SMOOTH",
"88 407 LINE",
"14 364 LINE",
"14 316 LINE",
"88 361 LINE",
"89 115 LINE SMOOTH",
"89 43 OFFCURVE",
"139 0 OFFCURVE",
"207 0 CURVE SMOOTH",
"595 0 LINE SMOOTH",
"621 0 OFFCURVE",
"633 6 OFFCURVE",
"633 24 CURVE SMOOTH",
"633 40 OFFCURVE",
"621 52 OFFCURVE",
"595 52 CURVE SMOOTH"
);
}
);
width = 656;
}
);
note = Lslash;
unicode = 0141;
},
{
glyphname = Nacute;
lastChange = "2017-12-18 08:29:18 +0000";
layers = (
{
background = {
paths = (
{
closed = 1;
nodes = (
"247 0 LINE",
"247 26 LINE",
"217 26 LINE SMOOTH",
"179 26 OFFCURVE",
"159 37 OFFCURVE",
"159 62 CURVE SMOOTH",
"159 642 LINE",
"587 0 LINE",
"645 0 LINE",
"645 637 LINE SMOOTH",
"645 662 OFFCURVE",
"665 673 OFFCURVE",
"703 673 CURVE SMOOTH",
"733 673 LINE",
"733 700 LINE",
"508 700 LINE",
"508 673 LINE",
"537 673 LINE SMOOTH",
"576 673 OFFCURVE",
"595 662 OFFCURVE",
"595 637 CURVE SMOOTH",
"595 126 LINE",
"217 700 LINE",
"22 700 LINE",
"22 673 LINE",
"51 673 LINE SMOOTH",
"90 673 OFFCURVE",
"109 662 OFFCURVE",
"109 637 CURVE SMOOTH",
"109 62 LINE SMOOTH",
"109 37 OFFCURVE",
"90 26 OFFCURVE",
"51 26 CURVE SMOOTH",
"22 26 LINE",
"22 0 LINE"
);
},
{
closed = 1;
nodes = (
"458 865 LINE SMOOTH",
"480 877 OFFCURVE",
"492 890 OFFCURVE",
"492 907 CURVE SMOOTH",
"492 922 OFFCURVE",
"480 937 OFFCURVE",
"458 937 CURVE SMOOTH",
"437 937 OFFCURVE",
"422 921 OFFCURVE",
"414 914 CURVE SMOOTH",
"299 807 LINE",
"316 782 LINE"
);
}
);
};
components = (
{
name = N;
},
{
name = acute;
transform = "{1, 0, 0, 1, 120, 230}";
}
);
layerId = "0B1DFD06-3317-40CA-B510-4969A0718C16";
width = 755;
}
);
note = Nacute;
unicode = 0143;
},
{
glyphname = Ncaron;
lastChange = "2017-12-18 08:29:18 +0000";
layers = (
{
background = {
paths = (
{
closed = 1;
nodes = (
"247 0 LINE",
"247 26 LINE",
"217 26 LINE SMOOTH",
"179 26 OFFCURVE",
"159 37 OFFCURVE",
"159 62 CURVE SMOOTH",
"159 642 LINE",
"587 0 LINE",
"645 0 LINE",
"645 637 LINE SMOOTH",
"645 662 OFFCURVE",
"665 673 OFFCURVE",
"703 673 CURVE SMOOTH",
"733 673 LINE",
"733 700 LINE",
"508 700 LINE",
"508 673 LINE",
"537 673 LINE SMOOTH",
"576 673 OFFCURVE",
"595 662 OFFCURVE",
"595 637 CURVE SMOOTH",
"595 126 LINE",
"217 700 LINE",
"22 700 LINE",
"22 673 LINE",
"51 673 LINE SMOOTH",
"90 673 OFFCURVE",
"109 662 OFFCURVE",
"109 637 CURVE SMOOTH",
"109 62 LINE SMOOTH",
"109 37 OFFCURVE",
"90 26 OFFCURVE",
"51 26 CURVE SMOOTH",
"22 26 LINE",
"22 0 LINE"
);
},
{
closed = 1;
nodes = (
"403 782 LINE",
"527 911 LINE",
"508 932 LINE",
"400 847 LINE",
"392 840 OFFCURVE",
"383 836 OFFCURVE",
"377 836 CURVE SMOOTH",
"371 836 OFFCURVE",
"363 840 OFFCURVE",
"353 847 CURVE",
"245 932 LINE",
"226 911 LINE",
"350 782 LINE"
);
}
);
};
components = (
{
name = N;
},
{
name = caron;
transform = "{1, 0, 0, 1, 132, 230}";
}
);
layerId = "0B1DFD06-3317-40CA-B510-4969A0718C16";
width = 755;
}
);
note = Ncaron;
unicode = 0147;
},
{
glyphname = Ncommaaccent;
lastChange = "2017-12-19 04:35:54 +0000";
layers = (
{
background = {
paths = (
{
closed = 1;
nodes = (
"247 0 LINE",
"247 26 LINE",
"217 26 LINE SMOOTH",
"179 26 OFFCURVE",
"159 37 OFFCURVE",
"159 62 CURVE SMOOTH",
"159 642 LINE",
"587 0 LINE",
"645 0 LINE",
"645 637 LINE SMOOTH",
"645 662 OFFCURVE",
"665 673 OFFCURVE",
"703 673 CURVE SMOOTH",
"733 673 LINE",
"733 700 LINE",
"508 700 LINE",
"508 673 LINE",
"537 673 LINE SMOOTH",
"576 673 OFFCURVE",
"595 662 OFFCURVE",
"595 637 CURVE SMOOTH",
"595 126 LINE",
"217 700 LINE",
"22 700 LINE",
"22 673 LINE",
"51 673 LINE SMOOTH",
"90 673 OFFCURVE",
"109 662 OFFCURVE",
"109 637 CURVE SMOOTH",
"109 62 LINE SMOOTH",
"109 37 OFFCURVE",
"90 26 OFFCURVE",
"51 26 CURVE SMOOTH",
"22 26 LINE",
"22 0 LINE"
);
},
{
closed = 1;
nodes = (
"369 -258 OFFCURVE",
"413 -198 OFFCURVE",
"413 -135 CURVE SMOOTH",
"413 -87 OFFCURVE",
"389 -67 OFFCURVE",
"360 -67 CURVE SMOOTH",
"331 -67 OFFCURVE",
"314 -87 OFFCURVE",
"314 -111 CURVE SMOOTH",
"314 -145 OFFCURVE",
"349 -152 OFFCURVE",
"349 -187 CURVE SMOOTH",
"349 -223 OFFCURVE",
"323 -256 OFFCURVE",
"296 -282 CURVE",
"313 -299 LINE"
);
}
);
};
components = (
{
name = N;
},
{
name = commaaccentcomb;
}
);
layerId = "0B1DFD06-3317-40CA-B510-4969A0718C16";
width = 687;
}
);
note = Ncommaaccent;
unicode = 0145;
},
{
glyphname = Ndotaccent;
lastChange = "2017-12-18 08:29:18 +0000";
layers = (
{
background = {
paths = (
{
closed = 1;
nodes = (
"247 0 LINE",
"247 26 LINE",
"217 26 LINE SMOOTH",
"179 26 OFFCURVE",
"159 37 OFFCURVE",
"159 62 CURVE SMOOTH",
"159 642 LINE",
"587 0 LINE",
"645 0 LINE",
"645 637 LINE SMOOTH",
"645 662 OFFCURVE",
"665 673 OFFCURVE",
"703 673 CURVE SMOOTH",
"733 673 LINE",
"733 700 LINE",
"508 700 LINE",
"508 673 LINE",
"537 673 LINE SMOOTH",
"576 673 OFFCURVE",
"595 662 OFFCURVE",
"595 637 CURVE SMOOTH",
"595 126 LINE",
"217 700 LINE",
"22 700 LINE",
"22 673 LINE",
"51 673 LINE SMOOTH",
"90 673 OFFCURVE",
"109 662 OFFCURVE",
"109 637 CURVE SMOOTH",
"109 62 LINE SMOOTH",
"109 37 OFFCURVE",
"90 26 OFFCURVE",
"51 26 CURVE SMOOTH",
"22 26 LINE",
"22 0 LINE"
);
},
{
closed = 1;
nodes = (
"405 765 OFFCURVE",
"423 784 OFFCURVE",
"423 811 CURVE SMOOTH",
"423 839 OFFCURVE",
"405 858 OFFCURVE",
"377 858 CURVE SMOOTH",
"348 858 OFFCURVE",
"330 839 OFFCURVE",
"330 811 CURVE SMOOTH",
"330 784 OFFCURVE",
"348 765 OFFCURVE",
"377 765 CURVE SMOOTH"
);
}
);
};
components = (
{
name = N;
},
{
name = dotaccent;
transform = "{1, 0, 0, 1, 132, 230}";
}
);
layerId = "0B1DFD06-3317-40CA-B510-4969A0718C16";
width = 755;
}
);
note = Ndotaccent;
unicode = 1E44;
},
{
glyphname = Ndotbelow;
lastChange = "2017-12-18 08:29:18 +0000";
layers = (
{
background = {
paths = (
{
closed = 1;
nodes = (
"247 0 LINE",
"247 26 LINE",
"217 26 LINE SMOOTH",
"179 26 OFFCURVE",
"159 37 OFFCURVE",
"159 62 CURVE SMOOTH",
"159 642 LINE",
"587 0 LINE",
"645 0 LINE",
"645 637 LINE SMOOTH",
"645 662 OFFCURVE",
"665 673 OFFCURVE",
"703 673 CURVE SMOOTH",
"733 673 LINE",
"733 700 LINE",
"508 700 LINE",
"508 673 LINE",
"537 673 LINE SMOOTH",
"576 673 OFFCURVE",
"595 662 OFFCURVE",
"595 637 CURVE SMOOTH",
"595 126 LINE",
"217 700 LINE",
"22 700 LINE",
"22 673 LINE",
"51 673 LINE SMOOTH",
"90 673 OFFCURVE",
"109 662 OFFCURVE",
"109 637 CURVE SMOOTH",
"109 62 LINE SMOOTH",
"109 37 OFFCURVE",
"90 26 OFFCURVE",
"51 26 CURVE SMOOTH",
"22 26 LINE",
"22 0 LINE"
);
},
{
closed = 1;
nodes = (
"415 -159 OFFCURVE",
"433 -140 OFFCURVE",
"433 -112 CURVE SMOOTH",
"433 -84 OFFCURVE",
"415 -64 OFFCURVE",
"387 -64 CURVE SMOOTH",
"359 -64 OFFCURVE",
"340 -84 OFFCURVE",
"340 -112 CURVE SMOOTH",
"340 -140 OFFCURVE",
"359 -159 OFFCURVE",
"387 -159 CURVE SMOOTH"
);
}
);
};
components = (
{
name = N;
},
{
name = dotbelowcomb;
transform = "{1, 0, 0, 1, 629, 0}";
}
);
layerId = "0B1DFD06-3317-40CA-B510-4969A0718C16";
width = 755;
}
);
note = uni1E46;
unicode = 1E46;
},
{
color = 0;
glyphname = Eng;
lastChange = "2017-12-19 04:36:01 +0000";
layers = (
{
background = {
paths = (
{
closed = 1;
nodes = (
"592 -259 OFFCURVE",
"645 -182 OFFCURVE",
"645 -36 CURVE SMOOTH",
"645 637 LINE SMOOTH",
"645 662 OFFCURVE",
"665 673 OFFCURVE",
"703 673 CURVE SMOOTH",
"733 673 LINE",
"733 700 LINE",
"508 700 LINE",
"508 673 LINE",
"537 673 LINE SMOOTH",
"576 673 OFFCURVE",
"595 662 OFFCURVE",
"595 637 CURVE SMOOTH",
"595 125 LINE",
"219 700 LINE",
"22 700 LINE",
"22 673 LINE",
"51 673 LINE SMOOTH",
"90 673 OFFCURVE",
"109 662 OFFCURVE",
"109 637 CURVE SMOOTH",
"109 62 LINE SMOOTH",
"109 37 OFFCURVE",
"93 26 OFFCURVE",
"51 26 CURVE SMOOTH",
"22 26 LINE",
"22 0 LINE",
"247 0 LINE",
"247 26 LINE",
"217 26 LINE SMOOTH",
"179 26 OFFCURVE",
"159 37 OFFCURVE",
"159 62 CURVE SMOOTH",
"159 647 LINE",
"586 0 LINE",
"586 -76 LINE SMOOTH",
"586 -173 OFFCURVE",
"510 -238 OFFCURVE",
"423 -243 CURVE",
"427 -268 LINE"
);
}
);
};
layerId = "0B1DFD06-3317-40CA-B510-4969A0718C16";
paths = (
{
closed = 1;
nodes = (
"592 -259 OFFCURVE",
"645 -182 OFFCURVE",
"645 -36 CURVE SMOOTH",
"645 637 LINE SMOOTH",
"645 662 OFFCURVE",
"665 673 OFFCURVE",
"703 673 CURVE SMOOTH",
"733 673 LINE",
"733 700 LINE",
"508 700 LINE",
"508 673 LINE",
"537 673 LINE SMOOTH",
"576 673 OFFCURVE",
"595 662 OFFCURVE",
"595 637 CURVE SMOOTH",
"595 125 LINE",
"219 700 LINE",
"22 700 LINE",
"22 673 LINE",
"51 673 LINE SMOOTH",
"90 673 OFFCURVE",
"109 662 OFFCURVE",
"109 637 CURVE SMOOTH",
"109 62 LINE SMOOTH",
"109 37 OFFCURVE",
"93 26 OFFCURVE",
"51 26 CURVE SMOOTH",
"22 26 LINE",
"22 0 LINE",
"247 0 LINE",
"247 26 LINE",
"217 26 LINE SMOOTH",
"179 26 OFFCURVE",
"159 37 OFFCURVE",
"159 62 CURVE SMOOTH",
"159 647 LINE",
"586 0 LINE",
"586 -76 LINE SMOOTH",
"586 -173 OFFCURVE",
"510 -238 OFFCURVE",
"423 -243 CURVE",
"427 -268 LINE"
);
}
);
width = 755;
}
);
note = Eng;
unicode = 014A;
},
{
glyphname = Nlinebelow;
lastChange = "2017-12-18 08:29:18 +0000";
layers = (
{
background = {
paths = (
{
closed = 1;
nodes = (
"247 0 LINE",
"247 26 LINE",
"217 26 LINE SMOOTH",
"179 26 OFFCURVE",
"159 37 OFFCURVE",
"159 62 CURVE SMOOTH",
"159 642 LINE",
"587 0 LINE",
"645 0 LINE",
"645 637 LINE SMOOTH",
"645 662 OFFCURVE",
"665 673 OFFCURVE",
"703 673 CURVE SMOOTH",
"733 673 LINE",
"733 700 LINE",
"508 700 LINE",
"508 673 LINE",
"537 673 LINE SMOOTH",
"576 673 OFFCURVE",
"595 662 OFFCURVE",
"595 637 CURVE SMOOTH",
"595 126 LINE",
"217 700 LINE",
"22 700 LINE",
"22 673 LINE",
"51 673 LINE SMOOTH",
"90 673 OFFCURVE",
"109 662 OFFCURVE",
"109 637 CURVE SMOOTH",
"109 62 LINE SMOOTH",
"109 37 OFFCURVE",
"90 26 OFFCURVE",
"51 26 CURVE SMOOTH",
"22 26 LINE",
"22 0 LINE"
);
},
{
closed = 1;
nodes = (
"542 -110 LINE",
"542 -72 LINE",
"210 -72 LINE",
"210 -110 LINE"
);
}
);
};
components = (
{
name = N;
},
{
name = macronbelowcomb;
transform = "{1, 0, 0, 1, 378, 0}";
}
);
layerId = "0B1DFD06-3317-40CA-B510-4969A0718C16";
width = 755;
}
);
note = Nlinebelow;
unicode = 1E48;
},
{
glyphname = Ntilde;
lastChange = "2017-12-18 08:29:18 +0000";
layers = (
{
background = {
paths = (
{
closed = 1;
nodes = (
"247 0 LINE",
"247 26 LINE",
"217 26 LINE SMOOTH",
"179 26 OFFCURVE",
"159 37 OFFCURVE",
"159 62 CURVE SMOOTH",
"159 642 LINE",
"587 0 LINE",
"645 0 LINE",
"645 637 LINE SMOOTH",
"645 662 OFFCURVE",
"665 673 OFFCURVE",
"703 673 CURVE SMOOTH",
"733 673 LINE",
"733 700 LINE",
"508 700 LINE",
"508 673 LINE",
"537 673 LINE SMOOTH",
"576 673 OFFCURVE",
"595 662 OFFCURVE",
"595 637 CURVE SMOOTH",
"595 126 LINE",
"217 700 LINE",
"22 700 LINE",
"22 673 LINE",
"51 673 LINE SMOOTH",
"90 673 OFFCURVE",
"109 662 OFFCURVE",
"109 637 CURVE SMOOTH",
"109 62 LINE SMOOTH",
"109 37 OFFCURVE",
"90 26 OFFCURVE",
"51 26 CURVE SMOOTH",
"22 26 LINE",
"22 0 LINE"
);
},
{
closed = 1;
nodes = (
"254 818 OFFCURVE",
"272 839 OFFCURVE",
"305 839 CURVE SMOOTH",
"356 839 OFFCURVE",
"405 785 OFFCURVE",
"456 785 CURVE SMOOTH",
"514 785 OFFCURVE",
"544 833 OFFCURVE",
"556 885 CURVE",
"535 896 LINE",
"519 856 OFFCURVE",
"503 834 OFFCURVE",
"469 834 CURVE SMOOTH",
"420 834 OFFCURVE",
"368 887 OFFCURVE",
"317 887 CURVE SMOOTH",
"263 887 OFFCURVE",
"230 843 OFFCURVE",
"218 791 CURVE",
"240 780 LINE"
);
}
);
};
components = (
{
name = N;
},
{
name = tilde;
transform = "{1, 0, 0, 1, 132, 230}";
}
);
layerId = "0B1DFD06-3317-40CA-B510-4969A0718C16";
width = 755;
}
);
note = Ntilde;
unicode = 00D1;
},
{
glyphname = Oacute;
lastChange = "2017-12-18 08:30:49 +0000";
layers = (
{
background = {
paths = (
{
closed = 1;
nodes = (
"601 -10 OFFCURVE",
"719 124 OFFCURVE",
"719 350 CURVE SMOOTH",
"719 574 OFFCURVE",
"601 710 OFFCURVE",
"378 710 CURVE SMOOTH",
"154 710 OFFCURVE",
"36 574 OFFCURVE",
"36 350 CURVE SMOOTH",
"36 124 OFFCURVE",
"154 -10 OFFCURVE",
"378 -10 CURVE SMOOTH"
);
},
{
closed = 1;
nodes = (
"215 32 OFFCURVE",
"135 158 OFFCURVE",
"135 350 CURVE SMOOTH",
"135 541 OFFCURVE",
"215 668 OFFCURVE",
"377 668 CURVE SMOOTH",
"541 668 OFFCURVE",
"620 541 OFFCURVE",
"620 350 CURVE SMOOTH",
"620 158 OFFCURVE",
"541 32 OFFCURVE",
"377 32 CURVE SMOOTH"
);
},
{
closed = 1;
nodes = (
"440 865 LINE SMOOTH",
"462 877 OFFCURVE",
"474 890 OFFCURVE",
"474 907 CURVE SMOOTH",
"474 922 OFFCURVE",
"462 937 OFFCURVE",
"440 937 CURVE SMOOTH",
"419 937 OFFCURVE",
"404 921 OFFCURVE",
"396 914 CURVE SMOOTH",
"281 807 LINE",
"298 782 LINE"
);
}
);
};
components = (
{
name = O;
},
{
name = acute;
transform = "{1, 0, 0, 1, 120, 230}";
}
);
layerId = "0B1DFD06-3317-40CA-B510-4969A0718C16";
width = 755;
}
);
leftKerningGroup = O;
note = Oacute;
rightKerningGroup = O;
unicode = 00D3;
},
{
glyphname = Obreve;
lastChange = "2017-12-18 08:30:49 +0000";
layers = (
{
background = {
paths = (
{
closed = 1;
nodes = (
"601 -10 OFFCURVE",
"719 124 OFFCURVE",
"719 350 CURVE SMOOTH",
"719 574 OFFCURVE",
"601 710 OFFCURVE",
"378 710 CURVE SMOOTH",
"154 710 OFFCURVE",
"36 574 OFFCURVE",
"36 350 CURVE SMOOTH",
"36 124 OFFCURVE",
"154 -10 OFFCURVE",
"378 -10 CURVE SMOOTH"
);
},
{
closed = 1;
nodes = (
"215 32 OFFCURVE",
"135 158 OFFCURVE",
"135 350 CURVE SMOOTH",
"135 541 OFFCURVE",
"215 668 OFFCURVE",
"377 668 CURVE SMOOTH",
"541 668 OFFCURVE",
"620 541 OFFCURVE",
"620 350 CURVE SMOOTH",
"620 158 OFFCURVE",
"541 32 OFFCURVE",
"377 32 CURVE SMOOTH"
);
},
{
closed = 1;
nodes = (
"477 774 OFFCURVE",
"519 830 OFFCURVE",
"523 905 CURVE",
"490 905 LINE",
"484 846 OFFCURVE",
"442 820 OFFCURVE",
"378 820 CURVE SMOOTH",
"314 820 OFFCURVE",
"271 846 OFFCURVE",
"264 905 CURVE",
"231 905 LINE",
"235 827 OFFCURVE",
"277 774 OFFCURVE",
"378 774 CURVE SMOOTH"
);
}
);
};
components = (
{
name = O;
},
{
name = breve;
transform = "{1, 0, 0, 1, 132, 230}";
}
);
layerId = "0B1DFD06-3317-40CA-B510-4969A0718C16";
width = 755;
}
);
leftKerningGroup = O;
note = Obreve;
rightKerningGroup = O;
unicode = 014E;
},
{
glyphname = Ocaron;
lastChange = "2017-12-18 08:30:49 +0000";
layers = (
{
background = {
paths = (
{
closed = 1;
nodes = (
"601 -10 OFFCURVE",
"719 124 OFFCURVE",
"719 350 CURVE SMOOTH",
"719 574 OFFCURVE",
"601 710 OFFCURVE",
"378 710 CURVE SMOOTH",
"154 710 OFFCURVE",
"36 574 OFFCURVE",
"36 350 CURVE SMOOTH",
"36 124 OFFCURVE",
"154 -10 OFFCURVE",
"378 -10 CURVE SMOOTH"
);
},
{
closed = 1;
nodes = (
"215 32 OFFCURVE",
"135 158 OFFCURVE",
"135 350 CURVE SMOOTH",
"135 541 OFFCURVE",
"215 668 OFFCURVE",
"377 668 CURVE SMOOTH",
"541 668 OFFCURVE",
"620 541 OFFCURVE",
"620 350 CURVE SMOOTH",
"620 158 OFFCURVE",
"541 32 OFFCURVE",
"377 32 CURVE SMOOTH"
);
},
{
closed = 1;
nodes = (
"404 782 LINE",
"528 911 LINE",
"509 932 LINE",
"401 847 LINE",
"393 840 OFFCURVE",
"384 836 OFFCURVE",
"378 836 CURVE SMOOTH",
"372 836 OFFCURVE",
"364 840 OFFCURVE",
"354 847 CURVE",
"246 932 LINE",
"227 911 LINE",
"351 782 LINE"
);
}
);
};
components = (
{
name = O;
},
{
name = caron;
transform = "{1, 0, 0, 1, 132, 230}";
}
);
layerId = "0B1DFD06-3317-40CA-B510-4969A0718C16";
width = 755;
}
);
leftKerningGroup = O;
note = Ocaron;
rightKerningGroup = O;
unicode = 01D1;
},
{
glyphname = Ocircumflex;
lastChange = "2017-12-18 08:30:49 +0000";
layers = (
{
background = {
paths = (
{
closed = 1;
nodes = (
"601 -10 OFFCURVE",
"719 124 OFFCURVE",
"719 350 CURVE SMOOTH",
"719 574 OFFCURVE",
"601 710 OFFCURVE",
"378 710 CURVE SMOOTH",
"154 710 OFFCURVE",
"36 574 OFFCURVE",
"36 350 CURVE SMOOTH",
"36 124 OFFCURVE",
"154 -10 OFFCURVE",
"378 -10 CURVE SMOOTH"
);
},
{
closed = 1;
nodes = (
"215 32 OFFCURVE",
"135 158 OFFCURVE",
"135 350 CURVE SMOOTH",
"135 541 OFFCURVE",
"215 668 OFFCURVE",
"377 668 CURVE SMOOTH",
"541 668 OFFCURVE",
"620 541 OFFCURVE",
"620 350 CURVE SMOOTH",
"620 158 OFFCURVE",
"541 32 OFFCURVE",
"377 32 CURVE SMOOTH"
);
},
{
closed = 1;
nodes = (
"354 868 LINE SMOOTH",
"362 874 OFFCURVE",
"372 879 OFFCURVE",
"378 879 CURVE SMOOTH",
"384 879 OFFCURVE",
"392 874 OFFCURVE",
"401 868 CURVE",
"509 782 LINE",
"528 803 LINE",
"404 932 LINE",
"351 932 LINE",
"227 803 LINE",
"246 782 LINE"
);
}
);
};
components = (
{
name = O;
},
{
name = circumflex;
transform = "{1, 0, 0, 1, 132, 230}";
}
);
layerId = "0B1DFD06-3317-40CA-B510-4969A0718C16";
width = 755;
}
);
leftKerningGroup = O;
note = Ocircumflex;
rightKerningGroup = O;
unicode = 00D4;
},
{
glyphname = Ocircumflexacute;
lastChange = "2017-12-18 08:31:35 +0000";
layers = (
{
background = {
paths = (
{
closed = 1;
nodes = (
"601 -10 OFFCURVE",
"719 124 OFFCURVE",
"719 350 CURVE SMOOTH",
"719 574 OFFCURVE",
"601 710 OFFCURVE",
"378 710 CURVE SMOOTH",
"154 710 OFFCURVE",
"36 574 OFFCURVE",
"36 350 CURVE SMOOTH",
"36 124 OFFCURVE",
"154 -10 OFFCURVE",
"378 -10 CURVE SMOOTH"
);
},
{
closed = 1;
nodes = (
"215 32 OFFCURVE",
"135 158 OFFCURVE",
"135 350 CURVE SMOOTH",
"135 541 OFFCURVE",
"215 668 OFFCURVE",
"377 668 CURVE SMOOTH",
"541 668 OFFCURVE",
"620 541 OFFCURVE",
"620 350 CURVE SMOOTH",
"620 158 OFFCURVE",
"541 32 OFFCURVE",
"377 32 CURVE SMOOTH"
);
},
{
closed = 1;
nodes = (
"348 861 LINE SMOOTH",
"358 869 OFFCURVE",
"368 877 OFFCURVE",
"376 877 CURVE SMOOTH",
"382 877 OFFCURVE",
"390 872 OFFCURVE",
"399 866 CURVE",
"505 780 LINE",
"524 802 LINE",
"402 931 LINE",
"351 931 LINE",
"229 802 LINE",
"247 780 LINE"
);
},
{
closed = 1;
nodes = (
"613 959 LINE SMOOTH",
"636 971 OFFCURVE",
"649 987 OFFCURVE",
"649 1002 CURVE SMOOTH",
"649 1016 OFFCURVE",
"638 1033 OFFCURVE",
"615 1033 CURVE SMOOTH",
"596 1033 OFFCURVE",
"579 1017 OFFCURVE",
"569 1007 CURVE SMOOTH",
"473 914 LINE",
"491 892 LINE"
);
}
);
};
components = (
{
name = O;
},
{
name = circumflexacute;
transform = "{1, 0, 0, 1, 628, 230}";
}
);
layerId = "0B1DFD06-3317-40CA-B510-4969A0718C16";
width = 755;
}
);
leftKerningGroup = O;
note = Ocircumflexacute;
rightKerningGroup = O;
unicode = 1ED0;
},
{
glyphname = Ocircumflexdotbelow;
lastChange = "2017-12-18 08:30:49 +0000";
layers = (
{
background = {
paths = (
{
closed = 1;
nodes = (
"36 124 OFFCURVE",
"154 -10 OFFCURVE",
"378 -10 CURVE SMOOTH",
"601 -10 OFFCURVE",
"719 124 OFFCURVE",
"719 350 CURVE SMOOTH",
"719 574 OFFCURVE",
"601 710 OFFCURVE",
"378 710 CURVE SMOOTH",
"154 710 OFFCURVE",
"36 574 OFFCURVE",
"36 350 CURVE SMOOTH"
);
},
{
closed = 1;
nodes = (
"135 541 OFFCURVE",
"215 668 OFFCURVE",
"377 668 CURVE SMOOTH",
"541 668 OFFCURVE",
"620 541 OFFCURVE",
"620 350 CURVE SMOOTH",
"620 158 OFFCURVE",
"541 32 OFFCURVE",
"377 32 CURVE SMOOTH",
"215 32 OFFCURVE",
"135 158 OFFCURVE",
"135 350 CURVE SMOOTH"
);
},
{
closed = 1;
nodes = (
"245 782 LINE",
"353 868 LINE SMOOTH",
"361 874 OFFCURVE",
"371 879 OFFCURVE",
"377 879 CURVE SMOOTH",
"383 879 OFFCURVE",
"391 874 OFFCURVE",
"400 868 CURVE",
"508 782 LINE",
"527 803 LINE",
"403 932 LINE",
"350 932 LINE",
"226 803 LINE"
);
},
{
closed = 1;
nodes = (
"330 -140 OFFCURVE",
"349 -159 OFFCURVE",
"377 -159 CURVE SMOOTH",
"405 -159 OFFCURVE",
"423 -140 OFFCURVE",
"423 -112 CURVE SMOOTH",
"423 -84 OFFCURVE",
"405 -64 OFFCURVE",
"377 -64 CURVE SMOOTH",
"349 -64 OFFCURVE",
"330 -84 OFFCURVE",
"330 -112 CURVE SMOOTH"
);
}
);
};
components = (
{
name = O;
},
{
name = dotbelowcomb;
transform = "{1, 0, 0, 1, 629, 0}";
},
{
name = circumflex;
transform = "{1, 0, 0, 1, 132, 230}";
}
);
layerId = "0B1DFD06-3317-40CA-B510-4969A0718C16";
width = 755;
}
);
leftKerningGroup = O;
note = Ocircumflexdotbelow;
rightKerningGroup = O;
unicode = 1ED8;
},
{
glyphname = Ocircumflexgrave;
lastChange = "2017-12-18 08:32:22 +0000";
layers = (
{
background = {
paths = (
{
closed = 1;
nodes = (
"601 -10 OFFCURVE",
"719 124 OFFCURVE",
"719 350 CURVE SMOOTH",
"719 574 OFFCURVE",
"601 710 OFFCURVE",
"378 710 CURVE SMOOTH",
"154 710 OFFCURVE",
"36 574 OFFCURVE",
"36 350 CURVE SMOOTH",
"36 124 OFFCURVE",
"154 -10 OFFCURVE",
"378 -10 CURVE SMOOTH"
);
},
{
closed = 1;
nodes = (
"215 32 OFFCURVE",
"135 158 OFFCURVE",
"135 350 CURVE SMOOTH",
"135 541 OFFCURVE",
"215 668 OFFCURVE",
"377 668 CURVE SMOOTH",
"541 668 OFFCURVE",
"620 541 OFFCURVE",
"620 350 CURVE SMOOTH",
"620 158 OFFCURVE",
"541 32 OFFCURVE",
"377 32 CURVE SMOOTH"
);
},
{
closed = 1;
nodes = (
"285 914 LINE",
"190 1007 LINE SMOOTH",
"180 1017 OFFCURVE",
"163 1033 OFFCURVE",
"143 1033 CURVE SMOOTH",
"121 1033 OFFCURVE",
"110 1016 OFFCURVE",
"110 1002 CURVE SMOOTH",
"110 987 OFFCURVE",
"123 971 OFFCURVE",
"146 959 CURVE SMOOTH",
"268 892 LINE"
);
},
{
closed = 1;
nodes = (
"348 861 LINE SMOOTH",
"358 869 OFFCURVE",
"368 877 OFFCURVE",
"376 877 CURVE SMOOTH",
"382 877 OFFCURVE",
"390 872 OFFCURVE",
"399 866 CURVE",
"505 780 LINE",
"524 802 LINE",
"402 931 LINE",
"351 931 LINE",
"229 802 LINE",
"247 780 LINE"
);
}
);
};
components = (
{
name = O;
},
{
name = circumflexgrave;
transform = "{1, 0, 0, 1, 628, 230}";
}
);
layerId = "0B1DFD06-3317-40CA-B510-4969A0718C16";
width = 755;
}
);
leftKerningGroup = O;
note = Ocircumflexgrave;
rightKerningGroup = O;
unicode = 1ED2;
},
{
glyphname = Ocircumflexhookabove;
lastChange = "2017-12-18 09:45:48 +0000";
layers = (
{
background = {
paths = (
{
closed = 1;
nodes = (
"601 -10 OFFCURVE",
"719 124 OFFCURVE",
"719 350 CURVE SMOOTH",
"719 574 OFFCURVE",
"601 710 OFFCURVE",
"378 710 CURVE SMOOTH",
"154 710 OFFCURVE",
"36 574 OFFCURVE",
"36 350 CURVE SMOOTH",
"36 124 OFFCURVE",
"154 -10 OFFCURVE",
"378 -10 CURVE SMOOTH"
);
},
{
closed = 1;
nodes = (
"215 32 OFFCURVE",
"135 158 OFFCURVE",
"135 350 CURVE SMOOTH",
"135 541 OFFCURVE",
"215 668 OFFCURVE",
"377 668 CURVE SMOOTH",
"541 668 OFFCURVE",
"620 541 OFFCURVE",
"620 350 CURVE SMOOTH",
"620 158 OFFCURVE",
"541 32 OFFCURVE",
"377 32 CURVE SMOOTH"
);
},
{
closed = 1;
nodes = (
"344 858 LINE",
"355 868 OFFCURVE",
"367 878 OFFCURVE",
"376 878 CURVE SMOOTH",
"382 878 OFFCURVE",
"390 873 OFFCURVE",
"399 867 CURVE",
"505 781 LINE",
"524 803 LINE",
"402 932 LINE",
"351 932 LINE",
"229 803 LINE",
"247 781 LINE"
);
},
{
closed = 1;
nodes = (
"551 898 LINE",
"532 905 OFFCURVE",
"522 912 OFFCURVE",
"522 926 CURVE SMOOTH",
"522 954 OFFCURVE",
"602 965 OFFCURVE",
"602 1010 CURVE SMOOTH",
"602 1047 OFFCURVE",
"560 1063 OFFCURVE",
"518 1063 CURVE SMOOTH",
"487 1063 OFFCURVE",
"442 1053 OFFCURVE",
"442 1022 CURVE SMOOTH",
"442 1010 OFFCURVE",
"453 1001 OFFCURVE",
"463 1001 CURVE SMOOTH",
"492 1001 OFFCURVE",
"479 1040 OFFCURVE",
"522 1040 CURVE SMOOTH",
"541 1040 OFFCURVE",
"552 1028 OFFCURVE",
"552 1013 CURVE SMOOTH",
"552 973 OFFCURVE",
"479 965 OFFCURVE",
"479 925 CURVE SMOOTH",
"479 901 OFFCURVE",
"495 880 OFFCURVE",
"542 880 CURVE"
);
}
);
};
components = (
{
name = O;
},
{
name = circumflexhookabove;
transform = "{1, 0, 0, 1, 628, 230}";
}
);
layerId = "0B1DFD06-3317-40CA-B510-4969A0718C16";
width = 755;
}
);
leftKerningGroup = O;
note = Ocircumflexhookabove;
rightKerningGroup = O;
unicode = 1ED4;
},
{
glyphname = Ocircumflextilde;
lastChange = "2017-12-18 08:33:54 +0000";
layers = (
{
background = {
paths = (
{
closed = 1;
nodes = (
"601 -10 OFFCURVE",
"719 124 OFFCURVE",
"719 350 CURVE SMOOTH",
"719 574 OFFCURVE",
"601 710 OFFCURVE",
"378 710 CURVE SMOOTH",
"154 710 OFFCURVE",
"36 574 OFFCURVE",
"36 350 CURVE SMOOTH",
"36 124 OFFCURVE",
"154 -10 OFFCURVE",
"378 -10 CURVE SMOOTH"
);
},
{
closed = 1;
nodes = (
"215 32 OFFCURVE",
"135 158 OFFCURVE",
"135 350 CURVE SMOOTH",
"135 541 OFFCURVE",
"215 668 OFFCURVE",
"377 668 CURVE SMOOTH",
"541 668 OFFCURVE",
"620 541 OFFCURVE",
"620 350 CURVE SMOOTH",
"620 158 OFFCURVE",
"541 32 OFFCURVE",
"377 32 CURVE SMOOTH"
);
},
{
closed = 1;
nodes = (
"348 862 LINE SMOOTH",
"358 870 OFFCURVE",
"368 878 OFFCURVE",
"376 878 CURVE SMOOTH",
"382 878 OFFCURVE",
"390 873 OFFCURVE",
"399 867 CURVE",
"505 781 LINE",
"524 803 LINE",
"402 932 LINE",
"351 932 LINE",
"229 803 LINE",
"247 781 LINE"
);
},
{
closed = 1;
nodes = (
"251 997 OFFCURVE",
"269 1018 OFFCURVE",
"300 1018 CURVE SMOOTH",
"349 1018 OFFCURVE",
"396 964 OFFCURVE",
"445 964 CURVE SMOOTH",
"498 964 OFFCURVE",
"527 1012 OFFCURVE",
"539 1063 CURVE",
"518 1075 LINE",
"505 1035 OFFCURVE",
"489 1012 OFFCURVE",
"456 1012 CURVE SMOOTH",
"409 1012 OFFCURVE",
"360 1065 OFFCURVE",
"311 1065 CURVE SMOOTH",
"260 1065 OFFCURVE",
"228 1021 OFFCURVE",
"218 970 CURVE",
"238 958 LINE"
);
}
);
};
components = (
{
name = O;
},
{
name = circumflextilde;
transform = "{1, 0, 0, 1, 628, 230}";
}
);
layerId = "0B1DFD06-3317-40CA-B510-4969A0718C16";
width = 755;
}
);
leftKerningGroup = O;
note = Ocircumflextilde;
rightKerningGroup = O;
unicode = 1ED6;
},
{
glyphname = Odieresis;
lastChange = "2017-12-18 08:30:49 +0000";
layers = (
{
background = {
paths = (
{
closed = 1;
nodes = (
"601 -10 OFFCURVE",
"719 124 OFFCURVE",
"719 350 CURVE SMOOTH",
"719 574 OFFCURVE",
"601 710 OFFCURVE",
"378 710 CURVE SMOOTH",
"154 710 OFFCURVE",
"36 574 OFFCURVE",
"36 350 CURVE SMOOTH",
"36 124 OFFCURVE",
"154 -10 OFFCURVE",
"378 -10 CURVE SMOOTH"
);
},
{
closed = 1;
nodes = (
"215 32 OFFCURVE",
"135 158 OFFCURVE",
"135 350 CURVE SMOOTH",
"135 541 OFFCURVE",
"215 668 OFFCURVE",
"377 668 CURVE SMOOTH",
"541 668 OFFCURVE",
"620 541 OFFCURVE",
"620 350 CURVE SMOOTH",
"620 158 OFFCURVE",
"541 32 OFFCURVE",
"377 32 CURVE SMOOTH"
);
},
{
closed = 1;
nodes = (
"298 781 OFFCURVE",
"316 800 OFFCURVE",
"316 827 CURVE SMOOTH",
"316 855 OFFCURVE",
"298 875 OFFCURVE",
"269 875 CURVE SMOOTH",
"241 875 OFFCURVE",
"223 855 OFFCURVE",
"223 827 CURVE SMOOTH",
"223 800 OFFCURVE",
"241 781 OFFCURVE",
"269 781 CURVE SMOOTH"
);
},
{
closed = 1;
nodes = (
"514 781 OFFCURVE",
"532 800 OFFCURVE",
"532 827 CURVE SMOOTH",
"532 855 OFFCURVE",
"514 875 OFFCURVE",
"485 875 CURVE SMOOTH",
"456 875 OFFCURVE",
"438 855 OFFCURVE",
"438 827 CURVE SMOOTH",
"438 800 OFFCURVE",
"456 781 OFFCURVE",
"485 781 CURVE SMOOTH"
);
}
);
};
components = (
{
name = O;
},
{
name = dieresis;
transform = "{1, 0, 0, 1, 132, 230}";
}
);
layerId = "0B1DFD06-3317-40CA-B510-4969A0718C16";
width = 755;
}
);
leftKerningGroup = O;
note = Odieresis;
rightKerningGroup = O;
unicode = 00D6;
},
{
glyphname = Odotbelow;
lastChange = "2017-12-18 08:30:49 +0000";
layers = (
{
background = {
paths = (
{
closed = 1;
nodes = (
"36 124 OFFCURVE",
"154 -10 OFFCURVE",
"378 -10 CURVE SMOOTH",
"601 -10 OFFCURVE",
"719 124 OFFCURVE",
"719 350 CURVE SMOOTH",
"719 574 OFFCURVE",
"601 710 OFFCURVE",
"378 710 CURVE SMOOTH",
"154 710 OFFCURVE",
"36 574 OFFCURVE",
"36 350 CURVE SMOOTH"
);
},
{
closed = 1;
nodes = (
"135 541 OFFCURVE",
"215 668 OFFCURVE",
"377 668 CURVE SMOOTH",
"541 668 OFFCURVE",
"620 541 OFFCURVE",
"620 350 CURVE SMOOTH",
"620 158 OFFCURVE",
"541 32 OFFCURVE",
"377 32 CURVE SMOOTH",
"215 32 OFFCURVE",
"135 158 OFFCURVE",
"135 350 CURVE SMOOTH"
);
},
{
closed = 1;
nodes = (
"330 -140 OFFCURVE",
"349 -159 OFFCURVE",
"377 -159 CURVE SMOOTH",
"405 -159 OFFCURVE",
"423 -140 OFFCURVE",
"423 -112 CURVE SMOOTH",
"423 -84 OFFCURVE",
"405 -64 OFFCURVE",
"377 -64 CURVE SMOOTH",
"349 -64 OFFCURVE",
"330 -84 OFFCURVE",
"330 -112 CURVE SMOOTH"
);
}
);
};
components = (
{
name = O;
},
{
name = dotbelowcomb;
transform = "{1, 0, 0, 1, 629, 0}";
}
);
layerId = "0B1DFD06-3317-40CA-B510-4969A0718C16";
width = 755;
}
);
leftKerningGroup = O;
note = Odotbelow;
rightKerningGroup = O;
unicode = 1ECC;
},
{
glyphname = Ograve;
lastChange = "2017-12-18 08:30:49 +0000";
layers = (
{
background = {
paths = (
{
closed = 1;
nodes = (
"601 -10 OFFCURVE",
"719 124 OFFCURVE",
"719 350 CURVE SMOOTH",
"719 574 OFFCURVE",
"601 710 OFFCURVE",
"378 710 CURVE SMOOTH",
"154 710 OFFCURVE",
"36 574 OFFCURVE",
"36 350 CURVE SMOOTH",
"36 124 OFFCURVE",
"154 -10 OFFCURVE",
"378 -10 CURVE SMOOTH"
);
},
{
closed = 1;
nodes = (
"215 32 OFFCURVE",
"135 158 OFFCURVE",
"135 350 CURVE SMOOTH",
"135 541 OFFCURVE",
"215 668 OFFCURVE",
"377 668 CURVE SMOOTH",
"541 668 OFFCURVE",
"620 541 OFFCURVE",
"620 350 CURVE SMOOTH",
"620 158 OFFCURVE",
"541 32 OFFCURVE",
"377 32 CURVE SMOOTH"
);
},
{
closed = 1;
nodes = (
"459 807 LINE",
"344 913 LINE",
"335 922 OFFCURVE",
"319 937 OFFCURVE",
"299 937 CURVE SMOOTH",
"279 937 OFFCURVE",
"267 924 OFFCURVE",
"267 908 CURVE SMOOTH",
"267 890 OFFCURVE",
"279 876 OFFCURVE",
"298 865 CURVE SMOOTH",
"441 782 LINE"
);
}
);
};
components = (
{
name = O;
},
{
name = grave;
transform = "{1, 0, 0, 1, 132, 230}";
}
);
layerId = "0B1DFD06-3317-40CA-B510-4969A0718C16";
width = 755;
}
);
leftKerningGroup = O;
note = Ograve;
rightKerningGroup = O;
unicode = 00D2;
},
{
glyphname = Ohookabove;
lastChange = "2017-12-18 08:30:49 +0000";
layers = (
{
background = {
paths = (
{
closed = 1;
nodes = (
"601 -10 OFFCURVE",
"719 124 OFFCURVE",
"719 350 CURVE SMOOTH",
"719 574 OFFCURVE",
"601 710 OFFCURVE",
"378 710 CURVE SMOOTH",
"154 710 OFFCURVE",
"36 574 OFFCURVE",
"36 350 CURVE SMOOTH",
"36 124 OFFCURVE",
"154 -10 OFFCURVE",
"378 -10 CURVE SMOOTH"
);
},
{
closed = 1;
nodes = (
"215 32 OFFCURVE",
"135 158 OFFCURVE",
"135 350 CURVE SMOOTH",
"135 541 OFFCURVE",
"215 668 OFFCURVE",
"377 668 CURVE SMOOTH",
"541 668 OFFCURVE",
"620 541 OFFCURVE",
"620 350 CURVE SMOOTH",
"620 158 OFFCURVE",
"541 32 OFFCURVE",
"377 32 CURVE SMOOTH"
);
},
{
closed = 1;
nodes = (
"407 798 LINE",
"388 805 OFFCURVE",
"376 811 OFFCURVE",
"376 828 CURVE SMOOTH",
"376 861 OFFCURVE",
"465 876 OFFCURVE",
"465 927 CURVE SMOOTH",
"465 969 OFFCURVE",
"429 991 OFFCURVE",
"376 991 CURVE SMOOTH",
"329 991 OFFCURVE",
"288 974 OFFCURVE",
"288 940 CURVE SMOOTH",
"288 923 OFFCURVE",
"296 915 OFFCURVE",
"311 915 CURVE SMOOTH",
"334 915 OFFCURVE",
"336 934 OFFCURVE",
"339 942 CURVE SMOOTH",
"344 956 OFFCURVE",
"361 962 OFFCURVE",
"377 962 CURVE SMOOTH",
"398 962 OFFCURVE",
"411 947 OFFCURVE",
"411 930 CURVE SMOOTH",
"411 885 OFFCURVE",
"329 874 OFFCURVE",
"329 828 CURVE SMOOTH",
"329 801 OFFCURVE",
"347 778 OFFCURVE",
"398 778 CURVE"
);
}
);
};
components = (
{
name = O;
},
{
name = hookabovecomb;
transform = "{1, 0, 0, 1, 629, 230}";
}
);
layerId = "0B1DFD06-3317-40CA-B510-4969A0718C16";
width = 755;
}
);
leftKerningGroup = O;
note = Ohookabove;
rightKerningGroup = O;
unicode = 1ECE;
},
{
glyphname = Ohorn;
lastChange = "2017-12-19 04:36:47 +0000";
layers = (
{
layerId = "0B1DFD06-3317-40CA-B510-4969A0718C16";
paths = (
{
closed = 1;
nodes = (
"557 663 OFFCURVE",
"463 705 OFFCURVE",
"368 705 CURVE SMOOTH",
"180 705 OFFCURVE",
"40 561 OFFCURVE",
"40 348 CURVE SMOOTH",
"40 137 OFFCURVE",
"183 -7 OFFCURVE",
"368 -7 CURVE SMOOTH",
"562 -7 OFFCURVE",
"697 138 OFFCURVE",
"697 348 CURVE SMOOTH",
"697 431 OFFCURVE",
"680 505 OFFCURVE",
"640 562 CURVE",
"709 617 OFFCURVE",
"719 679 OFFCURVE",
"719 719 CURVE",
"672 719 LINE",
"672 651 OFFCURVE",
"627 608 OFFCURVE",
"613 598 CURVE"
);
},
{
closed = 1;
nodes = (
"644 173 OFFCURVE",
"533 49 OFFCURVE",
"368 49 CURVE SMOOTH",
"217 49 OFFCURVE",
"93 160 OFFCURVE",
"93 348 CURVE SMOOTH",
"93 521 OFFCURVE",
"200 649 OFFCURVE",
"368 649 CURVE SMOOTH",
"542 649 OFFCURVE",
"644 515 OFFCURVE",
"644 348 CURVE SMOOTH"
);
}
);
width = 736;
}
);
note = Ohorn;
unicode = 01A0;
},
{
glyphname = Ohornacute;
lastChange = "2017-12-19 04:37:00 +0000";
layers = (
{
background = {
paths = (
{
closed = 1;
nodes = (
"602 -10 OFFCURVE",
"720 124 OFFCURVE",
"720 350 CURVE SMOOTH",
"720 574 OFFCURVE",
"602 710 OFFCURVE",
"379 710 CURVE SMOOTH",
"155 710 OFFCURVE",
"37 574 OFFCURVE",
"37 350 CURVE SMOOTH",
"37 124 OFFCURVE",
"155 -10 OFFCURVE",
"379 -10 CURVE SMOOTH"
);
},
{
closed = 1;
nodes = (
"216 32 OFFCURVE",
"136 158 OFFCURVE",
"136 350 CURVE SMOOTH",
"136 541 OFFCURVE",
"216 668 OFFCURVE",
"378 668 CURVE SMOOTH",
"542 668 OFFCURVE",
"621 541 OFFCURVE",
"621 350 CURVE SMOOTH",
"621 158 OFFCURVE",
"542 32 OFFCURVE",
"378 32 CURVE SMOOTH"
);
},
{
closed = 1;
nodes = (
"424 864 LINE SMOOTH",
"446 876 OFFCURVE",
"458 889 OFFCURVE",
"458 906 CURVE SMOOTH",
"458 921 OFFCURVE",
"446 936 OFFCURVE",
"424 936 CURVE SMOOTH",
"403 936 OFFCURVE",
"388 920 OFFCURVE",
"380 913 CURVE SMOOTH",
"265 806 LINE",
"282 781 LINE"
);
},
{
closed = 1;
nodes = (
"691 567 OFFCURVE",
"756 632 OFFCURVE",
"756 705 CURVE SMOOTH",
"756 752 OFFCURVE",
"729 772 OFFCURVE",
"701 772 CURVE SMOOTH",
"672 772 OFFCURVE",
"656 752 OFFCURVE",
"656 729 CURVE SMOOTH",
"656 695 OFFCURVE",
"689 688 OFFCURVE",
"689 653 CURVE SMOOTH",
"689 617 OFFCURVE",
"658 588 OFFCURVE",
"623 568 CURVE",
"623 543 LINE"
);
}
);
};
components = (
{
name = acute;
transform = "{1, 0, 0, 1, 120, 230}";
},
{
name = Ohorn;
}
);
layerId = "0B1DFD06-3317-40CA-B510-4969A0718C16";
width = 755;
}
);
leftKerningGroup = O;
note = Ohornacute;
rightKerningGroup = O;
unicode = 1EDA;
},
{
glyphname = Ohorndotbelow;
lastChange = "2017-12-19 04:37:05 +0000";
layers = (
{
background = {
paths = (
{
closed = 1;
nodes = (
"602 -10 OFFCURVE",
"720 124 OFFCURVE",
"720 350 CURVE SMOOTH",
"720 574 OFFCURVE",
"602 710 OFFCURVE",
"379 710 CURVE SMOOTH",
"155 710 OFFCURVE",
"37 574 OFFCURVE",
"37 350 CURVE SMOOTH",
"37 124 OFFCURVE",
"155 -10 OFFCURVE",
"379 -10 CURVE SMOOTH"
);
},
{
closed = 1;
nodes = (
"216 32 OFFCURVE",
"136 158 OFFCURVE",
"136 350 CURVE SMOOTH",
"136 541 OFFCURVE",
"216 668 OFFCURVE",
"378 668 CURVE SMOOTH",
"542 668 OFFCURVE",
"621 541 OFFCURVE",
"621 350 CURVE SMOOTH",
"621 158 OFFCURVE",
"542 32 OFFCURVE",
"378 32 CURVE SMOOTH"
);
},
{
closed = 1;
nodes = (
"691 567 OFFCURVE",
"756 632 OFFCURVE",
"756 705 CURVE SMOOTH",
"756 752 OFFCURVE",
"729 772 OFFCURVE",
"701 772 CURVE SMOOTH",
"672 772 OFFCURVE",
"656 752 OFFCURVE",
"656 729 CURVE SMOOTH",
"656 695 OFFCURVE",
"689 688 OFFCURVE",
"689 653 CURVE SMOOTH",
"689 617 OFFCURVE",
"658 588 OFFCURVE",
"623 568 CURVE",
"623 543 LINE"
);
},
{
closed = 1;
nodes = (
"395 -159 OFFCURVE",
"413 -140 OFFCURVE",
"413 -112 CURVE SMOOTH",
"413 -84 OFFCURVE",
"395 -64 OFFCURVE",
"367 -64 CURVE SMOOTH",
"339 -64 OFFCURVE",
"320 -84 OFFCURVE",
"320 -112 CURVE SMOOTH",
"320 -140 OFFCURVE",
"339 -159 OFFCURVE",
"367 -159 CURVE SMOOTH"
);
}
);
};
components = (
{
name = dotbelowcomb;
transform = "{1, 0, 0, 1, 629, 0}";
},
{
name = Ohorn;
}
);
layerId = "0B1DFD06-3317-40CA-B510-4969A0718C16";
width = 755;
}
);
leftKerningGroup = O;
note = Ohorndotbelow;
rightKerningGroup = O;
unicode = 1EE2;
},
{
glyphname = Ohorngrave;
lastChange = "2017-12-19 04:37:08 +0000";
layers = (
{
background = {
paths = (
{
closed = 1;
nodes = (
"602 -10 OFFCURVE",
"720 124 OFFCURVE",
"720 350 CURVE SMOOTH",
"720 574 OFFCURVE",
"602 710 OFFCURVE",
"379 710 CURVE SMOOTH",
"155 710 OFFCURVE",
"37 574 OFFCURVE",
"37 350 CURVE SMOOTH",
"37 124 OFFCURVE",
"155 -10 OFFCURVE",
"379 -10 CURVE SMOOTH"
);
},
{
closed = 1;
nodes = (
"216 32 OFFCURVE",
"136 158 OFFCURVE",
"136 350 CURVE SMOOTH",
"136 541 OFFCURVE",
"216 668 OFFCURVE",
"378 668 CURVE SMOOTH",
"542 668 OFFCURVE",
"621 541 OFFCURVE",
"621 350 CURVE SMOOTH",
"621 158 OFFCURVE",
"542 32 OFFCURVE",
"378 32 CURVE SMOOTH"
);
},
{
closed = 1;
nodes = (
"464 816 LINE",
"349 922 LINE",
"340 931 OFFCURVE",
"324 946 OFFCURVE",
"304 946 CURVE SMOOTH",
"284 946 OFFCURVE",
"272 933 OFFCURVE",
"272 917 CURVE SMOOTH",
"272 899 OFFCURVE",
"284 885 OFFCURVE",
"303 874 CURVE SMOOTH",
"446 791 LINE"
);
},
{
closed = 1;
nodes = (
"691 567 OFFCURVE",
"756 632 OFFCURVE",
"756 705 CURVE SMOOTH",
"756 752 OFFCURVE",
"729 772 OFFCURVE",
"701 772 CURVE SMOOTH",
"672 772 OFFCURVE",
"656 752 OFFCURVE",
"656 729 CURVE SMOOTH",
"656 695 OFFCURVE",
"689 688 OFFCURVE",
"689 653 CURVE SMOOTH",
"689 617 OFFCURVE",
"658 588 OFFCURVE",
"623 568 CURVE",
"623 543 LINE"
);
}
);
};
components = (
{
name = grave;
transform = "{1, 0, 0, 1, 132, 230}";
},
{
name = Ohorn;
}
);
layerId = "0B1DFD06-3317-40CA-B510-4969A0718C16";
width = 755;
}
);
leftKerningGroup = O;
note = Ohorngrave;
rightKerningGroup = O;
unicode = 1EDC;
},
{
glyphname = Ohornhookabove;
lastChange = "2017-12-19 04:37:18 +0000";
layers = (
{
background = {
paths = (
{
closed = 1;
nodes = (
"602 -10 OFFCURVE",
"720 124 OFFCURVE",
"720 350 CURVE SMOOTH",
"720 574 OFFCURVE",
"602 710 OFFCURVE",
"379 710 CURVE SMOOTH",
"155 710 OFFCURVE",
"37 574 OFFCURVE",
"37 350 CURVE SMOOTH",
"37 124 OFFCURVE",
"155 -10 OFFCURVE",
"379 -10 CURVE SMOOTH"
);
},
{
closed = 1;
nodes = (
"216 32 OFFCURVE",
"136 158 OFFCURVE",
"136 350 CURVE SMOOTH",
"136 541 OFFCURVE",
"216 668 OFFCURVE",
"378 668 CURVE SMOOTH",
"542 668 OFFCURVE",
"621 541 OFFCURVE",
"621 350 CURVE SMOOTH",
"621 158 OFFCURVE",
"542 32 OFFCURVE",
"378 32 CURVE SMOOTH"
);
},
{
closed = 1;
nodes = (
"412 809 LINE",
"393 816 OFFCURVE",
"381 822 OFFCURVE",
"381 839 CURVE SMOOTH",
"381 872 OFFCURVE",
"470 887 OFFCURVE",
"470 938 CURVE SMOOTH",
"470 980 OFFCURVE",
"434 1002 OFFCURVE",
"381 1002 CURVE SMOOTH",
"334 1002 OFFCURVE",
"293 985 OFFCURVE",
"293 951 CURVE SMOOTH",
"293 934 OFFCURVE",
"301 926 OFFCURVE",
"316 926 CURVE SMOOTH",
"339 926 OFFCURVE",
"341 945 OFFCURVE",
"344 953 CURVE SMOOTH",
"349 967 OFFCURVE",
"366 973 OFFCURVE",
"382 973 CURVE SMOOTH",
"403 973 OFFCURVE",
"416 958 OFFCURVE",
"416 941 CURVE SMOOTH",
"416 896 OFFCURVE",
"334 885 OFFCURVE",
"334 839 CURVE SMOOTH",
"334 812 OFFCURVE",
"352 789 OFFCURVE",
"403 789 CURVE"
);
},
{
closed = 1;
nodes = (
"691 567 OFFCURVE",
"756 632 OFFCURVE",
"756 705 CURVE SMOOTH",
"756 752 OFFCURVE",
"729 772 OFFCURVE",
"701 772 CURVE SMOOTH",
"672 772 OFFCURVE",
"656 752 OFFCURVE",
"656 729 CURVE SMOOTH",
"656 695 OFFCURVE",
"689 688 OFFCURVE",
"689 653 CURVE SMOOTH",
"689 617 OFFCURVE",
"658 588 OFFCURVE",
"623 568 CURVE",
"623 543 LINE"
);
}
);
};
components = (
{
name = hookabovecomb;
transform = "{1, 0, 0, 1, 629, 230}";
},
{
name = Ohorn;
}
);
layerId = "0B1DFD06-3317-40CA-B510-4969A0718C16";
width = 755;
}
);
leftKerningGroup = O;
note = Ohornhookabove;
rightKerningGroup = O;
unicode = 1EDE;
},
{
glyphname = Ohorntilde;
lastChange = "2017-12-19 04:37:21 +0000";
layers = (
{
background = {
paths = (
{
closed = 1;
nodes = (
"602 -10 OFFCURVE",
"720 124 OFFCURVE",
"720 350 CURVE SMOOTH",
"720 574 OFFCURVE",
"602 710 OFFCURVE",
"379 710 CURVE SMOOTH",
"155 710 OFFCURVE",
"37 574 OFFCURVE",
"37 350 CURVE SMOOTH",
"37 124 OFFCURVE",
"155 -10 OFFCURVE",
"379 -10 CURVE SMOOTH"
);
},
{
closed = 1;
nodes = (
"216 32 OFFCURVE",
"136 158 OFFCURVE",
"136 350 CURVE SMOOTH",
"136 541 OFFCURVE",
"216 668 OFFCURVE",
"378 668 CURVE SMOOTH",
"542 668 OFFCURVE",
"621 541 OFFCURVE",
"621 350 CURVE SMOOTH",
"621 158 OFFCURVE",
"542 32 OFFCURVE",
"378 32 CURVE SMOOTH"
);
},
{
closed = 1;
nodes = (
"234 828 OFFCURVE",
"252 849 OFFCURVE",
"285 849 CURVE SMOOTH",
"336 849 OFFCURVE",
"385 795 OFFCURVE",
"436 795 CURVE SMOOTH",
"494 795 OFFCURVE",
"524 843 OFFCURVE",
"536 895 CURVE",
"515 906 LINE",
"499 866 OFFCURVE",
"483 844 OFFCURVE",
"449 844 CURVE SMOOTH",
"400 844 OFFCURVE",
"348 897 OFFCURVE",
"297 897 CURVE SMOOTH",
"243 897 OFFCURVE",
"210 853 OFFCURVE",
"198 801 CURVE",
"220 790 LINE"
);
},
{
closed = 1;
nodes = (
"691 567 OFFCURVE",
"756 632 OFFCURVE",
"756 705 CURVE SMOOTH",
"756 752 OFFCURVE",
"729 772 OFFCURVE",
"701 772 CURVE SMOOTH",
"672 772 OFFCURVE",
"656 752 OFFCURVE",
"656 729 CURVE SMOOTH",
"656 695 OFFCURVE",
"689 688 OFFCURVE",
"689 653 CURVE SMOOTH",
"689 617 OFFCURVE",
"658 588 OFFCURVE",
"623 568 CURVE",
"623 543 LINE"
);
}
);
};
components = (
{
name = tilde;
transform = "{1, 0, 0, 1, 132, 230}";
},
{
name = Ohorn;
}
);
layerId = "0B1DFD06-3317-40CA-B510-4969A0718C16";
width = 755;
}
);
leftKerningGroup = O;
note = Ohorntilde;
rightKerningGroup = O;
unicode = 1EE0;
},
{
glyphname = Ohungarumlaut;
lastChange = "2017-12-18 08:30:49 +0000";
layers = (
{
background = {
paths = (
{
closed = 1;
nodes = (
"601 -10 OFFCURVE",
"719 124 OFFCURVE",
"719 350 CURVE SMOOTH",
"719 574 OFFCURVE",
"601 710 OFFCURVE",
"378 710 CURVE SMOOTH",
"154 710 OFFCURVE",
"36 574 OFFCURVE",
"36 350 CURVE SMOOTH",
"36 124 OFFCURVE",
"154 -10 OFFCURVE",
"378 -10 CURVE SMOOTH"
);
},
{
closed = 1;
nodes = (
"215 32 OFFCURVE",
"135 158 OFFCURVE",
"135 350 CURVE SMOOTH",
"135 541 OFFCURVE",
"215 668 OFFCURVE",
"377 668 CURVE SMOOTH",
"541 668 OFFCURVE",
"620 541 OFFCURVE",
"620 350 CURVE SMOOTH",
"620 158 OFFCURVE",
"541 32 OFFCURVE",
"377 32 CURVE SMOOTH"
);
},
{
closed = 1;
nodes = (
"395 864 LINE SMOOTH",
"417 877 OFFCURVE",
"429 891 OFFCURVE",
"429 908 CURVE SMOOTH",
"429 922 OFFCURVE",
"421 937 OFFCURVE",
"399 937 CURVE SMOOTH",
"378 937 OFFCURVE",
"357 919 OFFCURVE",
"350 913 CURVE",
"236 807 LINE",
"253 782 LINE"
);
},
{
closed = 1;
nodes = (
"556 864 LINE SMOOTH",
"577 877 OFFCURVE",
"589 891 OFFCURVE",
"589 908 CURVE SMOOTH",
"589 922 OFFCURVE",
"578 937 OFFCURVE",
"556 937 CURVE SMOOTH",
"534 937 OFFCURVE",
"517 919 OFFCURVE",
"510 913 CURVE",
"396 807 LINE",
"414 782 LINE"
);
}
);
};
components = (
{
name = O;
},
{
name = hungarumlaut;
transform = "{1, 0, 0, 1, 131, 230}";
}
);
layerId = "0B1DFD06-3317-40CA-B510-4969A0718C16";
width = 755;
}
);
leftKerningGroup = O;
note = Ohungarumlaut;
rightKerningGroup = O;
unicode = 0150;
},
{
glyphname = Omacron;
lastChange = "2017-12-18 08:30:49 +0000";
layers = (
{
background = {
paths = (
{
closed = 1;
nodes = (
"601 -10 OFFCURVE",
"719 124 OFFCURVE",
"719 350 CURVE SMOOTH",
"719 574 OFFCURVE",
"601 710 OFFCURVE",
"378 710 CURVE SMOOTH",
"154 710 OFFCURVE",
"36 574 OFFCURVE",
"36 350 CURVE SMOOTH",
"36 124 OFFCURVE",
"154 -10 OFFCURVE",
"378 -10 CURVE SMOOTH"
);
},
{
closed = 1;
nodes = (
"215 32 OFFCURVE",
"135 158 OFFCURVE",
"135 350 CURVE SMOOTH",
"135 541 OFFCURVE",
"215 668 OFFCURVE",
"377 668 CURVE SMOOTH",
"541 668 OFFCURVE",
"620 541 OFFCURVE",
"620 350 CURVE SMOOTH",
"620 158 OFFCURVE",
"541 32 OFFCURVE",
"377 32 CURVE SMOOTH"
);
},
{
closed = 1;
nodes = (
"543 793 LINE",
"543 835 LINE",
"210 835 LINE",
"210 793 LINE"
);
}
);
};
components = (
{
name = O;
},
{
name = macron;
transform = "{1, 0, 0, 1, 132, 230}";
}
);
layerId = "0B1DFD06-3317-40CA-B510-4969A0718C16";
width = 755;
}
);
leftKerningGroup = O;
note = Omacron;
rightKerningGroup = O;
unicode = 014C;
},
{
glyphname = Oslash;
lastChange = "2017-12-19 04:36:11 +0000";
layers = (
{
layerId = "0B1DFD06-3317-40CA-B510-4969A0718C16";
paths = (
{
closed = 1;
nodes = (
"223 32 LINE",
"272 6 OFFCURVE",
"328 -7 OFFCURVE",
"390 -7 CURVE SMOOTH",
"594 -7 OFFCURVE",
"736 138 OFFCURVE",
"736 348 CURVE SMOOTH",
"736 480 OFFCURVE",
"677 591 OFFCURVE",
"581 651 CURVE",
"604 693 LINE",
"623 723 OFFCURVE",
"623 741 OFFCURVE",
"607 749 CURVE",
"591 761 OFFCURVE",
"575 749 OFFCURVE",
"557 719 CURVE SMOOTH",
"532 677 LINE",
"490 695 OFFCURVE",
"441 705 OFFCURVE",
"390 705 CURVE SMOOTH",
"191 705 OFFCURVE",
"45 561 OFFCURVE",
"45 348 CURVE SMOOTH",
"45 224 OFFCURVE",
"96 122 OFFCURVE",
"178 60 CURVE",
"154 19 LINE SMOOTH",
"137 -10 OFFCURVE",
"135 -30 OFFCURVE",
"151 -39 CURVE SMOOTH",
"167 -47 OFFCURVE",
"184 -36 OFFCURVE",
"200 -7 CURVE SMOOTH"
);
},
{
closed = 1;
nodes = (
"680 173 OFFCURVE",
"564 49 OFFCURVE",
"390 49 CURVE SMOOTH",
"339 49 OFFCURVE",
"292 59 OFFCURVE",
"250 81 CURVE",
"552 604 LINE",
"634 551 OFFCURVE",
"680 456 OFFCURVE",
"680 348 CURVE SMOOTH"
);
},
{
closed = 1;
nodes = (
"101 521 OFFCURVE",
"213 649 OFFCURVE",
"390 649 CURVE SMOOTH",
"431 649 OFFCURVE",
"470 640 OFFCURVE",
"503 627 CURVE",
"206 109 LINE",
"141 160 OFFCURVE",
"101 242 OFFCURVE",
"101 348 CURVE SMOOTH"
);
}
);
width = 779;
}
);
note = Oslash;
unicode = 00D8;
},
{
glyphname = OE;
lastChange = "2017-12-19 04:36:20 +0000";
layers = (
{
layerId = "0B1DFD06-3317-40CA-B510-4969A0718C16";
paths = (
{
closed = 1;
nodes = (
"607 637 OFFCURVE",
"505 705 OFFCURVE",
"374 705 CURVE SMOOTH",
"186 705 OFFCURVE",
"46 561 OFFCURVE",
"46 348 CURVE SMOOTH",
"46 137 OFFCURVE",
"188 -7 OFFCURVE",
"374 -7 CURVE SMOOTH",
"503 -7 OFFCURVE",
"607 58 OFFCURVE",
"661 164 CURVE",
"696 43 OFFCURVE",
"827 -7 OFFCURVE",
"933 -7 CURVE SMOOTH",
"1094 -7 OFFCURVE",
"1179 55 OFFCURVE",
"1209 116 CURVE",
"1215 129 OFFCURVE",
"1215 147 OFFCURVE",
"1202 154 CURVE",
"1189 162 OFFCURVE",
"1171 158 OFFCURVE",
"1163 145 CURVE SMOOTH",
"1130 86 OFFCURVE",
"1063 46 OFFCURVE",
"928 46 CURVE SMOOTH",
"815 47 OFFCURVE",
"707 112 OFFCURVE",
"707 233 CURVE SMOOTH",
"707 322 LINE",
"1018 322 LINE SMOOTH",
"1045 322 OFFCURVE",
"1057 331 OFFCURVE",
"1057 349 CURVE SMOOTH",
"1057 367 OFFCURVE",
"1045 375 OFFCURVE",
"1018 375 CURVE SMOOTH",
"707 375 LINE",
"707 464 LINE SMOOTH",
"707 575 OFFCURVE",
"815 650 OFFCURVE",
"928 651 CURVE SMOOTH",
"1063 651 OFFCURVE",
"1130 611 OFFCURVE",
"1163 552 CURVE SMOOTH",
"1171 539 OFFCURVE",
"1189 535 OFFCURVE",
"1202 544 CURVE",
"1215 551 OFFCURVE",
"1214 568 OFFCURVE",
"1208 581 CURVE",
"1178 643 OFFCURVE",
"1094 705 OFFCURVE",
"933 705 CURVE SMOOTH",
"827 705 OFFCURVE",
"696 651 OFFCURVE",
"661 531 CURVE"
);
},
{
closed = 1;
nodes = (
"650 173 OFFCURVE",
"539 49 OFFCURVE",
"374 49 CURVE SMOOTH",
"223 49 OFFCURVE",
"99 160 OFFCURVE",
"99 348 CURVE SMOOTH",
"99 521 OFFCURVE",
"206 649 OFFCURVE",
"374 649 CURVE SMOOTH",
"548 649 OFFCURVE",
"650 515 OFFCURVE",
"650 348 CURVE SMOOTH"
);
}
);
width = 1255;
}
);
note = OE;
unicode = 0152;
},
{
glyphname = Thorn;
lastChange = "2017-12-19 04:36:20 +0000";
layers = (
{
layerId = "0B1DFD06-3317-40CA-B510-4969A0718C16";
paths = (
{
closed = 1;
nodes = (
"142 578 LINE",
"142 674 LINE SMOOTH",
"142 700 OFFCURVE",
"134 713 OFFCURVE",
"116 713 CURVE SMOOTH",
"99 713 OFFCURVE",
"91 700 OFFCURVE",
"91 674 CURVE SMOOTH",
"91 20 LINE SMOOTH",
"91 -6 OFFCURVE",
"99 -19 OFFCURVE",
"116 -19 CURVE SMOOTH",
"134 -19 OFFCURVE",
"142 -6 OFFCURVE",
"142 20 CURVE SMOOTH",
"142 173 LINE",
"362 173 LINE SMOOTH",
"449 173 OFFCURVE",
"558 230 OFFCURVE",
"558 371 CURVE SMOOTH",
"558 561 OFFCURVE",
"403 578 OFFCURVE",
"347 578 CURVE SMOOTH"
);
},
{
closed = 1;
nodes = (
"142 214 LINE",
"142 529 LINE",
"368 529 LINE SMOOTH",
"449 529 OFFCURVE",
"509 480 OFFCURVE",
"509 368 CURVE SMOOTH",
"509 269 OFFCURVE",
"443 214 OFFCURVE",
"368 214 CURVE SMOOTH"
);
}
);
width = 621;
}
);
note = Thorn;
unicode = 00DE;
},
{
color = 0;
glyphname = Germandbls;
lastChange = "2017-12-19 04:36:25 +0000";
layers = (
{
layerId = "0B1DFD06-3317-40CA-B510-4969A0718C16";
paths = (
{
closed = 1;
nodes = (
"606 -10 OFFCURVE",
"674 88 OFFCURVE",
"674 203 CURVE SMOOTH",
"674 313 OFFCURVE",
"592 385 OFFCURVE",
"445 398 CURVE",
"591 553 LINE",
"569 627 OFFCURVE",
"489 710 OFFCURVE",
"354 710 CURVE SMOOTH",
"177 710 OFFCURVE",
"92 616 OFFCURVE",
"92 470 CURVE SMOOTH",
"92 62 LINE SMOOTH",
"92 37 OFFCURVE",
"72 26 OFFCURVE",
"33 26 CURVE SMOOTH",
"5 26 LINE",
"5 0 LINE",
"255 0 LINE",
"255 26 LINE",
"227 26 LINE SMOOTH",
"202 26 OFFCURVE",
"188 44 OFFCURVE",
"188 63 CURVE SMOOTH",
"188 495 LINE SMOOTH",
"188 602 OFFCURVE",
"246 668 OFFCURVE",
"347 668 CURVE SMOOTH",
"431 668 OFFCURVE",
"479 617 OFFCURVE",
"499 555 CURVE",
"344 387 LINE",
"344 361 LINE",
"406 361 LINE SMOOTH",
"520 361 OFFCURVE",
"578 296 OFFCURVE",
"578 203 CURVE SMOOTH",
"578 100 OFFCURVE",
"521 29 OFFCURVE",
"419 29 CURVE SMOOTH",
"374 29 OFFCURVE",
"324 37 OFFCURVE",
"277 56 CURVE",
"277 14 LINE",
"318 -2 OFFCURVE",
"367 -10 OFFCURVE",
"423 -10 CURVE SMOOTH"
);
}
);
width = 703;
}
);
note = uni1E9E;
unicode = 1E9E;
},
{
color = 0;
glyphname = Schwa;
lastChange = "2017-12-19 04:36:25 +0000";
layers = (
{
layerId = "0B1DFD06-3317-40CA-B510-4969A0718C16";
paths = (
{
closed = 1;
nodes = (
"543 -10 OFFCURVE",
"658 120 OFFCURVE",
"658 346 CURVE SMOOTH",
"658 569 OFFCURVE",
"533 710 OFFCURVE",
"323 710 CURVE SMOOTH",
"160 710 OFFCURVE",
"56 618 OFFCURVE",
"41 500 CURVE",
"84 500 LINE",
"111 616 OFFCURVE",
"202 660 OFFCURVE",
"298 660 CURVE SMOOTH",
"479 660 OFFCURVE",
"559 515 OFFCURVE",
"559 341 CURVE SMOOTH",
"559 185 OFFCURVE",
"486 39 OFFCURVE",
"327 39 CURVE SMOOTH",
"181 39 OFFCURVE",
"133 180 OFFCURVE",
"132 283 CURVE",
"573 283 LINE",
"573 333 LINE",
"33 333 LINE",
"33 303 LINE SMOOTH",
"33 132 OFFCURVE",
"119 -10 OFFCURVE",
"330 -10 CURVE SMOOTH"
);
}
);
width = 692;
}
);
note = uni018F;
unicode = 018F;
},
{
glyphname = Tbar;
lastChange = "2017-12-18 08:47:22 +0000";
layers = (
{
components = (
{
name = T;
}
);
layerId = "0B1DFD06-3317-40CA-B510-4969A0718C16";
paths = (
{
closed = 1;
nodes = (
"520 317 LINE",
"520 363 LINE",
"134 363 LINE",
"134 317 LINE"
);
}
);
width = 652;
}
);
leftKerningGroup = T;
note = Tbar;
rightKerningGroup = T;
unicode = 0166;
},
{
glyphname = Uacute;
lastChange = "2017-12-18 08:53:01 +0000";
layers = (
{
background = {
paths = (
{
closed = 1;
nodes = (
"539 -10 OFFCURVE",
"636 51 OFFCURVE",
"636 204 CURVE SMOOTH",
"636 637 LINE SMOOTH",
"636 662 OFFCURVE",
"660 673 OFFCURVE",
"690 673 CURVE SMOOTH",
"713 673 LINE",
"713 700 LINE",
"510 700 LINE",
"510 673 LINE",
"532 673 LINE SMOOTH",
"564 673 OFFCURVE",
"586 662 OFFCURVE",
"586 637 CURVE SMOOTH",
"586 197 LINE SMOOTH",
"586 65 OFFCURVE",
"489 31 OFFCURVE",
"397 31 CURVE SMOOTH",
"290 31 OFFCURVE",
"203 63 OFFCURVE",
"203 197 CURVE SMOOTH",
"203 637 LINE SMOOTH",
"203 662 OFFCURVE",
"226 673 OFFCURVE",
"257 673 CURVE SMOOTH",
"280 673 LINE",
"280 700 LINE",
"28 700 LINE",
"28 673 LINE",
"51 673 LINE SMOOTH",
"82 673 OFFCURVE",
"105 662 OFFCURVE",
"105 637 CURVE SMOOTH",
"105 204 LINE SMOOTH",
"105 46 OFFCURVE",
"208 -10 OFFCURVE",
"375 -10 CURVE SMOOTH"
);
},
{
closed = 1;
nodes = (
"447 865 LINE SMOOTH",
"469 877 OFFCURVE",
"481 890 OFFCURVE",
"481 907 CURVE SMOOTH",
"481 922 OFFCURVE",
"469 937 OFFCURVE",
"447 937 CURVE SMOOTH",
"426 937 OFFCURVE",
"411 921 OFFCURVE",
"403 914 CURVE SMOOTH",
"288 807 LINE",
"305 782 LINE"
);
}
);
};
components = (
{
name = U;
},
{
name = acute;
transform = "{1, 0, 0, 1, 136, 230}";
}
);
layerId = "0B1DFD06-3317-40CA-B510-4969A0718C16";
width = 742;
}
);
leftKerningGroup = U;
note = Uacute;
rightKerningGroup = U;
unicode = 00DA;
},
{
glyphname = Ubreve;
lastChange = "2017-12-18 08:53:01 +0000";
layers = (
{
background = {
paths = (
{
closed = 1;
nodes = (
"539 -10 OFFCURVE",
"636 51 OFFCURVE",
"636 204 CURVE SMOOTH",
"636 637 LINE SMOOTH",
"636 662 OFFCURVE",
"660 673 OFFCURVE",
"690 673 CURVE SMOOTH",
"713 673 LINE",
"713 700 LINE",
"510 700 LINE",
"510 673 LINE",
"532 673 LINE SMOOTH",
"564 673 OFFCURVE",
"586 662 OFFCURVE",
"586 637 CURVE SMOOTH",
"586 197 LINE SMOOTH",
"586 65 OFFCURVE",
"489 31 OFFCURVE",
"397 31 CURVE SMOOTH",
"290 31 OFFCURVE",
"203 63 OFFCURVE",
"203 197 CURVE SMOOTH",
"203 637 LINE SMOOTH",
"203 662 OFFCURVE",
"226 673 OFFCURVE",
"257 673 CURVE SMOOTH",
"280 673 LINE",
"280 700 LINE",
"28 700 LINE",
"28 673 LINE",
"51 673 LINE SMOOTH",
"82 673 OFFCURVE",
"105 662 OFFCURVE",
"105 637 CURVE SMOOTH",
"105 204 LINE SMOOTH",
"105 46 OFFCURVE",
"208 -10 OFFCURVE",
"375 -10 CURVE SMOOTH"
);
},
{
closed = 1;
nodes = (
"483 774 OFFCURVE",
"525 830 OFFCURVE",
"529 905 CURVE",
"496 905 LINE",
"490 846 OFFCURVE",
"448 820 OFFCURVE",
"384 820 CURVE SMOOTH",
"320 820 OFFCURVE",
"277 846 OFFCURVE",
"270 905 CURVE",
"237 905 LINE",
"241 827 OFFCURVE",
"283 774 OFFCURVE",
"384 774 CURVE SMOOTH"
);
}
);
};
components = (
{
name = U;
},
{
name = breve;
transform = "{1, 0, 0, 1, 148, 230}";
}
);
layerId = "0B1DFD06-3317-40CA-B510-4969A0718C16";
width = 742;
}
);
leftKerningGroup = U;
note = Ubreve;
rightKerningGroup = U;
unicode = 016C;
},
{
glyphname = Ucaron;
lastChange = "2017-12-18 08:53:01 +0000";
layers = (
{
background = {
paths = (
{
closed = 1;
nodes = (
"539 -10 OFFCURVE",
"636 51 OFFCURVE",
"636 204 CURVE SMOOTH",
"636 637 LINE SMOOTH",
"636 662 OFFCURVE",
"660 673 OFFCURVE",
"690 673 CURVE SMOOTH",
"713 673 LINE",
"713 700 LINE",
"510 700 LINE",
"510 673 LINE",
"532 673 LINE SMOOTH",
"564 673 OFFCURVE",
"586 662 OFFCURVE",
"586 637 CURVE SMOOTH",
"586 197 LINE SMOOTH",
"586 65 OFFCURVE",
"489 31 OFFCURVE",
"397 31 CURVE SMOOTH",
"290 31 OFFCURVE",
"203 63 OFFCURVE",
"203 197 CURVE SMOOTH",
"203 637 LINE SMOOTH",
"203 662 OFFCURVE",
"226 673 OFFCURVE",
"257 673 CURVE SMOOTH",
"280 673 LINE",
"280 700 LINE",
"28 700 LINE",
"28 673 LINE",
"51 673 LINE SMOOTH",
"82 673 OFFCURVE",
"105 662 OFFCURVE",
"105 637 CURVE SMOOTH",
"105 204 LINE SMOOTH",
"105 46 OFFCURVE",
"208 -10 OFFCURVE",
"375 -10 CURVE SMOOTH"
);
},
{
closed = 1;
nodes = (
"397 782 LINE",
"521 911 LINE",
"502 932 LINE",
"394 847 LINE",
"386 840 OFFCURVE",
"377 836 OFFCURVE",
"371 836 CURVE SMOOTH",
"365 836 OFFCURVE",
"357 840 OFFCURVE",
"347 847 CURVE",
"239 932 LINE",
"220 911 LINE",
"344 782 LINE"
);
}
);
};
components = (
{
name = U;
},
{
name = caron;
transform = "{1, 0, 0, 1, 148, 230}";
}
);
layerId = "0B1DFD06-3317-40CA-B510-4969A0718C16";
width = 742;
}
);
leftKerningGroup = U;
note = Ucaron;
rightKerningGroup = U;
unicode = 01D3;
},
{
glyphname = Ucircumflex;
lastChange = "2017-12-18 08:53:01 +0000";
layers = (
{
background = {
paths = (
{
closed = 1;
nodes = (
"539 -10 OFFCURVE",
"636 51 OFFCURVE",
"636 204 CURVE SMOOTH",
"636 637 LINE SMOOTH",
"636 662 OFFCURVE",
"660 673 OFFCURVE",
"690 673 CURVE SMOOTH",
"713 673 LINE",
"713 700 LINE",
"510 700 LINE",
"510 673 LINE",
"532 673 LINE SMOOTH",
"564 673 OFFCURVE",
"586 662 OFFCURVE",
"586 637 CURVE SMOOTH",
"586 197 LINE SMOOTH",
"586 65 OFFCURVE",
"489 31 OFFCURVE",
"397 31 CURVE SMOOTH",
"290 31 OFFCURVE",
"203 63 OFFCURVE",
"203 197 CURVE SMOOTH",
"203 637 LINE SMOOTH",
"203 662 OFFCURVE",
"226 673 OFFCURVE",
"257 673 CURVE SMOOTH",
"280 673 LINE",
"280 700 LINE",
"28 700 LINE",
"28 673 LINE",
"51 673 LINE SMOOTH",
"82 673 OFFCURVE",
"105 662 OFFCURVE",
"105 637 CURVE SMOOTH",
"105 204 LINE SMOOTH",
"105 46 OFFCURVE",
"208 -10 OFFCURVE",
"375 -10 CURVE SMOOTH"
);
},
{
closed = 1;
nodes = (
"360 868 LINE SMOOTH",
"368 874 OFFCURVE",
"378 879 OFFCURVE",
"384 879 CURVE SMOOTH",
"390 879 OFFCURVE",
"398 874 OFFCURVE",
"407 868 CURVE",
"515 782 LINE",
"534 803 LINE",
"410 932 LINE",
"357 932 LINE",
"233 803 LINE",
"252 782 LINE"
);
}
);
};
components = (
{
name = U;
},
{
name = circumflex;
transform = "{1, 0, 0, 1, 148, 230}";
}
);
layerId = "0B1DFD06-3317-40CA-B510-4969A0718C16";
width = 742;
}
);
leftKerningGroup = U;
note = Ucircumflex;
rightKerningGroup = U;
unicode = 00DB;
},
{
glyphname = Udieresis;
lastChange = "2017-12-18 08:53:01 +0000";
layers = (
{
background = {
paths = (
{
closed = 1;
nodes = (
"539 -10 OFFCURVE",
"636 51 OFFCURVE",
"636 204 CURVE SMOOTH",
"636 637 LINE SMOOTH",
"636 662 OFFCURVE",
"660 673 OFFCURVE",
"690 673 CURVE SMOOTH",
"713 673 LINE",
"713 700 LINE",
"510 700 LINE",
"510 673 LINE",
"532 673 LINE SMOOTH",
"564 673 OFFCURVE",
"586 662 OFFCURVE",
"586 637 CURVE SMOOTH",
"586 197 LINE SMOOTH",
"586 65 OFFCURVE",
"489 31 OFFCURVE",
"397 31 CURVE SMOOTH",
"290 31 OFFCURVE",
"203 63 OFFCURVE",
"203 197 CURVE SMOOTH",
"203 637 LINE SMOOTH",
"203 662 OFFCURVE",
"226 673 OFFCURVE",
"257 673 CURVE SMOOTH",
"280 673 LINE",
"280 700 LINE",
"28 700 LINE",
"28 673 LINE",
"51 673 LINE SMOOTH",
"82 673 OFFCURVE",
"105 662 OFFCURVE",
"105 637 CURVE SMOOTH",
"105 204 LINE SMOOTH",
"105 46 OFFCURVE",
"208 -10 OFFCURVE",
"375 -10 CURVE SMOOTH"
);
},
{
closed = 1;
nodes = (
"304 781 OFFCURVE",
"322 800 OFFCURVE",
"322 827 CURVE SMOOTH",
"322 855 OFFCURVE",
"304 875 OFFCURVE",
"275 875 CURVE SMOOTH",
"247 875 OFFCURVE",
"229 855 OFFCURVE",
"229 827 CURVE SMOOTH",
"229 800 OFFCURVE",
"247 781 OFFCURVE",
"275 781 CURVE SMOOTH"
);
},
{
closed = 1;
nodes = (
"520 781 OFFCURVE",
"538 800 OFFCURVE",
"538 827 CURVE SMOOTH",
"538 855 OFFCURVE",
"520 875 OFFCURVE",
"491 875 CURVE SMOOTH",
"462 875 OFFCURVE",
"444 855 OFFCURVE",
"444 827 CURVE SMOOTH",
"444 800 OFFCURVE",
"462 781 OFFCURVE",
"491 781 CURVE SMOOTH"
);
}
);
};
components = (
{
name = U;
},
{
name = dieresis;
transform = "{1, 0, 0, 1, 148, 230}";
}
);
layerId = "0B1DFD06-3317-40CA-B510-4969A0718C16";
width = 742;
}
);
leftKerningGroup = U;
note = Udieresis;
rightKerningGroup = U;
unicode = 00DC;
},
{
glyphname = Udieresisacute;
lastChange = "2017-12-18 08:53:01 +0000";
layers = (
{
background = {
paths = (
{
closed = 1;
nodes = (
"539 -10 OFFCURVE",
"636 51 OFFCURVE",
"636 204 CURVE SMOOTH",
"636 637 LINE SMOOTH",
"636 662 OFFCURVE",
"660 673 OFFCURVE",
"690 673 CURVE SMOOTH",
"713 673 LINE",
"713 700 LINE",
"510 700 LINE",
"510 673 LINE",
"532 673 LINE SMOOTH",
"564 673 OFFCURVE",
"586 662 OFFCURVE",
"586 637 CURVE SMOOTH",
"586 197 LINE SMOOTH",
"586 65 OFFCURVE",
"489 31 OFFCURVE",
"397 31 CURVE SMOOTH",
"290 31 OFFCURVE",
"203 63 OFFCURVE",
"203 197 CURVE SMOOTH",
"203 637 LINE SMOOTH",
"203 662 OFFCURVE",
"226 673 OFFCURVE",
"257 673 CURVE SMOOTH",
"280 673 LINE",
"280 700 LINE",
"28 700 LINE",
"28 673 LINE",
"51 673 LINE SMOOTH",
"82 673 OFFCURVE",
"105 662 OFFCURVE",
"105 637 CURVE SMOOTH",
"105 204 LINE SMOOTH",
"105 46 OFFCURVE",
"208 -10 OFFCURVE",
"375 -10 CURVE SMOOTH"
);
},
{
closed = 1;
nodes = (
"291 780 OFFCURVE",
"310 799 OFFCURVE",
"310 827 CURVE SMOOTH",
"310 855 OFFCURVE",
"291 875 OFFCURVE",
"262 875 CURVE SMOOTH",
"235 875 OFFCURVE",
"216 855 OFFCURVE",
"216 827 CURVE SMOOTH",
"216 799 OFFCURVE",
"235 780 OFFCURVE",
"262 780 CURVE SMOOTH"
);
},
{
closed = 1;
nodes = (
"507 780 OFFCURVE",
"526 799 OFFCURVE",
"526 827 CURVE SMOOTH",
"526 855 OFFCURVE",
"507 875 OFFCURVE",
"479 875 CURVE SMOOTH",
"451 875 OFFCURVE",
"432 855 OFFCURVE",
"432 827 CURVE SMOOTH",
"432 799 OFFCURVE",
"451 780 OFFCURVE",
"479 780 CURVE SMOOTH"
);
},
{
closed = 1;
nodes = (
"481 969 LINE SMOOTH",
"502 981 OFFCURVE",
"512 993 OFFCURVE",
"512 1009 CURVE SMOOTH",
"512 1024 OFFCURVE",
"503 1037 OFFCURVE",
"481 1037 CURVE SMOOTH",
"460 1037 OFFCURVE",
"442 1020 OFFCURVE",
"435 1013 CURVE SMOOTH",
"344 924 LINE",
"362 899 LINE"
);
}
);
};
components = (
{
name = U;
},
{
name = dieresisacute;
transform = "{1, 0, 0, 1, 149, 230}";
}
);
layerId = "0B1DFD06-3317-40CA-B510-4969A0718C16";
width = 742;
}
);
leftKerningGroup = U;
note = Udieresisacute;
rightKerningGroup = U;
unicode = 01D7;
},
{
glyphname = Udieresiscaron;
lastChange = "2017-12-18 08:53:01 +0000";
layers = (
{
background = {
paths = (
{
closed = 1;
nodes = (
"539 -10 OFFCURVE",
"636 51 OFFCURVE",
"636 204 CURVE SMOOTH",
"636 637 LINE SMOOTH",
"636 662 OFFCURVE",
"660 673 OFFCURVE",
"690 673 CURVE SMOOTH",
"713 673 LINE",
"713 700 LINE",
"510 700 LINE",
"510 673 LINE",
"532 673 LINE SMOOTH",
"564 673 OFFCURVE",
"586 662 OFFCURVE",
"586 637 CURVE SMOOTH",
"586 197 LINE SMOOTH",
"586 65 OFFCURVE",
"489 31 OFFCURVE",
"397 31 CURVE SMOOTH",
"290 31 OFFCURVE",
"203 63 OFFCURVE",
"203 197 CURVE SMOOTH",
"203 637 LINE SMOOTH",
"203 662 OFFCURVE",
"226 673 OFFCURVE",
"257 673 CURVE SMOOTH",
"280 673 LINE",
"280 700 LINE",
"28 700 LINE",
"28 673 LINE",
"51 673 LINE SMOOTH",
"82 673 OFFCURVE",
"105 662 OFFCURVE",
"105 637 CURVE SMOOTH",
"105 204 LINE SMOOTH",
"105 46 OFFCURVE",
"208 -10 OFFCURVE",
"375 -10 CURVE SMOOTH"
);
},
{
closed = 1;
nodes = (
"296 780 OFFCURVE",
"315 799 OFFCURVE",
"315 827 CURVE SMOOTH",
"315 855 OFFCURVE",
"296 875 OFFCURVE",
"267 875 CURVE SMOOTH",
"240 875 OFFCURVE",
"221 855 OFFCURVE",
"221 827 CURVE SMOOTH",
"221 799 OFFCURVE",
"240 780 OFFCURVE",
"267 780 CURVE SMOOTH"
);
},
{
closed = 1;
nodes = (
"512 780 OFFCURVE",
"531 799 OFFCURVE",
"531 827 CURVE SMOOTH",
"531 855 OFFCURVE",
"512 875 OFFCURVE",
"484 875 CURVE SMOOTH",
"456 875 OFFCURVE",
"437 855 OFFCURVE",
"437 827 CURVE SMOOTH",
"437 799 OFFCURVE",
"456 780 OFFCURVE",
"484 780 CURVE SMOOTH"
);
},
{
closed = 1;
nodes = (
"401 911 LINE",
"523 1035 LINE",
"505 1056 LINE",
"404 978 LINE",
"394 971 OFFCURVE",
"385 963 OFFCURVE",
"376 963 CURVE SMOOTH",
"369 963 OFFCURVE",
"357 971 OFFCURVE",
"347 978 CURVE",
"246 1056 LINE",
"228 1035 LINE",
"350 911 LINE"
);
}
);
};
components = (
{
name = U;
},
{
name = dieresiscaron;
transform = "{1, 0, 0, 1, 149, 230}";
}
);
layerId = "0B1DFD06-3317-40CA-B510-4969A0718C16";
width = 742;
}
);
leftKerningGroup = U;
note = Udieresiscaron;
rightKerningGroup = U;
unicode = 01D9;
},
{
glyphname = Udieresisgrave;
lastChange = "2017-12-18 08:53:01 +0000";
layers = (
{
background = {
paths = (
{
closed = 1;
nodes = (
"539 -10 OFFCURVE",
"636 51 OFFCURVE",
"636 204 CURVE SMOOTH",
"636 637 LINE SMOOTH",
"636 662 OFFCURVE",
"660 673 OFFCURVE",
"690 673 CURVE SMOOTH",
"713 673 LINE",
"713 700 LINE",
"510 700 LINE",
"510 673 LINE",
"532 673 LINE SMOOTH",
"564 673 OFFCURVE",
"586 662 OFFCURVE",
"586 637 CURVE SMOOTH",
"586 197 LINE SMOOTH",
"586 65 OFFCURVE",
"489 31 OFFCURVE",
"397 31 CURVE SMOOTH",
"290 31 OFFCURVE",
"203 63 OFFCURVE",
"203 197 CURVE SMOOTH",
"203 637 LINE SMOOTH",
"203 662 OFFCURVE",
"226 673 OFFCURVE",
"257 673 CURVE SMOOTH",
"280 673 LINE",
"280 700 LINE",
"28 700 LINE",
"28 673 LINE",
"51 673 LINE SMOOTH",
"82 673 OFFCURVE",
"105 662 OFFCURVE",
"105 637 CURVE SMOOTH",
"105 204 LINE SMOOTH",
"105 46 OFFCURVE",
"208 -10 OFFCURVE",
"375 -10 CURVE SMOOTH"
);
},
{
closed = 1;
nodes = (
"296 780 OFFCURVE",
"315 799 OFFCURVE",
"315 827 CURVE SMOOTH",
"315 855 OFFCURVE",
"296 875 OFFCURVE",
"267 875 CURVE SMOOTH",
"240 875 OFFCURVE",
"221 855 OFFCURVE",
"221 827 CURVE SMOOTH",
"221 799 OFFCURVE",
"240 780 OFFCURVE",
"267 780 CURVE SMOOTH"
);
},
{
closed = 1;
nodes = (
"403 924 LINE",
"312 1013 LINE SMOOTH",
"305 1020 OFFCURVE",
"288 1036 OFFCURVE",
"267 1036 CURVE SMOOTH",
"245 1036 OFFCURVE",
"235 1024 OFFCURVE",
"235 1009 CURVE SMOOTH",
"235 993 OFFCURVE",
"245 981 OFFCURVE",
"266 969 CURVE SMOOTH",
"385 899 LINE"
);
},
{
closed = 1;
nodes = (
"512 780 OFFCURVE",
"531 799 OFFCURVE",
"531 827 CURVE SMOOTH",
"531 855 OFFCURVE",
"512 875 OFFCURVE",
"484 875 CURVE SMOOTH",
"456 875 OFFCURVE",
"437 855 OFFCURVE",
"437 827 CURVE SMOOTH",
"437 799 OFFCURVE",
"456 780 OFFCURVE",
"484 780 CURVE SMOOTH"
);
}
);
};
components = (
{
name = U;
},
{
name = dieresisgrave;
transform = "{1, 0, 0, 1, 149, 230}";
}
);
layerId = "0B1DFD06-3317-40CA-B510-4969A0718C16";
width = 742;
}
);
leftKerningGroup = U;
note = Udieresisgrave;
rightKerningGroup = U;
unicode = 01DB;
},
{
glyphname = Udieresismacron;
lastChange = "2017-12-18 08:53:01 +0000";
layers = (
{
background = {
paths = (
{
closed = 1;
nodes = (
"539 -10 OFFCURVE",
"636 51 OFFCURVE",
"636 204 CURVE SMOOTH",
"636 637 LINE SMOOTH",
"636 662 OFFCURVE",
"660 673 OFFCURVE",
"690 673 CURVE SMOOTH",
"713 673 LINE",
"713 700 LINE",
"510 700 LINE",
"510 673 LINE",
"532 673 LINE SMOOTH",
"564 673 OFFCURVE",
"586 662 OFFCURVE",
"586 637 CURVE SMOOTH",
"586 197 LINE SMOOTH",
"586 65 OFFCURVE",
"489 31 OFFCURVE",
"397 31 CURVE SMOOTH",
"290 31 OFFCURVE",
"203 63 OFFCURVE",
"203 197 CURVE SMOOTH",
"203 637 LINE SMOOTH",
"203 662 OFFCURVE",
"226 673 OFFCURVE",
"257 673 CURVE SMOOTH",
"280 673 LINE",
"280 700 LINE",
"28 700 LINE",
"28 673 LINE",
"51 673 LINE SMOOTH",
"82 673 OFFCURVE",
"105 662 OFFCURVE",
"105 637 CURVE SMOOTH",
"105 204 LINE SMOOTH",
"105 46 OFFCURVE",
"208 -10 OFFCURVE",
"375 -10 CURVE SMOOTH"
);
},
{
closed = 1;
nodes = (
"291 781 OFFCURVE",
"309 800 OFFCURVE",
"309 827 CURVE SMOOTH",
"309 855 OFFCURVE",
"291 875 OFFCURVE",
"262 875 CURVE SMOOTH",
"234 875 OFFCURVE",
"216 855 OFFCURVE",
"216 827 CURVE SMOOTH",
"216 800 OFFCURVE",
"234 781 OFFCURVE",
"262 781 CURVE SMOOTH"
);
},
{
closed = 1;
nodes = (
"507 781 OFFCURVE",
"525 800 OFFCURVE",
"525 827 CURVE SMOOTH",
"525 855 OFFCURVE",
"507 875 OFFCURVE",
"478 875 CURVE SMOOTH",
"449 875 OFFCURVE",
"431 855 OFFCURVE",
"431 827 CURVE SMOOTH",
"431 800 OFFCURVE",
"449 781 OFFCURVE",
"478 781 CURVE SMOOTH"
);
},
{
closed = 1;
nodes = (
"537 928 LINE",
"537 970 LINE",
"204 970 LINE",
"204 928 LINE"
);
}
);
};
components = (
{
name = U;
},
{
name = dieresis;
transform = "{1, 0, 0, 1, 148, 230}";
},
{
alignment = -1;
name = macron;
transform = "{1, 0, 0, 1, 145, 356}";
}
);
layerId = "0B1DFD06-3317-40CA-B510-4969A0718C16";
width = 742;
}
);
leftKerningGroup = U;
note = Udieresismacron;
rightKerningGroup = U;
unicode = 01D5;
},
{
glyphname = Uhorn;
lastChange = "2017-12-19 04:36:38 +0000";
layers = (
{
layerId = "0B1DFD06-3317-40CA-B510-4969A0718C16";
paths = (
{
closed = 1;
nodes = (
"656 659 LINE SMOOTH",
"656 684 OFFCURVE",
"646 697 OFFCURVE",
"630 697 CURVE SMOOTH",
"611 697 OFFCURVE",
"603 684 OFFCURVE",
"603 659 CURVE SMOOTH",
"603 260 LINE",
"603 260 OFFCURVE",
"604 170 OFFCURVE",
"552 114 CURVE SMOOTH",
"512 70 OFFCURVE",
"447 47 OFFCURVE",
"362 47 CURVE SMOOTH",
"276 47 OFFCURVE",
"213 70 OFFCURVE",
"171 114 CURVE SMOOTH",
"115 175 OFFCURVE",
"119 260 OFFCURVE",
"119 263 CURVE SMOOTH",
"119 659 LINE SMOOTH",
"119 684 OFFCURVE",
"111 697 OFFCURVE",
"93 697 CURVE SMOOTH",
"75 697 OFFCURVE",
"66 684 OFFCURVE",
"66 659 CURVE SMOOTH",
"66 266 LINE SMOOTH",
"66 260 OFFCURVE",
"58 157 OFFCURVE",
"131 78 CURVE SMOOTH",
"183 22 OFFCURVE",
"260 -7 OFFCURVE",
"362 -7 CURVE SMOOTH",
"464 -7 OFFCURVE",
"542 22 OFFCURVE",
"592 78 CURVE SMOOTH",
"664 157 OFFCURVE",
"656 257 OFFCURVE",
"656 263 CURVE SMOOTH",
"656 532 LINE",
"735 588 OFFCURVE",
"749 661 OFFCURVE",
"749 705 CURVE",
"702 705 LINE",
"702 647 OFFCURVE",
"682 608 OFFCURVE",
"656 580 CURVE"
);
}
);
width = 716;
}
);
note = Uhorn;
unicode = 01AF;
},
{
color = 0;
glyphname = "alpha-latin";
lastChange = "2017-12-19 04:37:34 +0000";
layers = (
{
layerId = "0B1DFD06-3317-40CA-B510-4969A0718C16";
paths = (
{
closed = 1;
nodes = (
"304 -10 OFFCURVE",
"357 10 OFFCURVE",
"393 69 CURVE",
"393 37 LINE SMOOTH",
"393 0 OFFCURVE",
"429 -10 OFFCURVE",
"461 -10 CURVE SMOOTH",
"491 -10 OFFCURVE",
"523 -1 OFFCURVE",
"545 17 CURVE",
"545 34 LINE",
"531 29 OFFCURVE",
"519 26 OFFCURVE",
"510 26 CURVE SMOOTH",
"494 26 OFFCURVE",
"486 36 OFFCURVE",
"486 58 CURVE SMOOTH",
"486 403 LINE",
"452 444 OFFCURVE",
"374 480 OFFCURVE",
"279 480 CURVE SMOOTH",
"141 480 OFFCURVE",
"26 405 OFFCURVE",
"26 215 CURVE SMOOTH",
"26 67 OFFCURVE",
"96 -10 OFFCURVE",
"234 -10 CURVE SMOOTH"
);
},
{
closed = 1;
nodes = (
"152 28 OFFCURVE",
"119 116 OFFCURVE",
"119 222 CURVE SMOOTH",
"119 370 OFFCURVE",
"183 441 OFFCURVE",
"279 441 CURVE SMOOTH",
"330 441 OFFCURVE",
"368 421 OFFCURVE",
"392 398 CURVE",
"392 169 LINE SMOOTH",
"392 98 OFFCURVE",
"346 28 OFFCURVE",
"255 28 CURVE SMOOTH"
);
}
);
width = 558;
}
);
leftKerningGroup = a;
note = ascript;
rightKerningGroup = a;
unicode = 0251;
},
{
glyphname = ae;
lastChange = "2017-12-19 04:37:43 +0000";
layers = (
{
layerId = "0B1DFD06-3317-40CA-B510-4969A0718C16";
paths = (
{
closed = 1;
nodes = (
"922 81 OFFCURVE",
"863 47 OFFCURVE",
"775 47 CURVE SMOOTH",
"644 47 OFFCURVE",
"569 109 OFFCURVE",
"558 230 CURVE",
"949 230 LINE SMOOTH",
"1014 230 OFFCURVE",
"1086 325 OFFCURVE",
"976 441 CURVE SMOOTH",
"943 475 OFFCURVE",
"883 516 OFFCURVE",
"775 516 CURVE SMOOTH",
"657 516 OFFCURVE",
"580 457 OFFCURVE",
"538 384 CURVE",
"493 477 OFFCURVE",
"411 516 OFFCURVE",
"285 516 CURVE SMOOTH",
"193 516 OFFCURVE",
"132 489 OFFCURVE",
"89 460 CURVE",
"66 447 OFFCURVE",
"66 429 OFFCURVE",
"76 418 CURVE",
"86 407 OFFCURVE",
"106 411 OFFCURVE",
"119 418 CURVE SMOOTH",
"168 446 OFFCURVE",
"214 460 OFFCURVE",
"282 460 CURVE SMOOTH",
"427 460 OFFCURVE",
"515 401 OFFCURVE",
"500 259 CURVE",
"467 349 OFFCURVE",
"299 349 OFFCURVE",
"299 349 CURVE SMOOTH",
"142 349 OFFCURVE",
"50 280 OFFCURVE",
"45 168 CURVE SMOOTH",
"42 93 OFFCURVE",
"95 -7 OFFCURVE",
"285 -7 CURVE SMOOTH",
"380 -7 OFFCURVE",
"472 12 OFFCURVE",
"539 109 CURVE",
"590 35 OFFCURVE",
"664 -9 OFFCURVE",
"775 -9 CURVE SMOOTH",
"879 -9 OFFCURVE",
"953 29 OFFCURVE",
"1001 89 CURVE",
"1012 98 OFFCURVE",
"1014 124 OFFCURVE",
"1002 134 CURVE",
"988 145 OFFCURVE",
"971 138 OFFCURVE",
"956 124 CURVE"
);
},
{
closed = 1;
nodes = (
"866 459 OFFCURVE",
"910 427 OFFCURVE",
"938 403 CURVE SMOOTH",
"982 365 OFFCURVE",
"985 285 OFFCURVE",
"948 285 CURVE SMOOTH",
"559 285 LINE",
"565 331 OFFCURVE",
"601 459 OFFCURVE",
"775 459 CURVE SMOOTH"
);
},
{
closed = 1;
nodes = (
"490 114 OFFCURVE",
"449 42 OFFCURVE",
"290 42 CURVE SMOOTH",
"170 42 OFFCURVE",
"92 85 OFFCURVE",
"98 168 CURVE SMOOTH",
"101 252 OFFCURVE",
"197 296 OFFCURVE",
"296 296 CURVE SMOOTH",
"456 296 OFFCURVE",
"496 230 OFFCURVE",
"493 167 CURVE SMOOTH"
);
}
);
width = 1077;
}
);
note = ae;
unicode = 00E6;
},
{
glyphname = eth;
lastChange = "2017-12-19 04:37:53 +0000";
layers = (
{
layerId = "0B1DFD06-3317-40CA-B510-4969A0718C16";
paths = (
{
closed = 1;
nodes = (
"590 360 LINE SMOOTH",
"590 495 OFFCURVE",
"526 601 OFFCURVE",
"440 659 CURVE",
"506 687 LINE",
"476 723 LINE",
"395 683 LINE",
"357 707 OFFCURVE",
"303 729 OFFCURVE",
"252 739 CURVE",
"223 746 OFFCURVE",
"206 715 OFFCURVE",
"232 700 CURVE",
"267 692 OFFCURVE",
"313 677 OFFCURVE",
"348 657 CURVE",
"283 628 LINE",
"309 595 LINE",
"388 631 LINE",
"456 592 OFFCURVE",
"521 505 OFFCURVE",
"535 404 CURVE",
"508 456 OFFCURVE",
"423 505 OFFCURVE",
"315 505 CURVE SMOOTH",
"151 505 OFFCURVE",
"43 380 OFFCURVE",
"43 246 CURVE SMOOTH",
"43 47 OFFCURVE",
"219 -12 OFFCURVE",
"315 -12 CURVE SMOOTH",
"414 -12 OFFCURVE",
"486 17 OFFCURVE",
"538 82 CURVE",
"538 14 LINE SMOOTH",
"538 -1 OFFCURVE",
"549 -13 OFFCURVE",
"564 -13 CURVE SMOOTH",
"578 -13 OFFCURVE",
"590 -1 OFFCURVE",
"590 14 CURVE SMOOTH"
);
},
{
closed = 1;
nodes = (
"446 65 OFFCURVE",
"390 43 OFFCURVE",
"315 43 CURVE SMOOTH",
"108 43 OFFCURVE",
"98 213 OFFCURVE",
"98 246 CURVE SMOOTH",
"98 354 OFFCURVE",
"183 449 OFFCURVE",
"315 449 CURVE SMOOTH",
"413 449 OFFCURVE",
"533 394 OFFCURVE",
"535 246 CURVE SMOOTH",
"535 243 OFFCURVE",
"538 158 OFFCURVE",
"483 102 CURVE SMOOTH"
);
}
);
width = 651;
}
);
note = eth;
unicode = 00F0;
},
{
color = 0;
glyphname = dcaron;
lastChange = "2017-12-19 04:37:55 +0000";
layers = (
{
layerId = "0B1DFD06-3317-40CA-B510-4969A0718C16";
paths = (
{
closed = 1;
nodes = (
"321 -10 OFFCURVE",
"381 14 OFFCURVE",
"417 74 CURVE",
"422 -4 LINE",
"564 11 LINE",
"564 34 LINE",
"541 34 LINE SMOOTH",
"513 34 OFFCURVE",
"499 44 OFFCURVE",
"499 69 CURVE SMOOTH",
"499 717 LINE",
"474 717 LINE",
"349 672 LINE",
"355 649 LINE",
"365 653 OFFCURVE",
"377 657 OFFCURVE",
"385 657 CURVE SMOOTH",
"394 657 OFFCURVE",
"405 654 OFFCURVE",
"405 636 CURVE SMOOTH",
"405 410 LINE",
"363 467 OFFCURVE",
"298 480 OFFCURVE",
"242 480 CURVE SMOOTH",
"123 480 OFFCURVE",
"31 401 OFFCURVE",
"31 245 CURVE SMOOTH",
"31 60 OFFCURVE",
"118 -10 OFFCURVE",
"243 -10 CURVE SMOOTH"
);
},
{
closed = 1;
nodes = (
"160 28 OFFCURVE",
"124 120 OFFCURVE",
"124 242 CURVE SMOOTH",
"124 372 OFFCURVE",
"176 440 OFFCURVE",
"275 440 CURVE SMOOTH",
"337 440 OFFCURVE",
"406 392 OFFCURVE",
"406 320 CURVE SMOOTH",
"406 168 LINE SMOOTH",
"406 97 OFFCURVE",
"357 28 OFFCURVE",
"269 28 CURVE SMOOTH"
);
},
{
closed = 1;
nodes = (
"630 523 OFFCURVE",
"674 583 OFFCURVE",
"674 646 CURVE SMOOTH",
"674 694 OFFCURVE",
"650 714 OFFCURVE",
"621 714 CURVE SMOOTH",
"592 714 OFFCURVE",
"575 694 OFFCURVE",
"575 670 CURVE SMOOTH",
"575 636 OFFCURVE",
"610 629 OFFCURVE",
"610 594 CURVE SMOOTH",
"610 558 OFFCURVE",
"584 525 OFFCURVE",
"557 499 CURVE",
"574 482 LINE"
);
}
);
width = 686;
}
);
leftKerningGroup = d;
note = dcaron;
unicode = 010F;
},
{
glyphname = dcroat;
lastChange = "2017-12-19 04:37:53 +0000";
layers = (
{
layerId = "0B1DFD06-3317-40CA-B510-4969A0718C16";
paths = (
{
closed = 1;
nodes = (
"595 687 LINE",
"597 800 LINE SMOOTH",
"597 815 OFFCURVE",
"582 827 OFFCURVE",
"568 827 CURVE SMOOTH",
"552 827 OFFCURVE",
"541 815 OFFCURVE",
"541 800 CURVE SMOOTH",
"541 687 LINE",
"410 687 LINE",
"410 638 LINE",
"541 638 LINE",
"541 424 LINE",
"498 477 OFFCURVE",
"429 515 OFFCURVE",
"322 515 CURVE SMOOTH",
"145 515 OFFCURVE",
"49 400 OFFCURVE",
"49 256 CURVE SMOOTH",
"49 109 OFFCURVE",
"148 -3 OFFCURVE",
"322 -3 CURVE SMOOTH",
"420 -3 OFFCURVE",
"493 27 OFFCURVE",
"542 91 CURVE",
"542 23 LINE SMOOTH",
"542 7 OFFCURVE",
"555 -6 OFFCURVE",
"569 -6 CURVE SMOOTH",
"584 -6 OFFCURVE",
"597 7 OFFCURVE",
"597 23 CURVE SMOOTH",
"597 638 LINE",
"682 638 LINE",
"682 687 LINE"
);
},
{
closed = 1;
nodes = (
"104 374 OFFCURVE",
"181 459 OFFCURVE",
"322 459 CURVE SMOOTH",
"424 459 OFFCURVE",
"545 404 OFFCURVE",
"541 256 CURVE SMOOTH",
"541 139 OFFCURVE",
"464 53 OFFCURVE",
"322 53 CURVE SMOOTH",
"114 53 OFFCURVE",
"104 221 OFFCURVE",
"104 256 CURVE SMOOTH"
);
}
);
width = 682;
}
);
note = dslash;
unicode = 0111;
},
{
color = 0;
glyphname = schwa;
lastChange = "2017-12-19 04:38:01 +0000";
layers = (
{
layerId = "0B1DFD06-3317-40CA-B510-4969A0718C16";
paths = (
{
closed = 1;
nodes = (
"396 -10 OFFCURVE",
"487 83 OFFCURVE",
"487 236 CURVE SMOOTH",
"487 393 OFFCURVE",
"392 480 OFFCURVE",
"246 480 CURVE SMOOTH",
"112 480 OFFCURVE",
"47 407 OFFCURVE",
"36 303 CURVE",
"65 303 LINE",
"83 407 OFFCURVE",
"154 444 OFFCURVE",
"225 444 CURVE SMOOTH",
"331 444 OFFCURVE",
"392 360 OFFCURVE",
"392 234 CURVE SMOOTH",
"392 121 OFFCURVE",
"343 28 OFFCURVE",
"242 28 CURVE SMOOTH",
"147 28 OFFCURVE",
"117 112 OFFCURVE",
"115 173 CURVE",
"403 173 LINE",
"403 212 LINE",
"32 212 LINE",
"32 189 LINE SMOOTH",
"32 77 OFFCURVE",
"100 -10 OFFCURVE",
"246 -10 CURVE SMOOTH"
);
}
);
width = 521;
}
);
note = schwa;
unicode = 0259;
},
{
color = 0;
glyphname = hbar;
lastChange = "2017-12-19 04:37:59 +0000";
layers = (
{
layerId = "0B1DFD06-3317-40CA-B510-4969A0718C16";
paths = (
{
closed = 1;
nodes = (
"600 0 LINE",
"600 25 LINE",
"582 25 LINE SMOOTH",
"552 25 OFFCURVE",
"528 34 OFFCURVE",
"528 57 CURVE SMOOTH",
"528 344 LINE SMOOTH",
"528 424 OFFCURVE",
"471 480 OFFCURVE",
"357 480 CURVE SMOOTH",
"265 480 OFFCURVE",
"194 424 OFFCURVE",
"178 373 CURVE",
"178 285 LINE",
"188 285 LINE",
"188 389 OFFCURVE",
"264 439 OFFCURVE",
"330 439 CURVE SMOOTH",
"396 439 OFFCURVE",
"434 404 OFFCURVE",
"434 332 CURVE SMOOTH",
"434 57 LINE SMOOTH",
"434 34 OFFCURVE",
"411 25 OFFCURVE",
"383 25 CURVE SMOOTH",
"367 25 LINE",
"367 0 LINE"
);
},
{
closed = 1;
nodes = (
"255 0 LINE",
"255 25 LINE",
"240 25 LINE SMOOTH",
"212 25 OFFCURVE",
"188 34 OFFCURVE",
"188 57 CURVE SMOOTH",
"188 717 LINE",
"163 717 LINE",
"37 672 LINE",
"44 649 LINE",
"54 653 OFFCURVE",
"66 657 OFFCURVE",
"73 657 CURVE SMOOTH",
"83 657 OFFCURVE",
"94 654 OFFCURVE",
"94 636 CURVE SMOOTH",
"94 57 LINE SMOOTH",
"94 34 OFFCURVE",
"71 25 OFFCURVE",
"41 25 CURVE SMOOTH",
"22 25 LINE",
"22 0 LINE"
);
},
{
closed = 1;
nodes = (
"339 559 LINE",
"339 594 LINE",
"40 594 LINE",
"40 559 LINE"
);
}
);
width = 622;
}
);
note = hbar;
rightKerningGroup = h;
unicode = 0127;
},
{
glyphname = idotless;
lastChange = "2017-12-19 04:38:08 +0000";
layers = (
{
layerId = "0B1DFD06-3317-40CA-B510-4969A0718C16";
paths = (
{
closed = 1;
nodes = (
"116 475 LINE SMOOTH",
"116 500 OFFCURVE",
"108 513 OFFCURVE",
"91 513 CURVE SMOOTH",
"72 513 OFFCURVE",
"63 500 OFFCURVE",
"63 475 CURVE SMOOTH",
"63 33 LINE SMOOTH",
"63 7 OFFCURVE",
"72 -6 OFFCURVE",
"91 -6 CURVE SMOOTH",
"108 -6 OFFCURVE",
"116 7 OFFCURVE",
"116 33 CURVE SMOOTH"
);
}
);
width = 181;
}
);
note = dotlessi;
unicode = 0131;
},
{
color = 0;
glyphname = ij;
lastChange = "2017-12-19 04:38:10 +0000";
layers = (
{
layerId = "0B1DFD06-3317-40CA-B510-4969A0718C16";
paths = (
{
closed = 1;
nodes = (
"472 -107 OFFCURVE",
"516 -25 OFFCURVE",
"516 102 CURVE SMOOTH",
"516 473 LINE",
"491 473 LINE",
"365 428 LINE",
"372 406 LINE",
"383 410 OFFCURVE",
"394 414 OFFCURVE",
"402 414 CURVE SMOOTH",
"411 414 OFFCURVE",
"423 410 OFFCURVE",
"423 393 CURVE SMOOTH",
"423 97 LINE SMOOTH",
"423 -4 OFFCURVE",
"418 -72 OFFCURVE",
"326 -110 CURVE",
"331 -132 LINE"
);
},
{
closed = 1;
nodes = (
"265 0 LINE",
"265 25 LINE",
"246 25 LINE SMOOTH",
"217 25 OFFCURVE",
"193 34 OFFCURVE",
"193 57 CURVE SMOOTH",
"193 475 LINE",
"168 475 LINE",
"42 431 LINE",
"49 408 LINE",
"59 411 OFFCURVE",
"71 416 OFFCURVE",
"78 416 CURVE SMOOTH",
"88 416 OFFCURVE",
"99 412 OFFCURVE",
"99 394 CURVE SMOOTH",
"99 57 LINE SMOOTH",
"99 34 OFFCURVE",
"76 25 OFFCURVE",
"46 25 CURVE SMOOTH",
"27 25 LINE",
"27 0 LINE"
);
},
{
closed = 1;
nodes = (
"171 561 OFFCURVE",
"194 584 OFFCURVE",
"194 616 CURVE SMOOTH",
"194 649 OFFCURVE",
"171 671 OFFCURVE",
"138 671 CURVE SMOOTH",
"103 671 OFFCURVE",
"81 649 OFFCURVE",
"81 616 CURVE SMOOTH",
"81 584 OFFCURVE",
"103 561 OFFCURVE",
"138 561 CURVE SMOOTH"
);
},
{
closed = 1;
nodes = (
"499 561 OFFCURVE",
"522 584 OFFCURVE",
"522 616 CURVE SMOOTH",
"522 649 OFFCURVE",
"499 671 OFFCURVE",
"465 671 CURVE SMOOTH",
"431 671 OFFCURVE",
"409 649 OFFCURVE",
"409 616 CURVE SMOOTH",
"409 584 OFFCURVE",
"431 561 OFFCURVE",
"465 561 CURVE SMOOTH"
);
}
);
width = 598;
}
);
note = ij;
unicode = 0133;
},
{
color = 0;
glyphname = jdotless;
lastChange = "2017-12-19 04:38:13 +0000";
layers = (
{
anchors = (
{
name = bottom;
position = "{151, 0}";
},
{
name = top;
position = "{151, 470}";
}
);
layerId = "0B1DFD06-3317-40CA-B510-4969A0718C16";
paths = (
{
closed = 1;
nodes = (
"176 -107 OFFCURVE",
"220 -25 OFFCURVE",
"220 102 CURVE SMOOTH",
"220 473 LINE",
"195 473 LINE",
"69 428 LINE",
"76 406 LINE",
"86 410 OFFCURVE",
"98 414 OFFCURVE",
"106 414 CURVE SMOOTH",
"115 414 OFFCURVE",
"126 410 OFFCURVE",
"126 393 CURVE SMOOTH",
"126 97 LINE SMOOTH",
"126 -3 OFFCURVE",
"123 -71 OFFCURVE",
"31 -110 CURVE",
"35 -132 LINE"
);
}
);
width = 302;
}
);
leftKerningGroup = j;
note = dotlessj;
unicode = 0237;
},
{
color = 0;
glyphname = kgreenlandic;
lastChange = "2017-12-19 04:38:15 +0000";
layers = (
{
layerId = "0B1DFD06-3317-40CA-B510-4969A0718C16";
paths = (
{
closed = 1;
nodes = (
"257 0 LINE",
"257 25 LINE",
"240 25 LINE SMOOTH",
"211 25 OFFCURVE",
"187 35 OFFCURVE",
"187 57 CURVE SMOOTH",
"187 487 LINE",
"162 487 LINE",
"36 442 LINE",
"43 419 LINE",
"54 423 OFFCURVE",
"65 427 OFFCURVE",
"73 427 CURVE SMOOTH",
"82 427 OFFCURVE",
"94 424 OFFCURVE",
"94 406 CURVE SMOOTH",
"94 57 LINE SMOOTH",
"94 34 OFFCURVE",
"70 25 OFFCURVE",
"40 25 CURVE SMOOTH",
"21 25 LINE",
"21 0 LINE"
);
},
{
closed = 1;
nodes = (
"577 0 LINE",
"577 25 LINE",
"550 25 LINE SMOOTH",
"530 25 OFFCURVE",
"496 35 OFFCURVE",
"475 55 CURVE SMOOTH",
"247 266 LINE",
"185 217 LINE",
"421 0 LINE"
);
},
{
closed = 1;
nodes = (
"446 417 LINE SMOOTH",
"463 432 OFFCURVE",
"488 444 OFFCURVE",
"506 444 CURVE SMOOTH",
"528 444 LINE",
"528 470 LINE",
"332 470 LINE",
"332 444 LINE",
"354 444 LINE SMOOTH",
"380 444 OFFCURVE",
"401 428 OFFCURVE",
"380 411 CURVE SMOOTH",
"155 225 LINE",
"155 173 LINE"
);
}
);
width = 591;
}
);
note = kgreenlandic;
rightKerningGroup = k;
unicode = 0138;
},
{
glyphname = lslash;
lastChange = "2017-12-19 04:38:41 +0000";
layers = (
{
layerId = "0B1DFD06-3317-40CA-B510-4969A0718C16";
paths = (
{
closed = 1;
nodes = (
"142 411 LINE",
"142 788 LINE SMOOTH",
"142 814 OFFCURVE",
"132 827 OFFCURVE",
"116 827 CURVE SMOOTH",
"99 827 OFFCURVE",
"91 814 OFFCURVE",
"91 788 CURVE SMOOTH",
"91 385 LINE",
"14 341 LINE",
"14 293 LINE",
"91 338 LINE",
"91 37 LINE SMOOTH",
"91 12 OFFCURVE",
"99 -1 OFFCURVE",
"116 -1 CURVE SMOOTH",
"132 -1 OFFCURVE",
"142 12 OFFCURVE",
"142 37 CURVE SMOOTH",
"142 364 LINE",
"220 411 LINE",
"220 460 LINE"
);
}
);
width = 233;
}
);
note = lslash;
unicode = 0142;
},
{
color = 0;
glyphname = eng;
lastChange = "2017-12-19 04:38:44 +0000";
layers = (
{
layerId = "0B1DFD06-3317-40CA-B510-4969A0718C16";
paths = (
{
closed = 1;
nodes = (
"478 -215 OFFCURVE",
"529 -140 OFFCURVE",
"529 -17 CURVE SMOOTH",
"529 344 LINE SMOOTH",
"529 424 OFFCURVE",
"472 480 OFFCURVE",
"358 480 CURVE SMOOTH",
"266 480 OFFCURVE",
"195 424 OFFCURVE",
"178 373 CURVE",
"178 285 LINE",
"188 285 LINE",
"188 389 OFFCURVE",
"264 439 OFFCURVE",
"331 439 CURVE SMOOTH",
"395 439 OFFCURVE",
"435 404 OFFCURVE",
"435 332 CURVE SMOOTH",
"435 -58 LINE SMOOTH",
"435 -128 OFFCURVE",
"413 -186 OFFCURVE",
"339 -215 CURVE",
"344 -238 LINE"
);
},
{
closed = 1;
nodes = (
"255 0 LINE",
"255 25 LINE",
"240 25 LINE SMOOTH",
"205 25 OFFCURVE",
"188 37 OFFCURVE",
"188 66 CURVE SMOOTH",
"188 473 LINE",
"166 473 LINE",
"38 428 LINE",
"44 406 LINE",
"54 410 OFFCURVE",
"66 414 OFFCURVE",
"74 414 CURVE SMOOTH",
"83 414 OFFCURVE",
"94 410 OFFCURVE",
"94 393 CURVE SMOOTH",
"94 66 LINE SMOOTH",
"94 37 OFFCURVE",
"77 25 OFFCURVE",
"41 25 CURVE SMOOTH",
"22 25 LINE",
"22 0 LINE"
);
}
);
width = 609;
}
);
leftKerningGroup = m;
note = eng;
rightKerningGroup = m;
unicode = 014B;
},
{
glyphname = ohorn;
lastChange = "2017-12-19 04:38:59 +0000";
layers = (
{
layerId = "0B1DFD06-3317-40CA-B510-4969A0718C16";
paths = (
{
closed = 1;
nodes = (
"505 470 OFFCURVE",
"423 518 OFFCURVE",
"316 518 CURVE SMOOTH",
"115 518 OFFCURVE",
"43 384 OFFCURVE",
"43 259 CURVE SMOOTH",
"43 96 OFFCURVE",
"168 0 OFFCURVE",
"316 0 CURVE SMOOTH",
"469 0 OFFCURVE",
"590 88 OFFCURVE",
"590 259 CURVE SMOOTH",
"590 312 OFFCURVE",
"582 335 OFFCURVE",
"565 372 CURVE",
"643 427 OFFCURVE",
"651 489 OFFCURVE",
"651 532 CURVE",
"604 532 LINE",
"604 460 OFFCURVE",
"571 427 OFFCURVE",
"545 410 CURVE"
);
},
{
closed = 1;
nodes = (
"539 224 OFFCURVE",
"529 53 OFFCURVE",
"316 53 CURVE SMOOTH",
"188 53 OFFCURVE",
"93 132 OFFCURVE",
"93 259 CURVE SMOOTH",
"93 393 OFFCURVE",
"196 464 OFFCURVE",
"316 464 CURVE SMOOTH",
"443 464 OFFCURVE",
"539 385 OFFCURVE",
"539 259 CURVE SMOOTH"
);
}
);
width = 634;
}
);
note = ohorn;
unicode = 01A1;
},
{
glyphname = oslash;
lastChange = "2017-12-19 04:39:37 +0000";
layers = (
{
layerId = "0B1DFD06-3317-40CA-B510-4969A0718C16";
paths = (
{
closed = 1;
nodes = (
"475 456 OFFCURVE",
"456 469 OFFCURVE",
"437 482 CURVE",
"459 531 LINE",
"463 539 OFFCURVE",
"459 552 OFFCURVE",
"449 557 CURVE",
"440 561 OFFCURVE",
"426 557 OFFCURVE",
"421 548 CURVE SMOOTH",
"398 499 LINE",
"371 508 OFFCURVE",
"342 515 OFFCURVE",
"313 515 CURVE SMOOTH",
"165 515 OFFCURVE",
"59 397 OFFCURVE",
"59 253 CURVE SMOOTH",
"59 162 OFFCURVE",
"106 72 OFFCURVE",
"187 30 CURVE",
"164 -23 LINE",
"158 -33 OFFCURVE",
"164 -45 OFFCURVE",
"173 -49 CURVE",
"183 -53 OFFCURVE",
"194 -49 OFFCURVE",
"198 -39 CURVE",
"223 10 LINE",
"308 -24 OFFCURVE",
"423 -4 OFFCURVE",
"490 66 CURVE SMOOTH",
"598 173 OFFCURVE",
"590 341 OFFCURVE",
"490 439 CURVE"
);
},
{
closed = 1;
nodes = (
"127 138 OFFCURVE",
"105 196 OFFCURVE",
"105 253 CURVE SMOOTH",
"105 362 OFFCURVE",
"175 467 OFFCURVE",
"312 467 CURVE SMOOTH",
"335 467 OFFCURVE",
"358 464 OFFCURVE",
"380 456 CURVE",
"206 69 LINE",
"191 76 OFFCURVE",
"178 86 OFFCURVE",
"168 98 CURVE"
);
},
{
closed = 1;
nodes = (
"292 40 OFFCURVE",
"265 46 OFFCURVE",
"242 52 CURVE",
"417 437 LINE",
"433 430 OFFCURVE",
"447 418 OFFCURVE",
"460 407 CURVE",
"592 276 OFFCURVE",
"500 40 OFFCURVE",
"316 40 CURVE SMOOTH"
);
}
);
width = 624;
}
);
note = oslash;
unicode = 00F8;
},
{
glyphname = oe;
lastChange = "2017-12-19 04:39:45 +0000";
layers = (
{
layerId = "0B1DFD06-3317-40CA-B510-4969A0718C16";
paths = (
{
closed = 1;
nodes = (
"1028 147 OFFCURVE",
"1011 139 OFFCURVE",
"999 124 CURVE",
"963 79 OFFCURVE",
"903 47 OFFCURVE",
"817 47 CURVE SMOOTH",
"699 47 OFFCURVE",
"607 115 OFFCURVE",
"598 230 CURVE",
"999 230 LINE SMOOTH",
"1054 230 OFFCURVE",
"1130 326 OFFCURVE",
"1018 443 CURVE SMOOTH",
"986 476 OFFCURVE",
"928 516 OFFCURVE",
"820 516 CURVE SMOOTH",
"696 516 OFFCURVE",
"608 452 OFFCURVE",
"569 372 CURVE",
"529 462 OFFCURVE",
"440 518 OFFCURVE",
"321 518 CURVE SMOOTH",
"119 518 OFFCURVE",
"47 384 OFFCURVE",
"47 259 CURVE SMOOTH",
"47 96 OFFCURVE",
"173 0 OFFCURVE",
"321 0 CURVE SMOOTH",
"430 0 OFFCURVE",
"523 45 OFFCURVE",
"567 135 CURVE",
"607 45 OFFCURVE",
"696 -9 OFFCURVE",
"817 -9 CURVE SMOOTH",
"920 -9 OFFCURVE",
"995 29 OFFCURVE",
"1041 89 CURVE",
"1054 98 OFFCURVE",
"1054 124 OFFCURVE",
"1043 135 CURVE"
);
},
{
closed = 1;
nodes = (
"544 259 LINE",
"541 198 OFFCURVE",
"518 53 OFFCURVE",
"321 53 CURVE SMOOTH",
"193 53 OFFCURVE",
"98 132 OFFCURVE",
"98 259 CURVE SMOOTH",
"98 393 OFFCURVE",
"200 464 OFFCURVE",
"321 464 CURVE SMOOTH",
"444 464 OFFCURVE",
"539 388 OFFCURVE",
"544 266 CURVE"
);
},
{
closed = 1;
nodes = (
"600 285 LINE",
"605 325 OFFCURVE",
"646 460 OFFCURVE",
"820 460 CURVE SMOOTH",
"909 460 OFFCURVE",
"951 427 OFFCURVE",
"978 404 CURVE SMOOTH",
"1021 365 OFFCURVE",
"1025 285 OFFCURVE",
"989 285 CURVE SMOOTH"
);
}
);
width = 1125;
}
);
note = oe;
unicode = 0153;
},
{
glyphname = thorn;
lastChange = "2017-12-19 04:39:45 +0000";
layers = (
{
layerId = "0B1DFD06-3317-40CA-B510-4969A0718C16";
paths = (
{
closed = 1;
nodes = (
"257 526 OFFCURVE",
"171 466 OFFCURVE",
"144 414 CURVE",
"144 682 LINE SMOOTH",
"144 707 OFFCURVE",
"134 719 OFFCURVE",
"116 719 CURVE SMOOTH",
"98 719 OFFCURVE",
"89 707 OFFCURVE",
"89 682 CURVE SMOOTH",
"89 -188 LINE SMOOTH",
"89 -214 OFFCURVE",
"98 -226 OFFCURVE",
"116 -226 CURVE SMOOTH",
"134 -226 OFFCURVE",
"144 -214 OFFCURVE",
"144 -188 CURVE SMOOTH",
"144 96 LINE",
"174 20 OFFCURVE",
"273 -16 OFFCURVE",
"339 -16 CURVE SMOOTH",
"502 -16 OFFCURVE",
"595 92 OFFCURVE",
"610 224 CURVE SMOOTH",
"623 367 OFFCURVE",
"529 526 OFFCURVE",
"348 526 CURVE SMOOTH"
);
},
{
closed = 1;
nodes = (
"196 42 OFFCURVE",
"122 142 OFFCURVE",
"137 288 CURVE SMOOTH",
"147 383 OFFCURVE",
"233 464 OFFCURVE",
"347 470 CURVE SMOOTH",
"472 476 OFFCURVE",
"559 365 OFFCURVE",
"559 263 CURVE SMOOTH",
"559 118 OFFCURVE",
"469 27 OFFCURVE",
"338 35 CURVE SMOOTH"
);
}
);
width = 661;
}
);
note = thorn;
unicode = 00FE;
},
{
glyphname = germandbls;
lastChange = "2017-12-19 04:39:54 +0000";
layers = (
{
layerId = "0B1DFD06-3317-40CA-B510-4969A0718C16";
paths = (
{
closed = 1;
nodes = (
"456 667 OFFCURVE",
"391 725 OFFCURVE",
"269 725 CURVE SMOOTH",
"154 725 OFFCURVE",
"93 646 OFFCURVE",
"93 546 CURVE SMOOTH",
"93 20 LINE SMOOTH",
"93 9 OFFCURVE",
"106 -1 OFFCURVE",
"118 -1 CURVE SMOOTH",
"132 -1 OFFCURVE",
"142 9 OFFCURVE",
"142 20 CURVE",
"142 20 LINE",
"142 538 LINE SMOOTH",
"142 634 OFFCURVE",
"177 654 OFFCURVE",
"197 666 CURVE SMOOTH",
"240 692 OFFCURVE",
"316 689 OFFCURVE",
"357 663 CURVE SMOOTH",
"383 646 OFFCURVE",
"410 617 OFFCURVE",
"408 564 CURVE SMOOTH",
"406 490 OFFCURVE",
"339 485 OFFCURVE",
"289 485 CURVE SMOOTH",
"194 485 LINE",
"194 440 LINE",
"285 440 LINE SMOOTH",
"391 440 OFFCURVE",
"483 351 OFFCURVE",
"486 243 CURVE SMOOTH",
"486 135 OFFCURVE",
"416 47 OFFCURVE",
"301 47 CURVE SMOOTH",
"204 47 LINE SMOOTH",
"193 47 OFFCURVE",
"183 36 OFFCURVE",
"183 24 CURVE SMOOTH",
"183 12 OFFCURVE",
"193 3 OFFCURVE",
"204 3 CURVE SMOOTH",
"312 3 LINE SMOOTH",
"447 3 OFFCURVE",
"531 109 OFFCURVE",
"531 239 CURVE SMOOTH",
"531 342 OFFCURVE",
"479 416 OFFCURVE",
"384 457 CURVE",
"414 464 OFFCURVE",
"456 513 OFFCURVE",
"456 572 CURVE SMOOTH"
);
}
);
width = 578;
}
);
note = uni00DF;
unicode = 00DF;
},
{
glyphname = tbar;
lastChange = "2017-12-18 09:29:31 +0000";
layers = (
{
components = (
{
name = t;
}
);
layerId = "0B1DFD06-3317-40CA-B510-4969A0718C16";
paths = (
{
closed = 1;
nodes = (
"321 260 LINE",
"321 297 LINE",
"33 297 LINE",
"33 260 LINE"
);
}
);
width = 397;
}
);
leftKerningGroup = t;
note = tbar;
rightKerningGroup = t;
unicode = 0167;
},
{
glyphname = uhorn;
lastChange = "2017-12-19 04:40:02 +0000";
layers = (
{
layerId = "0B1DFD06-3317-40CA-B510-4969A0718C16";
paths = (
{
closed = 1;
nodes = (
"577 486 LINE SMOOTH",
"577 502 OFFCURVE",
"565 513 OFFCURVE",
"551 513 CURVE SMOOTH",
"535 513 OFFCURVE",
"523 502 OFFCURVE",
"523 486 CURVE SMOOTH",
"523 252 LINE SMOOTH",
"523 186 OFFCURVE",
"508 135 OFFCURVE",
"475 102 CURVE",
"441 66 OFFCURVE",
"388 49 OFFCURVE",
"319 49 CURVE SMOOTH",
"252 49 OFFCURVE",
"200 66 OFFCURVE",
"167 102 CURVE SMOOTH",
"125 145 OFFCURVE",
"116 207 OFFCURVE",
"116 252 CURVE SMOOTH",
"116 486 LINE SMOOTH",
"116 502 OFFCURVE",
"104 513 OFFCURVE",
"89 513 CURVE SMOOTH",
"75 513 OFFCURVE",
"62 502 OFFCURVE",
"62 486 CURVE SMOOTH",
"62 252 LINE SMOOTH",
"62 197 OFFCURVE",
"73 119 OFFCURVE",
"128 63 CURVE SMOOTH",
"173 16 OFFCURVE",
"237 -7 OFFCURVE",
"319 -7 CURVE SMOOTH",
"416 -7 OFFCURVE",
"483 30 OFFCURVE",
"525 91 CURVE",
"525 22 LINE SMOOTH",
"525 6 OFFCURVE",
"536 -6 OFFCURVE",
"551 -6 CURVE SMOOTH",
"567 -6 OFFCURVE",
"577 6 OFFCURVE",
"577 22 CURVE SMOOTH",
"577 345 LINE",
"657 401 OFFCURVE",
"672 476 OFFCURVE",
"672 519 CURVE",
"624 519 LINE",
"624 462 OFFCURVE",
"603 421 OFFCURVE",
"577 393 CURVE"
);
}
);
width = 643;
}
);
note = uhorn;
unicode = 01B0;
},
{
glyphname = fi;
lastChange = "2017-12-19 04:40:19 +0000";
layers = (
{
layerId = "0B1DFD06-3317-40CA-B510-4969A0718C16";
paths = (
{
closed = 1;
nodes = (
"357 475 LINE SMOOTH",
"357 499 OFFCURVE",
"345 508 OFFCURVE",
"319 508 CURVE SMOOTH",
"217 508 LINE SMOOTH",
"217 508 OFFCURVE",
"157 508 OFFCURVE",
"128 462 CURVE",
"128 620 LINE SMOOTH",
"128 709 OFFCURVE",
"155 772 OFFCURVE",
"257 772 CURVE SMOOTH",
"301 772 LINE SMOOTH",
"326 772 OFFCURVE",
"338 782 OFFCURVE",
"338 801 CURVE SMOOTH",
"338 818 OFFCURVE",
"326 827 OFFCURVE",
"301 827 CURVE SMOOTH",
"269 827 LINE SMOOTH",
"144 827 OFFCURVE",
"75 751 OFFCURVE",
"75 620 CURVE SMOOTH",
"75 37 LINE SMOOTH",
"75 10 OFFCURVE",
"83 -1 OFFCURVE",
"102 -1 CURVE SMOOTH",
"118 -1 OFFCURVE",
"128 10 OFFCURVE",
"128 37 CURVE SMOOTH",
"128 345 LINE SMOOTH",
"128 384 OFFCURVE",
"148 453 OFFCURVE",
"213 453 CURVE SMOOTH",
"303 453 LINE",
"303 33 LINE SMOOTH",
"303 7 OFFCURVE",
"312 -6 OFFCURVE",
"331 -6 CURVE SMOOTH",
"348 -6 OFFCURVE",
"357 7 OFFCURVE",
"357 33 CURVE SMOOTH"
);
}
);
width = 420;
}
);
note = fi;
unicode = FB01;
},
{
glyphname = fl;
lastChange = "2017-12-19 04:40:22 +0000";
layers = (
{
layerId = "0B1DFD06-3317-40CA-B510-4969A0718C16";
paths = (
{
closed = 1;
nodes = (
"378 789 LINE SMOOTH",
"378 818 OFFCURVE",
"367 827 OFFCURVE",
"341 827 CURVE SMOOTH",
"269 827 LINE SMOOTH",
"144 827 OFFCURVE",
"75 751 OFFCURVE",
"75 620 CURVE SMOOTH",
"75 37 LINE SMOOTH",
"75 10 OFFCURVE",
"83 -1 OFFCURVE",
"102 -1 CURVE SMOOTH",
"118 -1 OFFCURVE",
"128 10 OFFCURVE",
"128 37 CURVE SMOOTH",
"128 345 LINE SMOOTH",
"128 384 OFFCURVE",
"144 453 OFFCURVE",
"209 453 CURVE SMOOTH",
"249 453 LINE SMOOTH",
"275 453 OFFCURVE",
"286 463 OFFCURVE",
"286 482 CURVE SMOOTH",
"286 499 OFFCURVE",
"275 508 OFFCURVE",
"249 508 CURVE SMOOTH",
"213 508 LINE SMOOTH",
"213 508 OFFCURVE",
"157 508 OFFCURVE",
"128 462 CURVE",
"128 620 LINE SMOOTH",
"128 709 OFFCURVE",
"155 772 OFFCURVE",
"257 772 CURVE SMOOTH",
"325 772 LINE",
"325 39 LINE SMOOTH",
"325 13 OFFCURVE",
"335 0 OFFCURVE",
"352 0 CURVE SMOOTH",
"370 0 OFFCURVE",
"378 13 OFFCURVE",
"378 39 CURVE SMOOTH"
);
}
);
width = 443;
}
);
note = fl;
unicode = FB02;
},
{
glyphname = ordfeminine;
lastChange = "2017-12-19 04:40:22 +0000";
layers = (
{
layerId = "0B1DFD06-3317-40CA-B510-4969A0718C16";
paths = (
{
closed = 1;
nodes = (
"220 296 OFFCURVE",
"262 309 OFFCURVE",
"290 336 CURVE",
"290 329 OFFCURVE",
"290 322 OFFCURVE",
"290 322 CURVE",
"289 311 OFFCURVE",
"296 301 OFFCURVE",
"306 301 CURVE SMOOTH",
"319 301 OFFCURVE",
"328 309 OFFCURVE",
"328 322 CURVE SMOOTH",
"328 470 LINE SMOOTH",
"328 567 OFFCURVE",
"278 610 OFFCURVE",
"178 610 CURVE SMOOTH",
"137 610 OFFCURVE",
"96 600 OFFCURVE",
"63 578 CURVE SMOOTH",
"55 572 OFFCURVE",
"45 555 OFFCURVE",
"58 546 CURVE",
"60 542 OFFCURVE",
"68 536 OFFCURVE",
"86 545 CURVE",
"114 559 OFFCURVE",
"138 569 OFFCURVE",
"177 569 CURVE SMOOTH",
"249 569 OFFCURVE",
"289 541 OFFCURVE",
"290 475 CURVE",
"276 490 OFFCURVE",
"247 516 OFFCURVE",
"181 516 CURVE SMOOTH",
"96 516 OFFCURVE",
"35 475 OFFCURVE",
"35 407 CURVE SMOOTH",
"35 329 OFFCURVE",
"101 296 OFFCURVE",
"174 296 CURVE SMOOTH"
);
},
{
closed = 1;
nodes = (
"223 473 OFFCURVE",
"285 460 OFFCURVE",
"285 404 CURVE",
"283 390 OFFCURVE",
"275 336 OFFCURVE",
"177 336 CURVE SMOOTH",
"116 336 OFFCURVE",
"75 360 OFFCURVE",
"75 404 CURVE SMOOTH",
"75 450 OFFCURVE",
"131 473 OFFCURVE",
"180 473 CURVE SMOOTH"
);
}
);
width = 370;
}
);
note = ordfeminine;
unicode = 00AA;
},
{
glyphname = ordmasculine;
lastChange = "2017-12-19 04:40:22 +0000";
layers = (
{
layerId = "0B1DFD06-3317-40CA-B510-4969A0718C16";
paths = (
{
closed = 1;
nodes = (
"367 535 OFFCURVE",
"301 613 OFFCURVE",
"191 613 CURVE SMOOTH",
"105 613 OFFCURVE",
"19 546 OFFCURVE",
"19 437 CURVE SMOOTH",
"19 341 OFFCURVE",
"92 269 OFFCURVE",
"191 269 CURVE SMOOTH",
"269 269 OFFCURVE",
"367 321 OFFCURVE",
"367 443 CURVE SMOOTH"
);
},
{
closed = 1;
nodes = (
"319 354 OFFCURVE",
"256 312 OFFCURVE",
"193 312 CURVE SMOOTH",
"134 312 OFFCURVE",
"68 354 OFFCURVE",
"68 439 CURVE SMOOTH",
"68 503 OFFCURVE",
"109 569 OFFCURVE",
"193 569 CURVE SMOOTH",
"280 569 OFFCURVE",
"319 498 OFFCURVE",
"319 440 CURVE SMOOTH"
);
}
);
width = 385;
}
);
note = ordmasculine;
unicode = 00BA;
},
{
color = 0;
glyphname = nmod;
lastChange = "2017-12-19 04:40:24 +0000";
layers = (
{
layerId = "0B1DFD06-3317-40CA-B510-4969A0718C16";
paths = (
{
closed = 1;
nodes = (
"410 378 LINE",
"410 397 LINE",
"392 397 LINE SMOOTH",
"368 397 OFFCURVE",
"350 405 OFFCURVE",
"350 424 CURVE SMOOTH",
"350 599 LINE SMOOTH",
"350 660 OFFCURVE",
"323 708 OFFCURVE",
"240 708 CURVE SMOOTH",
"168 708 OFFCURVE",
"128 658 OFFCURVE",
"116 601 CURVE",
"116 548 LINE",
"135 548 LINE",
"135 628 OFFCURVE",
"173 677 OFFCURVE",
"221 677 CURVE SMOOTH",
"266 677 OFFCURVE",
"281 652 OFFCURVE",
"281 595 CURVE SMOOTH",
"281 424 LINE SMOOTH",
"281 405 OFFCURVE",
"264 397 OFFCURVE",
"239 397 CURVE SMOOTH",
"229 397 LINE",
"229 378 LINE"
);
},
{
closed = 1;
nodes = (
"187 378 LINE",
"187 397 LINE",
"177 397 LINE SMOOTH",
"152 397 OFFCURVE",
"135 405 OFFCURVE",
"135 424 CURVE SMOOTH",
"135 706 LINE",
"114 706 LINE",
"17 670 LINE",
"22 652 LINE",
"30 655 OFFCURVE",
"42 659 OFFCURVE",
"50 659 CURVE SMOOTH",
"58 659 OFFCURVE",
"66 656 OFFCURVE",
"66 643 CURVE SMOOTH",
"66 424 LINE SMOOTH",
"66 405 OFFCURVE",
"48 397 OFFCURVE",
"23 397 CURVE SMOOTH",
"6 397 LINE",
"6 378 LINE"
);
}
);
width = 416;
}
);
note = uni207F;
unicode = 207F;
},
{
glyphname = Delta;
lastChange = "2017-12-19 09:40:29 +0000";
layers = (
{
layerId = "0B1DFD06-3317-40CA-B510-4969A0718C16";
paths = (
{
closed = 1;
nodes = (
"289 657 LINE",
"282 657 LINE",
"17 0 LINE",
"555 0 LINE"
);
},
{
closed = 1;
nodes = (
"477 53 LINE",
"93 53 LINE",
"285 535 LINE"
);
}
);
width = 574;
}
);
note = Delta;
unicode = 0394;
},
{
glyphname = Omega;
lastChange = "2017-12-19 09:39:43 +0000";
layers = (
{
layerId = "0B1DFD06-3317-40CA-B510-4969A0718C16";
paths = (
{
closed = 1;
nodes = (
"301 0 LINE",
"301 170 LINE",
"190 191 OFFCURVE",
"108 299 OFFCURVE",
"108 400 CURVE SMOOTH",
"108 529 OFFCURVE",
"227 633 OFFCURVE",
"360 633 CURVE SMOOTH",
"496 633 OFFCURVE",
"607 531 OFFCURVE",
"607 400 CURVE SMOOTH",
"607 296 OFFCURVE",
"523 191 OFFCURVE",
"414 170 CURVE",
"414 0 LINE",
"624 0 LINE SMOOTH",
"640 0 OFFCURVE",
"656 13 OFFCURVE",
"656 27 CURVE SMOOTH",
"656 40 OFFCURVE",
"640 52 OFFCURVE",
"624 52 CURVE SMOOTH",
"444 52 LINE",
"444 158 LINE",
"575 177 OFFCURVE",
"669 262 OFFCURVE",
"669 400 CURVE SMOOTH",
"669 569 OFFCURVE",
"512 660 OFFCURVE",
"360 660 CURVE SMOOTH",
"209 660 OFFCURVE",
"45 571 OFFCURVE",
"45 400 CURVE SMOOTH",
"45 266 OFFCURVE",
"142 173 OFFCURVE",
"270 158 CURVE",
"270 52 LINE",
"91 52 LINE SMOOTH",
"75 52 OFFCURVE",
"59 40 OFFCURVE",
"59 27 CURVE SMOOTH",
"59 13 OFFCURVE",
"75 0 OFFCURVE",
"91 0 CURVE SMOOTH"
);
}
);
width = 714;
}
);
note = Omega;
unicode = 03A9;
},
{
glyphname = mu;
lastChange = "2017-12-19 09:40:10 +0000";
layers = (
{
layerId = "0B1DFD06-3317-40CA-B510-4969A0718C16";
paths = (
{
closed = 1;
nodes = (
"161 24 OFFCURVE",
"240 -7 OFFCURVE",
"339 -7 CURVE SMOOTH",
"436 -7 OFFCURVE",
"503 30 OFFCURVE",
"545 91 CURVE",
"545 22 LINE SMOOTH",
"545 6 OFFCURVE",
"557 -6 OFFCURVE",
"571 -6 CURVE SMOOTH",
"587 -6 OFFCURVE",
"597 6 OFFCURVE",
"597 22 CURVE SMOOTH",
"597 486 LINE SMOOTH",
"597 502 OFFCURVE",
"585 513 OFFCURVE",
"571 513 CURVE SMOOTH",
"555 513 OFFCURVE",
"544 502 OFFCURVE",
"544 486 CURVE SMOOTH",
"544 252 LINE SMOOTH",
"544 116 OFFCURVE",
"476 49 OFFCURVE",
"339 49 CURVE SMOOTH",
"216 49 OFFCURVE",
"137 122 OFFCURVE",
"137 237 CURVE SMOOTH",
"137 486 LINE SMOOTH",
"137 502 OFFCURVE",
"124 513 OFFCURVE",
"109 513 CURVE SMOOTH",
"95 513 OFFCURVE",
"82 502 OFFCURVE",
"82 486 CURVE SMOOTH",
"82 59 LINE SMOOTH",
"82 -70 OFFCURVE",
"75 -180 OFFCURVE",
"75 -180 CURVE",
"68 -239 OFFCURVE",
"76 -276 OFFCURVE",
"111 -276 CURVE SMOOTH",
"150 -276 OFFCURVE",
"148 -224 OFFCURVE",
"142 -180 CURVE SMOOTH",
"132 -108 OFFCURVE",
"124 50 OFFCURVE",
"124 105 CURVE"
);
}
);
width = 682;
}
);
note = mu;
unicode = 03BC;
},
{
color = 0;
glyphname = pi;
lastChange = "2017-12-19 09:40:34 +0000";
layers = (
{
layerId = "0B1DFD06-3317-40CA-B510-4969A0718C16";
paths = (
{
closed = 1;
nodes = (
"577 -10 OFFCURVE",
"603 -4 OFFCURVE",
"633 13 CURVE",
"633 54 LINE",
"618 44 OFFCURVE",
"598 36 OFFCURVE",
"581 36 CURVE SMOOTH",
"555 36 OFFCURVE",
"528 49 OFFCURVE",
"528 100 CURVE SMOOTH",
"528 431 LINE",
"647 431 LINE",
"647 470 LINE",
"19 470 LINE",
"19 431 LINE",
"136 431 LINE",
"136 0 LINE",
"231 0 LINE",
"231 431 LINE",
"433 431 LINE",
"433 96 LINE SMOOTH",
"433 32 OFFCURVE",
"466 -10 OFFCURVE",
"540 -10 CURVE SMOOTH"
);
}
);
width = 664;
}
);
note = pi;
unicode = 03C0;
},
{
glyphname = "koKai-thai";
lastChange = "2017-12-19 04:40:53 +0000";
layers = (
{
layerId = "0B1DFD06-3317-40CA-B510-4969A0718C16";
paths = (
{
closed = 1;
nodes = (
"630 509 OFFCURVE",
"536 584 OFFCURVE",
"368 584 CURVE SMOOTH",
"109 584 OFFCURVE",
"72 360 OFFCURVE",
"70 358 CURVE",
"68 336 OFFCURVE",
"75 332 OFFCURVE",
"132 302 CURVE SMOOTH",
"177 279 LINE",
"168 255 OFFCURVE",
"168 232 OFFCURVE",
"167 226 CURVE",
"162 154 OFFCURVE",
"165 88 OFFCURVE",
"167 27 CURVE",
"168 12 OFFCURVE",
"181 0 OFFCURVE",
"197 0 CURVE SMOOTH",
"211 0 OFFCURVE",
"224 13 OFFCURVE",
"223 29 CURVE",
"223 29 LINE",
"221 89 OFFCURVE",
"219 155 OFFCURVE",
"223 223 CURVE",
"223 229 OFFCURVE",
"223 283 OFFCURVE",
"270 303 CURVE SMOOTH",
"285 309 OFFCURVE",
"292 325 OFFCURVE",
"285 339 CURVE",
"279 354 OFFCURVE",
"263 361 OFFCURVE",
"249 355 CURVE SMOOTH",
"232 348 OFFCURVE",
"217 338 OFFCURVE",
"207 326 CURVE",
"181 339 OFFCURVE",
"148 357 OFFCURVE",
"131 367 CURVE",
"145 411 OFFCURVE",
"197 528 OFFCURVE",
"368 528 CURVE SMOOTH",
"498 528 OFFCURVE",
"574 479 OFFCURVE",
"574 341 CURVE",
"574 341 OFFCURVE",
"574 339 OFFCURVE",
"574 29 CURVE SMOOTH",
"574 13 OFFCURVE",
"587 0 OFFCURVE",
"603 0 CURVE SMOOTH",
"618 0 OFFCURVE",
"630 13 OFFCURVE",
"630 29 CURVE SMOOTH",
"630 339 OFFCURVE",
"630 339 OFFCURVE",
"630 339 CURVE"
);
}
);
width = 700;
}
);
note = uni0E01;
unicode = 0E01;
},
{
glyphname = "thoThung-thai";
lastChange = "2017-12-19 04:40:53 +0000";
layers = (
{
layerId = "0B1DFD06-3317-40CA-B510-4969A0718C16";
paths = (
{
closed = 1;
nodes = (
"630 429 OFFCURVE",
"598 482 OFFCURVE",
"568 512 CURVE SMOOTH",
"523 558 OFFCURVE",
"456 582 OFFCURVE",
"367 582 CURVE SMOOTH",
"108 582 OFFCURVE",
"70 358 OFFCURVE",
"70 357 CURVE",
"66 335 OFFCURVE",
"73 331 OFFCURVE",
"131 301 CURVE SMOOTH",
"175 278 LINE",
"167 253 OFFCURVE",
"167 230 OFFCURVE",
"167 224 CURVE",
"162 160 OFFCURVE",
"165 89 OFFCURVE",
"165 86 CURVE SMOOTH",
"165 3 OFFCURVE",
"279 -36 OFFCURVE",
"339 24 CURVE SMOOTH",
"372 58 OFFCURVE",
"372 115 OFFCURVE",
"339 150 CURVE SMOOTH",
"303 186 OFFCURVE",
"247 181 OFFCURVE",
"220 168 CURVE",
"220 181 OFFCURVE",
"220 201 OFFCURVE",
"221 221 CURVE",
"221 227 OFFCURVE",
"221 282 OFFCURVE",
"269 302 CURVE SMOOTH",
"283 308 OFFCURVE",
"290 324 OFFCURVE",
"285 338 CURVE",
"278 352 OFFCURVE",
"262 360 OFFCURVE",
"247 354 CURVE",
"230 345 OFFCURVE",
"216 336 OFFCURVE",
"206 325 CURVE",
"204 325 OFFCURVE",
"147 355 OFFCURVE",
"129 365 CURVE",
"144 410 OFFCURVE",
"196 526 OFFCURVE",
"367 526 CURVE SMOOTH",
"440 526 OFFCURVE",
"493 508 OFFCURVE",
"528 473 CURVE SMOOTH",
"549 450 OFFCURVE",
"574 410 OFFCURVE",
"574 339 CURVE",
"574 339 OFFCURVE",
"574 338 OFFCURVE",
"574 29 CURVE SMOOTH",
"574 13 OFFCURVE",
"585 0 OFFCURVE",
"601 0 CURVE SMOOTH",
"617 0 OFFCURVE",
"630 13 OFFCURVE",
"630 29 CURVE SMOOTH",
"630 338 OFFCURVE",
"630 338 OFFCURVE",
"630 338 CURVE"
);
},
{
closed = 1;
nodes = (
"315 63 OFFCURVE",
"293 46 OFFCURVE",
"266 46 CURVE SMOOTH",
"240 46 OFFCURVE",
"216 59 OFFCURVE",
"216 86 CURVE SMOOTH",
"216 114 OFFCURVE",
"240 128 OFFCURVE",
"266 128 CURVE SMOOTH",
"290 128 OFFCURVE",
"315 114 OFFCURVE",
"315 86 CURVE SMOOTH"
);
}
);
width = 700;
}
);
note = uni0E16;
unicode = 0E16;
},
{
glyphname = "phoSamphao-thai";
lastChange = "2017-12-19 04:40:53 +0000";
layers = (
{
layerId = "0B1DFD06-3317-40CA-B510-4969A0718C16";
paths = (
{
closed = 1;
nodes = (
"643 429 OFFCURVE",
"611 482 OFFCURVE",
"582 512 CURVE SMOOTH",
"538 558 OFFCURVE",
"469 582 OFFCURVE",
"381 582 CURVE SMOOTH",
"122 582 OFFCURVE",
"85 358 OFFCURVE",
"83 357 CURVE",
"81 335 OFFCURVE",
"88 331 OFFCURVE",
"145 301 CURVE SMOOTH",
"190 278 LINE",
"181 253 OFFCURVE",
"181 230 OFFCURVE",
"180 224 CURVE",
"180 203 OFFCURVE",
"178 174 OFFCURVE",
"178 164 CURVE",
"167 168 OFFCURVE",
"154 171 OFFCURVE",
"141 171 CURVE SMOOTH",
"83 171 OFFCURVE",
"40 131 OFFCURVE",
"40 79 CURVE SMOOTH",
"40 19 OFFCURVE",
"92 -13 OFFCURVE",
"141 -13 CURVE SMOOTH",
"191 -13 OFFCURVE",
"237 26 OFFCURVE",
"237 73 CURVE",
"236 82 OFFCURVE",
"236 91 OFFCURVE",
"236 99 CURVE",
"234 122 OFFCURVE",
"233 160 OFFCURVE",
"236 221 CURVE",
"236 227 OFFCURVE",
"236 282 OFFCURVE",
"283 302 CURVE SMOOTH",
"298 308 OFFCURVE",
"305 324 OFFCURVE",
"298 338 CURVE",
"292 352 OFFCURVE",
"276 360 OFFCURVE",
"262 354 CURVE",
"244 345 OFFCURVE",
"230 336 OFFCURVE",
"220 325 CURVE",
"219 325 OFFCURVE",
"161 355 OFFCURVE",
"144 365 CURVE",
"158 410 OFFCURVE",
"210 526 OFFCURVE",
"381 526 CURVE SMOOTH",
"454 526 OFFCURVE",
"508 508 OFFCURVE",
"542 473 CURVE SMOOTH",
"564 450 OFFCURVE",
"587 410 OFFCURVE",
"587 339 CURVE",
"587 339 OFFCURVE",
"587 338 OFFCURVE",
"587 29 CURVE SMOOTH",
"587 13 OFFCURVE",
"600 0 OFFCURVE",
"615 0 CURVE SMOOTH",
"631 0 OFFCURVE",
"643 13 OFFCURVE",
"643 29 CURVE SMOOTH",
"643 338 OFFCURVE",
"643 338 OFFCURVE",
"643 338 CURVE"
);
},
{
closed = 1;
nodes = (
"186 55 OFFCURVE",
"168 37 OFFCURVE",
"141 37 CURVE SMOOTH",
"115 37 OFFCURVE",
"91 53 OFFCURVE",
"91 79 CURVE SMOOTH",
"91 105 OFFCURVE",
"115 121 OFFCURVE",
"141 121 CURVE SMOOTH",
"165 121 OFFCURVE",
"186 105 OFFCURVE",
"186 79 CURVE SMOOTH"
);
}
);
width = 713;
}
);
note = uni0E20;
unicode = 0E20;
},
{
glyphname = "ru-thai";
lastChange = "2017-12-19 04:40:53 +0000";
layers = (
{
layerId = "0B1DFD06-3317-40CA-B510-4969A0718C16";
paths = (
{
closed = 1;
nodes = (
"630 429 OFFCURVE",
"598 482 OFFCURVE",
"569 512 CURVE SMOOTH",
"523 559 OFFCURVE",
"456 582 OFFCURVE",
"368 582 CURVE SMOOTH",
"109 582 OFFCURVE",
"70 358 OFFCURVE",
"70 357 CURVE",
"68 335 OFFCURVE",
"75 331 OFFCURVE",
"131 301 CURVE SMOOTH",
"177 278 LINE",
"168 253 OFFCURVE",
"167 232 OFFCURVE",
"167 224 CURVE",
"162 160 OFFCURVE",
"167 89 OFFCURVE",
"167 88 CURVE SMOOTH",
"167 4 OFFCURVE",
"278 -37 OFFCURVE",
"339 24 CURVE SMOOTH",
"374 59 OFFCURVE",
"374 115 OFFCURVE",
"339 150 CURVE SMOOTH",
"303 186 OFFCURVE",
"247 181 OFFCURVE",
"220 170 CURVE",
"221 181 OFFCURVE",
"220 201 OFFCURVE",
"221 221 CURVE",
"221 227 OFFCURVE",
"223 282 OFFCURVE",
"270 302 CURVE SMOOTH",
"285 308 OFFCURVE",
"290 324 OFFCURVE",
"285 338 CURVE SMOOTH",
"279 352 OFFCURVE",
"263 360 OFFCURVE",
"249 354 CURVE SMOOTH",
"230 347 OFFCURVE",
"217 336 OFFCURVE",
"206 325 CURVE",
"206 325 OFFCURVE",
"148 355 OFFCURVE",
"131 365 CURVE",
"144 410 OFFCURVE",
"197 526 OFFCURVE",
"368 526 CURVE SMOOTH",
"440 526 OFFCURVE",
"495 508 OFFCURVE",
"529 473 CURVE SMOOTH",
"551 452 OFFCURVE",
"574 410 OFFCURVE",
"574 339 CURVE",
"574 339 OFFCURVE",
"574 311 OFFCURVE",
"574 -220 CURVE SMOOTH",
"574 -236 OFFCURVE",
"587 -249 OFFCURVE",
"603 -249 CURVE SMOOTH",
"617 -249 OFFCURVE",
"630 -236 OFFCURVE",
"630 -220 CURVE SMOOTH",
"630 309 OFFCURVE",
"630 338 OFFCURVE",
"630 338 CURVE"
);
},
{
closed = 1;
nodes = (
"315 63 OFFCURVE",
"295 46 OFFCURVE",
"266 46 CURVE SMOOTH",
"240 46 OFFCURVE",
"217 60 OFFCURVE",
"217 88 CURVE SMOOTH",
"217 115 OFFCURVE",
"240 128 OFFCURVE",
"266 128 CURVE SMOOTH",
"293 128 OFFCURVE",
"315 115 OFFCURVE",
"315 88 CURVE SMOOTH"
);
}
);
width = 700;
}
);
note = uni0E24;
unicode = 0E24;
},
{
color = 0;
glyphname = "ru-thai.short";
lastChange = "2017-12-19 04:40:58 +0000";
layers = (
{
layerId = "0B1DFD06-3317-40CA-B510-4969A0718C16";
paths = (
{
closed = 1;
nodes = (
"524 -140 LINE",
"524 379 LINE SMOOTH",
"524 505 OFFCURVE",
"416 563 OFFCURVE",
"285 563 CURVE SMOOTH",
"171 563 OFFCURVE",
"50 499 OFFCURVE",
"38 348 CURVE",
"145 348 LINE",
"81 321 OFFCURVE",
"59 268 OFFCURVE",
"59 215 CURVE SMOOTH",
"59 117 LINE SMOOTH",
"59 38 OFFCURVE",
"94 -10 OFFCURVE",
"181 -10 CURVE SMOOTH",
"239 -10 OFFCURVE",
"285 27 OFFCURVE",
"285 87 CURVE SMOOTH",
"285 155 OFFCURVE",
"229 179 OFFCURVE",
"196 179 CURVE SMOOTH",
"181 179 OFFCURVE",
"165 177 OFFCURVE",
"154 169 CURVE",
"154 222 LINE SMOOTH",
"154 288 OFFCURVE",
"176 319 OFFCURVE",
"232 346 CURVE",
"232 381 LINE",
"92 381 LINE",
"107 472 OFFCURVE",
"191 520 OFFCURVE",
"270 520 CURVE SMOOTH",
"373 520 OFFCURVE",
"429 461 OFFCURVE",
"429 396 CURVE SMOOTH",
"429 -140 LINE"
);
},
{
closed = 1;
nodes = (
"146 23 OFFCURVE",
"125 52 OFFCURVE",
"125 87 CURVE SMOOTH",
"125 122 OFFCURVE",
"152 149 OFFCURVE",
"188 149 CURVE SMOOTH",
"223 149 OFFCURVE",
"249 122 OFFCURVE",
"249 87 CURVE SMOOTH",
"249 52 OFFCURVE",
"226 23 OFFCURVE",
"188 23 CURVE SMOOTH"
);
}
);
width = 585;
}
);
note = "ru-thai.short";
},
{
glyphname = "lu-thai";
lastChange = "2017-12-19 04:40:53 +0000";
layers = (
{
layerId = "0B1DFD06-3317-40CA-B510-4969A0718C16";
paths = (
{
closed = 1;
nodes = (
"643 429 OFFCURVE",
"611 482 OFFCURVE",
"581 512 CURVE SMOOTH",
"536 559 OFFCURVE",
"469 582 OFFCURVE",
"380 582 CURVE SMOOTH",
"121 582 OFFCURVE",
"83 358 OFFCURVE",
"83 357 CURVE",
"79 335 OFFCURVE",
"86 331 OFFCURVE",
"144 301 CURVE SMOOTH",
"188 278 LINE",
"180 253 OFFCURVE",
"180 232 OFFCURVE",
"180 224 CURVE",
"178 203 OFFCURVE",
"177 183 OFFCURVE",
"177 173 CURVE",
"165 177 OFFCURVE",
"152 178 OFFCURVE",
"139 178 CURVE SMOOTH",
"82 178 OFFCURVE",
"40 139 OFFCURVE",
"40 88 CURVE SMOOTH",
"40 27 OFFCURVE",
"91 -4 OFFCURVE",
"139 -4 CURVE SMOOTH",
"191 -4 OFFCURVE",
"237 35 OFFCURVE",
"236 82 CURVE",
"236 91 OFFCURVE",
"234 99 OFFCURVE",
"234 106 CURVE",
"233 129 OFFCURVE",
"230 160 OFFCURVE",
"236 221 CURVE",
"236 227 OFFCURVE",
"234 282 OFFCURVE",
"282 302 CURVE SMOOTH",
"296 308 OFFCURVE",
"303 324 OFFCURVE",
"298 338 CURVE SMOOTH",
"292 352 OFFCURVE",
"275 360 OFFCURVE",
"260 354 CURVE SMOOTH",
"243 347 OFFCURVE",
"229 336 OFFCURVE",
"219 325 CURVE",
"217 325 OFFCURVE",
"160 355 OFFCURVE",
"142 365 CURVE",
"157 410 OFFCURVE",
"209 526 OFFCURVE",
"380 526 CURVE SMOOTH",
"453 526 OFFCURVE",
"508 508 OFFCURVE",
"542 473 CURVE SMOOTH",
"562 452 OFFCURVE",
"587 410 OFFCURVE",
"587 339 CURVE",
"587 339 OFFCURVE",
"587 311 OFFCURVE",
"587 -220 CURVE SMOOTH",
"587 -236 OFFCURVE",
"598 -249 OFFCURVE",
"614 -249 CURVE SMOOTH",
"630 -249 OFFCURVE",
"643 -236 OFFCURVE",
"643 -220 CURVE SMOOTH",
"643 309 OFFCURVE",
"643 338 OFFCURVE",
"643 338 CURVE"
);
},
{
closed = 1;
nodes = (
"184 62 OFFCURVE",
"167 46 OFFCURVE",
"139 46 CURVE SMOOTH",
"114 46 OFFCURVE",
"91 60 OFFCURVE",
"91 88 CURVE SMOOTH",
"91 115 OFFCURVE",
"114 129 OFFCURVE",
"139 129 CURVE SMOOTH",
"165 129 OFFCURVE",
"184 114 OFFCURVE",
"184 88 CURVE SMOOTH"
);
}
);
width = 712;
}
);
note = uni0E26;
unicode = 0E26;
},
{
color = 0;
glyphname = "lu-thai.short";
lastChange = "2017-12-19 04:40:58 +0000";
layers = (
{
layerId = "0B1DFD06-3317-40CA-B510-4969A0718C16";
paths = (
{
closed = 1;
nodes = (
"567 -140 LINE",
"567 379 LINE SMOOTH",
"567 505 OFFCURVE",
"459 563 OFFCURVE",
"329 563 CURVE SMOOTH",
"214 563 OFFCURVE",
"94 499 OFFCURVE",
"81 348 CURVE",
"211 348 LINE",
"152 323 OFFCURVE",
"132 275 OFFCURVE",
"132 223 CURVE SMOOTH",
"132 169 LINE",
"120 177 OFFCURVE",
"105 179 OFFCURVE",
"90 179 CURVE SMOOTH",
"56 179 OFFCURVE",
"0 155 OFFCURVE",
"0 87 CURVE SMOOTH",
"0 27 OFFCURVE",
"47 -10 OFFCURVE",
"105 -10 CURVE SMOOTH",
"185 -10 OFFCURVE",
"227 32 OFFCURVE",
"227 103 CURVE SMOOTH",
"227 206 LINE SMOOTH",
"227 277 OFFCURVE",
"241 318 OFFCURVE",
"297 346 CURVE",
"297 381 LINE",
"134 381 LINE",
"149 472 OFFCURVE",
"234 520 OFFCURVE",
"313 520 CURVE SMOOTH",
"416 520 OFFCURVE",
"472 461 OFFCURVE",
"472 396 CURVE SMOOTH",
"472 -140 LINE"
);
},
{
closed = 1;
nodes = (
"60 23 OFFCURVE",
"37 52 OFFCURVE",
"37 87 CURVE SMOOTH",
"37 122 OFFCURVE",
"63 149 OFFCURVE",
"98 149 CURVE SMOOTH",
"134 149 OFFCURVE",
"161 122 OFFCURVE",
"161 87 CURVE SMOOTH",
"161 52 OFFCURVE",
"139 23 OFFCURVE",
"98 23 CURVE SMOOTH"
);
}
);
width = 628;
}
);
note = "lu-thai.short";
},
{
glyphname = "doChada-thai";
lastChange = "2017-12-19 04:40:53 +0000";
layers = (
{
layerId = "0B1DFD06-3317-40CA-B510-4969A0718C16";
paths = (
{
closed = 1;
nodes = (
"643 429 OFFCURVE",
"611 482 OFFCURVE",
"582 512 CURVE SMOOTH",
"536 559 OFFCURVE",
"469 582 OFFCURVE",
"381 582 CURVE SMOOTH",
"121 582 OFFCURVE",
"83 358 OFFCURVE",
"83 357 CURVE",
"81 335 OFFCURVE",
"88 331 OFFCURVE",
"144 301 CURVE SMOOTH",
"190 278 LINE",
"180 253 OFFCURVE",
"177 183 OFFCURVE",
"177 173 CURVE",
"165 177 OFFCURVE",
"152 178 OFFCURVE",
"139 178 CURVE SMOOTH",
"83 178 OFFCURVE",
"40 139 OFFCURVE",
"40 88 CURVE SMOOTH",
"40 33 OFFCURVE",
"86 -4 OFFCURVE",
"139 -4 CURVE SMOOTH",
"211 -4 OFFCURVE",
"234 45 OFFCURVE",
"234 73 CURVE",
"236 79 OFFCURVE",
"234 99 OFFCURVE",
"234 106 CURVE",
"233 129 OFFCURVE",
"232 160 OFFCURVE",
"236 221 CURVE",
"236 227 OFFCURVE",
"234 282 OFFCURVE",
"283 302 CURVE SMOOTH",
"298 308 OFFCURVE",
"303 324 OFFCURVE",
"298 338 CURVE SMOOTH",
"292 352 OFFCURVE",
"275 360 OFFCURVE",
"260 354 CURVE SMOOTH",
"243 347 OFFCURVE",
"230 336 OFFCURVE",
"219 325 CURVE",
"219 325 OFFCURVE",
"161 355 OFFCURVE",
"144 365 CURVE",
"157 410 OFFCURVE",
"209 526 OFFCURVE",
"381 526 CURVE SMOOTH",
"453 526 OFFCURVE",
"508 508 OFFCURVE",
"542 473 CURVE SMOOTH",
"564 452 OFFCURVE",
"587 410 OFFCURVE",
"587 339 CURVE",
"587 339 OFFCURVE",
"587 334 OFFCURVE",
"587 -178 CURVE",
"584 -200 OFFCURVE",
"552 -237 OFFCURVE",
"535 -252 CURVE",
"528 -247 OFFCURVE",
"516 -240 OFFCURVE",
"506 -233 CURVE",
"477 -214 OFFCURVE",
"439 -190 OFFCURVE",
"397 -170 CURVE",
"398 -151 OFFCURVE",
"398 -129 OFFCURVE",
"397 -105 CURVE SMOOTH",
"395 -89 OFFCURVE",
"381 -78 OFFCURVE",
"365 -81 CURVE",
"351 -82 OFFCURVE",
"339 -96 OFFCURVE",
"341 -111 CURVE",
"341 -124 OFFCURVE",
"341 -135 OFFCURVE",
"341 -147 CURVE",
"316 -139 OFFCURVE",
"293 -135 OFFCURVE",
"267 -135 CURVE SMOOTH",
"203 -135 OFFCURVE",
"151 -174 OFFCURVE",
"151 -223 CURVE SMOOTH",
"151 -282 OFFCURVE",
"214 -311 OFFCURVE",
"267 -311 CURVE SMOOTH",
"334 -311 OFFCURVE",
"383 -293 OFFCURVE",
"390 -223 CURVE",
"421 -243 OFFCURVE",
"452 -265 OFFCURVE",
"475 -280 CURVE",
"506 -301 OFFCURVE",
"519 -309 OFFCURVE",
"532 -311 CURVE",
"546 -313 OFFCURVE",
"559 -305 OFFCURVE",
"569 -296 CURVE SMOOTH",
"591 -279 OFFCURVE",
"638 -227 OFFCURVE",
"643 -183 CURVE",
"643 -181 LINE",
"643 -180 LINE SMOOTH",
"643 334 OFFCURVE",
"643 338 OFFCURVE",
"643 338 CURVE"
);
},
{
closed = 1;
nodes = (
"186 62 OFFCURVE",
"167 46 OFFCURVE",
"139 46 CURVE SMOOTH",
"114 46 OFFCURVE",
"91 62 OFFCURVE",
"91 88 CURVE SMOOTH",
"91 114 OFFCURVE",
"114 129 OFFCURVE",
"139 129 CURVE SMOOTH",
"165 129 OFFCURVE",
"186 114 OFFCURVE",
"186 88 CURVE SMOOTH"
);
},
{
closed = 1;
nodes = (
"335 -242 OFFCURVE",
"308 -262 OFFCURVE",
"267 -262 CURVE SMOOTH",
"242 -262 OFFCURVE",
"201 -250 OFFCURVE",
"201 -223 CURVE SMOOTH",
"201 -196 OFFCURVE",
"243 -186 OFFCURVE",
"267 -186 CURVE SMOOTH",
"293 -186 OFFCURVE",
"335 -196 OFFCURVE",
"335 -223 CURVE SMOOTH"
);
}
);
width = 713;
}
);
note = uni0E0E;
unicode = 0E0E;
},
{
glyphname = "doChada-thai.short";
lastChange = "2017-12-19 04:41:17 +0000";
layers = (
{
layerId = "0B1DFD06-3317-40CA-B510-4969A0718C16";
paths = (
{
closed = 1;
nodes = (
"643 429 OFFCURVE",
"611 482 OFFCURVE",
"582 512 CURVE SMOOTH",
"536 559 OFFCURVE",
"469 582 OFFCURVE",
"381 582 CURVE SMOOTH",
"121 582 OFFCURVE",
"83 358 OFFCURVE",
"83 357 CURVE",
"81 335 OFFCURVE",
"88 331 OFFCURVE",
"144 301 CURVE SMOOTH",
"190 278 LINE",
"180 253 OFFCURVE",
"177 183 OFFCURVE",
"177 173 CURVE",
"165 177 OFFCURVE",
"152 178 OFFCURVE",
"139 178 CURVE SMOOTH",
"83 178 OFFCURVE",
"40 139 OFFCURVE",
"40 88 CURVE SMOOTH",
"40 33 OFFCURVE",
"86 -4 OFFCURVE",
"139 -4 CURVE SMOOTH",
"211 -4 OFFCURVE",
"234 45 OFFCURVE",
"234 73 CURVE",
"236 79 OFFCURVE",
"234 99 OFFCURVE",
"234 106 CURVE",
"233 129 OFFCURVE",
"232 160 OFFCURVE",
"236 221 CURVE",
"236 223 LINE",
"236 224 LINE SMOOTH",
"236 227 OFFCURVE",
"234 282 OFFCURVE",
"283 302 CURVE SMOOTH",
"298 308 OFFCURVE",
"303 324 OFFCURVE",
"298 338 CURVE SMOOTH",
"292 352 OFFCURVE",
"275 360 OFFCURVE",
"260 354 CURVE SMOOTH",
"243 347 OFFCURVE",
"230 336 OFFCURVE",
"219 325 CURVE",
"219 325 OFFCURVE",
"161 355 OFFCURVE",
"144 365 CURVE",
"157 410 OFFCURVE",
"209 526 OFFCURVE",
"381 526 CURVE SMOOTH",
"453 526 OFFCURVE",
"508 508 OFFCURVE",
"542 473 CURVE SMOOTH",
"564 452 OFFCURVE",
"587 410 OFFCURVE",
"587 339 CURVE",
"587 339 OFFCURVE",
"587 338 OFFCURVE",
"587 -174 CURVE",
"584 -196 OFFCURVE",
"549 -240 OFFCURVE",
"532 -255 CURVE",
"486 -226 OFFCURVE",
"446 -188 OFFCURVE",
"397 -165 CURVE",
"398 -147 OFFCURVE",
"398 -125 OFFCURVE",
"397 -101 CURVE SMOOTH",
"395 -85 OFFCURVE",
"381 -73 OFFCURVE",
"365 -76 CURVE",
"351 -78 OFFCURVE",
"339 -92 OFFCURVE",
"341 -106 CURVE",
"341 -119 OFFCURVE",
"341 -138 OFFCURVE",
"341 -150 CURVE",
"324 -139 OFFCURVE",
"293 -131 OFFCURVE",
"267 -131 CURVE SMOOTH",
"203 -131 OFFCURVE",
"151 -170 OFFCURVE",
"151 -219 CURVE SMOOTH",
"151 -278 OFFCURVE",
"214 -306 OFFCURVE",
"267 -306 CURVE SMOOTH",
"334 -306 OFFCURVE",
"383 -288 OFFCURVE",
"390 -219 CURVE",
"421 -239 OFFCURVE",
"452 -260 OFFCURVE",
"475 -276 CURVE",
"506 -296 OFFCURVE",
"519 -305 OFFCURVE",
"532 -306 CURVE",
"546 -309 OFFCURVE",
"559 -301 OFFCURVE",
"569 -292 CURVE SMOOTH",
"591 -275 OFFCURVE",
"638 -223 OFFCURVE",
"643 -178 CURVE",
"643 -177 LINE",
"643 -175 LINE SMOOTH",
"643 338 OFFCURVE",
"643 338 OFFCURVE",
"643 338 CURVE"
);
},
{
closed = 1;
nodes = (
"186 62 OFFCURVE",
"167 46 OFFCURVE",
"139 46 CURVE SMOOTH",
"114 46 OFFCURVE",
"91 62 OFFCURVE",
"91 88 CURVE SMOOTH",
"91 114 OFFCURVE",
"114 129 OFFCURVE",
"139 129 CURVE SMOOTH",
"165 129 OFFCURVE",
"186 114 OFFCURVE",
"186 88 CURVE SMOOTH"
);
},
{
closed = 1;
nodes = (
"335 -237 OFFCURVE",
"308 -257 OFFCURVE",
"267 -257 CURVE SMOOTH",
"242 -257 OFFCURVE",
"201 -246 OFFCURVE",
"201 -219 CURVE SMOOTH",
"201 -191 OFFCURVE",
"243 -181 OFFCURVE",
"267 -181 CURVE SMOOTH",
"293 -181 OFFCURVE",
"335 -191 OFFCURVE",
"335 -219 CURVE SMOOTH"
);
}
);
width = 713;
}
);
note = "doChada-thai.short";
},
